<?xml version="1.0" encoding="UTF-8"?>
<!DOCTYPE svg PUBLIC "-//W3C//DTD SVG 1.1//EN" "http://www.w3.org/Graphics/SVG/1.1/DTD/svg11.dtd">
<svg version="1.2" xmlns="http://www.w3.org/2000/svg" xmlns:xlink="http://www.w3.org/1999/xlink" x="0mm" y="0mm" width="225.7777778mm" height="28.2222222mm" viewBox="0 0 225.7777778 28.2222222">
<style type="text/css"><![CDATA[
text { font:12px Dialog; }
]]></style>
<g transform="matrix(238.7777777778 0 0 23.2222222222 2 0) ">
<path d="M0,0 L1,0 L1,1 L0,1 L0,0 Z" style="fill:rgb(255,255,255);stroke:none" />
</g>
<g transform="matrix(239.77777099609375 0 0 24.22222137451172 1.5 -0.5) ">
<path d="M0.0020853,0.0412844 L0.9979147,0.0412844 L0.9979147,0.0206422 L0.9958295,0.0206422 L0.9958295,0.9793578 L0.9979147,0.9793578 L0.9979147,0.9587156 L0.0020853,0.9587156 L0.0020853,0.9793578 L0.0041705,0.9793578 L0.0041705,0.0206422 L0.0020853,0.0206422 L0.0020853,0.0412844 Z M0,0.0206422 L0,0.9793578 L0,1 L0.0020853,1 L0.9979147,1 L1,1 L1,0.9793578 L1,0.0206422 L1,0 L0.9979147,0 L0.0020853,0 L0,0 L0,0.0206422 Z" style="fill:rgb(255,255,255);stroke:none" />
</g>
<g transform="matrix(17.44914529914692 0 0 1.3470047445542654 2.4591880341880774 21.875217477645734) ">
<clipPath id="clip1"><path d="M-0.0263158,-16.2398964 L13.6578947,-16.2398964 L13.6578947,1 L-0.0263158,1 L-0.0263158,-16.2398964 Z" /></clipPath>
<path d="M0,0 L1,0 L1,1 L0,1 L0,0 Z" style="fill:rgb(51,102,204);stroke:none" clip-path="url(#clip1)" />
</g>
<g transform="matrix(17.449145299146924 0 0 5.702087446605656 20.826709401711152 17.520134775594343) ">
<clipPath id="clip2"><path d="M-1.0789474,-3.0725826 L12.6052632,-3.0725826 L12.6052632,1 L-1.0789474,1 L-1.0789474,-3.0725826 Z" /></clipPath>
<path d="M0,0 L1,0 L1,1 L0,1 L0,0 Z" style="fill:rgb(51,102,204);stroke:none" clip-path="url(#clip2)" />
</g>
<g transform="matrix(17.44914529914692 0 0 8.5095105476863 39.19423076923423 14.712711674513699) ">
<clipPath id="clip3"><path d="M-2.1315789,-1.7289727 L11.5526316,-1.7289727 L11.5526316,1 L-2.1315789,1 L-2.1315789,-1.7289727 Z" /></clipPath>
<path d="M0,0 L1,0 L1,1 L0,1 L0,0 Z" style="fill:rgb(51,102,204);stroke:none" clip-path="url(#clip3)" />
</g>
<g transform="matrix(17.449145299146934 0 0 9.66109491629631 57.561752136757306 13.561127305903689) ">
<clipPath id="clip4"><path d="M-3.1842105,-1.4036843 L10.5,-1.4036843 L10.5,1 L-3.1842105,1 L-3.1842105,-1.4036843 Z" /></clipPath>
<path d="M0,0 L1,0 L1,1 L0,1 L0,0 Z" style="fill:rgb(51,102,204);stroke:none" clip-path="url(#clip4)" />
</g>
<g transform="matrix(17.449145299146906 0 0 9.371453996352143 75.92927350428039 13.850768225847856) ">
<clipPath id="clip5"><path d="M-4.2368421,-1.4779743 L9.4473684,-1.4779743 L9.4473684,1 L-4.2368421,1 L-4.2368421,-1.4779743 Z" /></clipPath>
<path d="M0,0 L1,0 L1,1 L0,1 L0,0 Z" style="fill:rgb(51,102,204);stroke:none" clip-path="url(#clip5)" />
</g>
<g transform="matrix(17.449145299146906 0 0 7.82204957629807 94.29679487180347 15.400172645901929) ">
<clipPath id="clip6"><path d="M-5.2894737,-1.9688155 L8.3947368,-1.9688155 L8.3947368,1 L-5.2894737,1 L-5.2894737,-1.9688155 Z" /></clipPath>
<path d="M0,0 L1,0 L1,1 L0,1 L0,0 Z" style="fill:rgb(51,102,204);stroke:none" clip-path="url(#clip6)" />
</g>
<g transform="matrix(17.449145299146906 0 0 5.695108147050103 112.66431623932654 17.527114075149896) ">
<clipPath id="clip7"><path d="M-6.3421053,-3.0775735 L7.3421053,-3.0775735 L7.3421053,1 L-6.3421053,1 L-6.3421053,-3.0775735 Z" /></clipPath>
<path d="M0,0 L1,0 L1,1 L0,1 L0,0 Z" style="fill:rgb(51,102,204);stroke:none" clip-path="url(#clip7)" />
</g>
<g transform="matrix(17.44914529914695 0 0 3.800228410607474 131.0318376068496 19.421993811592525) ">
<clipPath id="clip8"><path d="M-7.3947368,-5.1107438 L6.2894737,-5.1107438 L6.2894737,1 L-7.3947368,1 L-7.3947368,-5.1107438 Z" /></clipPath>
<path d="M0,0 L1,0 L1,1 L0,1 L0,0 Z" style="fill:rgb(51,102,204);stroke:none" clip-path="url(#clip8)" />
</g>
<g transform="matrix(17.44914529914692 0 0 2.4567133158309815 149.3993589743727 20.765508906369018) ">
<clipPath id="clip9"><path d="M-8.4473684,-8.4525568 L5.2368421,-8.4525568 L5.2368421,1 L-8.4473684,1 L-8.4473684,-8.4525568 Z" /></clipPath>
<path d="M0,0 L1,0 L1,1 L0,1 L0,0 Z" style="fill:rgb(51,102,204);stroke:none" clip-path="url(#clip9)" />
</g>
<g transform="matrix(17.44914529914695 0 0 1.5406802956096364 167.76688034189576 21.681541926590363) ">
<clipPath id="clip10"><path d="M-9.5,-14.0727067 L4.1842105,-14.0727067 L4.1842105,1 L-9.5,1 L-9.5,-14.0727067 Z" /></clipPath>
<path d="M0,0 L1,0 L1,1 L0,1 L0,0 Z" style="fill:rgb(51,102,204);stroke:none" clip-path="url(#clip10)" />
</g>
<g transform="matrix(17.44914529914692 0 0 0.8636882735547289 186.13440170941885 22.35853394864527) ">
<clipPath id="clip11"><path d="M-10.5526316,-25.8872728 L3.1315789,-25.8872728 L3.1315789,1 L-10.5526316,1 L-10.5526316,-25.8872728 Z" /></clipPath>
<path d="M0,0 L1,0 L1,1 L0,1 L0,0 Z" style="fill:rgb(51,102,204);stroke:none" clip-path="url(#clip11)" />
</g>
<g transform="matrix(17.44914529914692 0 0 1.2859358792487683 204.50192307694192 21.93628634295123) ">
<clipPath id="clip12"><path d="M-11.6052632,-17.058616 L2.0789474,-17.058616 L2.0789474,1 L-11.6052632,1 L-11.6052632,-17.058616 Z" /></clipPath>
<path d="M0,0 L1,0 L1,1 L0,1 L0,0 Z" style="fill:rgb(51,102,204);stroke:none" clip-path="url(#clip12)" />
</g>
<g transform="matrix(4.320000201463699 0 0 2.2289998531341553 9.023760583029688 18.960717551078655) ">
<clipPath id="clip13"><path d="M-1.6258704,-8.506379 L53.6467607,-8.506379 L53.6467607,1.9118461 L-1.6258704,1.9118461 L-1.6258704,-8.506379 Z" /></clipPath>
<path d="M0.5458333,0.0915208 Q0.5659722,0.0915208 0.5774305,0.1110363 Q0.5888888,0.1305518 0.5951388,0.1594885 Q0.6013889,0.1884252 0.603125,0.2227456 Q0.6048611,0.2570659 0.6048611,0.2866756 Q0.6048611,0.3176312 0.6027777,0.3526245 Q0.6006944,0.3876177 0.5940972,0.4165545 Q0.5874999,0.4454912 0.5756944,0.4643337 Q0.5638888,0.4831763 0.54375,0.4831763 Q0.5243055,0.4831763 0.5128472,0.4636608 Q0.5013888,0.4441453 0.4951389,0.4152086 Q0.4888889,0.3862719 0.4871528,0.3519515 Q0.4854166,0.3176312 0.4854166,0.2880215 Q0.4854166,0.2570659 0.4875,0.2227456 Q0.4895833,0.1884252 0.4961805,0.1594885 Q0.5027777,0.1305518 0.5145833,0.1110363 Q0.5263889,0.0915208 0.5458333,0.0915208 Z M0.5458333,0.0174965 Q0.5138889,0.0174965 0.4923611,0.0397038 Q0.4708333,0.0619111 0.4576389,0.0995962 Q0.4444444,0.1372812 0.4388889,0.1864064 Q0.4333333,0.2355316 0.4333333,0.2907133 Q0.4333333,0.345895 0.4392361,0.3943472 Q0.4451389,0.4427994 0.4583333,0.4791386 Q0.4715277,0.5154778 0.4930555,0.5363392 Q0.5145833,0.5572005 0.5458333,0.5572005 Q0.5763889,0.5572005 0.5972222,0.5343203 Q0.6180555,0.5114401 0.6315972,0.474428 Q0.6451389,0.4374159 0.6510416,0.3882907 Q0.6569444,0.3391655 0.6569444,0.2866756 Q0.6569444,0.2314939 0.6517361,0.1823687 Q0.6465278,0.1332436 0.6336805,0.0969044 Q0.6208333,0.0605653 0.5996527,0.0390309 Q0.5784722,0.0174965 0.5458333,0.0174965 Z M0.8888888,0.5222073 Q0.9090278,0.5222073 0.9204861,0.5417227 Q0.9319444,0.5612382 0.9381944,0.5901749 Q0.9444444,0.6191117 0.9461805,0.653432 Q0.9479166,0.6877524 0.9479166,0.7173621 Q0.9479166,0.7483177 0.9458333,0.7833109 Q0.94375,0.8183042 0.9371528,0.847241 Q0.9305555,0.8761776 0.9187499,0.8950202 Q0.9069444,0.9138628 0.8868055,0.9138628 Q0.8673611,0.9138628 0.8559027,0.8943473 Q0.8444444,0.8748317 0.8381944,0.8458951 Q0.8319444,0.8169583 0.8302083,0.782638 Q0.8284722,0.7483177 0.8284722,0.7187079 Q0.8284722,0.6877524 0.8305555,0.653432 Q0.8326388,0.6191117 0.8392361,0.5901749 Q0.8458333,0.5612382 0.8576388,0.5417227 Q0.8694444,0.5222073 0.8888888,0.5222073 Z M0.1722222,0.0174965 Q0.1333333,0.0174965 0.1027778,0.0430686 Q0.0722222,0.0686406 0.0517361,0.1137281 Q0.03125,0.1588156 0.0215278,0.2207267 Q0.0118056,0.2826379 0.0138889,0.3553163 L0.0729167,0.3553163 Q0.0722222,0.3122476 0.0774306,0.2698519 Q0.0826389,0.2274562 0.0944444,0.1938089 Q0.10625,0.1601615 0.1246528,0.1393001 Q0.1430555,0.1184387 0.16875,0.1184387 Q0.1881944,0.1184387 0.2055555,0.1305518 Q0.2229166,0.1426648 0.2357639,0.165545 Q0.2486111,0.1884252 0.25625,0.2200538 Q0.2638889,0.2516823 0.2638889,0.2907133 Q0.2638889,0.3405114 0.2559028,0.3781965 Q0.2479167,0.4158816 0.2322917,0.448183 Q0.2166667,0.4804845 0.1930556,0.512113 Q0.1694444,0.5437416 0.1381944,0.5814266 Q0.1125,0.6110364 0.0888889,0.6446837 Q0.0652778,0.6783311 0.0465278,0.7227456 Q0.0277778,0.7671601 0.015625,0.8270525 Q0.0034722,0.8869449 0,0.9717362 L0.3215278,0.9717362 L0.3215278,0.8707941 L0.06875,0.8707941 Q0.0729167,0.8263796 0.0864583,0.7920592 Q0.1,0.7577389 0.1190972,0.7281292 Q0.1381944,0.6985195 0.1611111,0.6722745 Q0.1840278,0.6460296 0.2069444,0.6191117 Q0.2298611,0.5908479 0.2513889,0.5598923 Q0.2729167,0.5289367 0.2895833,0.4905787 Q0.30625,0.4522207 0.3163194,0.4037685 Q0.3263889,0.3553163 0.3263889,0.2920592 Q0.3263889,0.2247645 0.3142361,0.1736204 Q0.3020833,0.1224764 0.28125,0.0881561 Q0.2604167,0.0538358 0.2322917,0.0356662 Q0.2041667,0.0174965 0.1722222,0.0174965 Z M0.8888888,0.448183 Q0.8569444,0.448183 0.8354166,0.4703903 Q0.8138889,0.4925976 0.8006944,0.5302826 Q0.7875,0.5679677 0.7819444,0.6170929 Q0.7763888,0.666218 0.7763888,0.7213997 Q0.7763888,0.7765815 0.7822916,0.8250337 Q0.7881944,0.8734858 0.8013888,0.9091521 Q0.8145833,0.9448183 0.8361111,0.9656797 Q0.8576388,0.9865411 0.8888888,0.9865411 Q0.9194444,0.9865411 0.9402777,0.9643338 Q0.9611111,0.9421265 0.9746527,0.9051144 Q0.9881944,0.8681023 0.9940972,0.8189772 Q1,0.7698519 1,0.7173621 Q1,0.6621803 0.9947917,0.6130552 Q0.9895833,0.56393 0.9767361,0.5275908 Q0.9638889,0.4912517 0.9427082,0.4697174 Q0.9215277,0.448183 0.8888888,0.448183 Z M0.8736111,0 L0.4999999,1 L0.5597222,1 L0.9326388,0 Z" style="fill:rgb(0,0,0);stroke:none" clip-path="url(#clip13)" />
</g>
<g transform="matrix(5.798999935388565 0 0 2.2289998531341553 26.651782083590334 14.605634849027265) ">
<clipPath id="clip14"><path d="M-4.2510402,-6.5525508 L36.9246418,-6.5525508 L36.9246418,3.8656743 L-4.2510402,3.8656743 L-4.2510402,-6.5525508 Z" /></clipPath>
<path d="M0.6616658,0.0915208 Q0.6766684,0.0915208 0.6852043,0.1110363 Q0.6937403,0.1305518 0.6983963,0.1594885 Q0.7030522,0.1884252 0.7043456,0.2227456 Q0.7056389,0.2570659 0.7056389,0.2866756 Q0.7056389,0.3176312 0.7040869,0.3526245 Q0.7025349,0.3876177 0.6976203,0.4165545 Q0.6927056,0.4454912 0.683911,0.4643337 Q0.6751164,0.4831763 0.6601138,0.4831763 Q0.6456286,0.4831763 0.6370926,0.4636608 Q0.6285566,0.4441453 0.6239007,0.4152086 Q0.6192447,0.3862719 0.6179514,0.3519515 Q0.616658,0.3176312 0.616658,0.2880215 Q0.616658,0.2570659 0.61821,0.2227456 Q0.619762,0.1884252 0.6246767,0.1594885 Q0.6295913,0.1305518 0.6383859,0.1110363 Q0.6471805,0.0915208 0.6616658,0.0915208 Z M0.6616658,0.0174965 Q0.6378686,0.0174965 0.6218313,0.0397038 Q0.6057941,0.0619111 0.5959648,0.0995962 Q0.5861355,0.1372812 0.5819969,0.1864064 Q0.5778583,0.2355316 0.5778583,0.2907133 Q0.5778583,0.345895 0.5822556,0.3943472 Q0.5866529,0.4427994 0.5964822,0.4791386 Q0.6063114,0.5154778 0.6223487,0.5363392 Q0.6383859,0.5572005 0.6616658,0.5572005 Q0.6844284,0.5572005 0.6999483,0.5343203 Q0.7154682,0.5114401 0.7255562,0.474428 Q0.7356441,0.4374159 0.7400414,0.3882907 Q0.7444387,0.3391655 0.7444387,0.2866756 Q0.7444387,0.2314939 0.7405587,0.1823687 Q0.7366787,0.1332436 0.7271081,0.0969044 Q0.7175375,0.0605653 0.701759,0.0390309 Q0.6859803,0.0174965 0.6616658,0.0174965 Z M0.386446,0.1184387 Q0.4050698,0.1184387 0.4180031,0.1372812 Q0.4309364,0.1561238 0.4394723,0.1864064 Q0.4480083,0.2166891 0.4524056,0.2570659 Q0.4568029,0.2974428 0.4591309,0.3398385 Q0.4614589,0.3822342 0.4617175,0.4246299 Q0.4619762,0.4670256 0.4619762,0.5020188 Q0.4619762,0.5558546 0.4606829,0.6224764 Q0.4593895,0.6890982 0.4524056,0.7476447 Q0.4454216,0.8061911 0.4299017,0.846568 Q0.4143818,0.8869449 0.386446,0.8869449 Q0.3585101,0.8869449 0.3429902,0.846568 Q0.3274703,0.8061911 0.3204863,0.7476447 Q0.3135023,0.6890982 0.312209,0.6224764 Q0.3109157,0.5558546 0.3109157,0.5020188 Q0.3109157,0.4670256 0.3111743,0.4246299 Q0.311433,0.3822342 0.313761,0.3398385 Q0.316089,0.2974428 0.3204863,0.2570659 Q0.3248836,0.2166891 0.3334196,0.1864064 Q0.3419555,0.1561238 0.3548888,0.1372812 Q0.3678221,0.1184387 0.386446,0.1184387 Z M0.9172271,0.5222073 Q0.9322297,0.5222073 0.9407656,0.5417227 Q0.9493016,0.5612382 0.9539575,0.5901749 Q0.9586136,0.6191117 0.9599069,0.653432 Q0.9612002,0.6877524 0.9612002,0.7173621 Q0.9612002,0.7483177 0.9596482,0.7833109 Q0.9580962,0.8183042 0.9531816,0.847241 Q0.9482669,0.8761776 0.9394724,0.8950202 Q0.9306777,0.9138628 0.9156751,0.9138628 Q0.9011899,0.9138628 0.8926539,0.8943473 Q0.884118,0.8748317 0.879462,0.8458951 Q0.874806,0.8169583 0.8735127,0.782638 Q0.8722193,0.7483177 0.8722193,0.7187079 Q0.8722193,0.6877524 0.8737714,0.653432 Q0.8753233,0.6191117 0.880238,0.5901749 Q0.8851526,0.5612382 0.8939473,0.5417227 Q0.9027418,0.5222073 0.9172271,0.5222073 Z M0.1055354,0.0174965 Q0.1019141,0.0713324 0.0920848,0.1063257 Q0.0822556,0.141319 0.068029,0.1615074 Q0.0538024,0.1816958 0.0362131,0.1890982 Q0.0186239,0.1965006 0,0.1965006 L0,0.2880215 L0.0951888,0.2880215 L0.0951888,0.9717362 L0.1391619,0.9717362 L0.1391619,0.0174965 Z M0.386446,0.0174965 Q0.3579927,0.0174965 0.3375582,0.0390309 Q0.3171236,0.0605653 0.3036731,0.0969044 Q0.2902225,0.1332436 0.2824625,0.1816958 Q0.2747025,0.230148 0.2705639,0.2839838 Q0.2664252,0.3378196 0.2653906,0.3943472 Q0.2643559,0.4508748 0.2643559,0.5033647 Q0.2643559,0.5558546 0.2653906,0.6123822 Q0.2664252,0.6689098 0.2705639,0.7227456 Q0.2747025,0.7765815 0.2824625,0.8243607 Q0.2902225,0.8721399 0.3036731,0.9084791 Q0.3171236,0.9448183 0.3375582,0.9656797 Q0.3579927,0.9865411 0.386446,0.9865411 Q0.4154165,0.9865411 0.4355923,0.9656797 Q0.4557682,0.9448183 0.4692188,0.9084791 Q0.4826694,0.8721399 0.4904294,0.8243607 Q0.4981894,0.7765815 0.502328,0.7227456 Q0.5064666,0.6689098 0.5075013,0.6123822 Q0.508536,0.5558546 0.508536,0.5033647 Q0.508536,0.4508748 0.5075013,0.3943472 Q0.5064666,0.3378196 0.502328,0.2839838 Q0.4981894,0.230148 0.4904294,0.1816958 Q0.4826694,0.1332436 0.4692188,0.0969044 Q0.4557682,0.0605653 0.4353337,0.0390309 Q0.4148991,0.0174965 0.386446,0.0174965 Z M0.9172271,0.448183 Q0.8934299,0.448183 0.8773927,0.4703903 Q0.8613554,0.4925976 0.8515261,0.5302826 Q0.8416969,0.5679677 0.8375582,0.6170929 Q0.8334195,0.666218 0.8334195,0.7213997 Q0.8334195,0.7765815 0.8378169,0.8250337 Q0.8422142,0.8734858 0.8520435,0.9091521 Q0.8618727,0.9448183 0.87791,0.9656797 Q0.8939473,0.9865411 0.9172271,0.9865411 Q0.9399896,0.9865411 0.9555096,0.9643338 Q0.9710295,0.9421265 0.9811174,0.9051144 Q0.9912054,0.8681023 0.9956027,0.8189772 Q1,0.7698519 1,0.7173621 Q1,0.6621803 0.99612,0.6130552 Q0.99224,0.56393 0.9826694,0.5275908 Q0.9730988,0.4912517 0.9573202,0.4697174 Q0.9415417,0.448183 0.9172271,0.448183 Z M0.9058458,0 L0.627522,1 L0.6720124,1 L0.949819,0 Z" style="fill:rgb(0,0,0);stroke:none" clip-path="url(#clip14)" />
</g>
<g transform="matrix(5.798999935388565 0 0 2.2289998531341553 45.01930345111341 11.79821174794662) ">
<clipPath id="clip15"><path d="M-7.4184004,-5.2930518 L33.7572817,-5.2930518 L33.7572817,5.1251733 L-7.4184004,5.1251733 L-7.4184004,-5.2930518 Z" /></clipPath>
<path d="M0.6616658,0.0915208 Q0.6766684,0.0915208 0.6852043,0.1110363 Q0.6937403,0.1305518 0.6983963,0.1594885 Q0.7030522,0.1884252 0.7043456,0.2227456 Q0.7056389,0.2570659 0.7056389,0.2866756 Q0.7056389,0.3176312 0.7040869,0.3526245 Q0.7025349,0.3876177 0.6976203,0.4165545 Q0.6927056,0.4454912 0.683911,0.4643337 Q0.6751164,0.4831763 0.6601138,0.4831763 Q0.6456286,0.4831763 0.6370926,0.4636608 Q0.6285566,0.4441453 0.6239007,0.4152086 Q0.6192447,0.3862719 0.6179514,0.3519515 Q0.616658,0.3176312 0.616658,0.2880215 Q0.616658,0.2570659 0.61821,0.2227456 Q0.619762,0.1884252 0.6246767,0.1594885 Q0.6295913,0.1305518 0.6383859,0.1110363 Q0.6471805,0.0915208 0.6616658,0.0915208 Z M0.6616658,0.0174965 Q0.6378686,0.0174965 0.6218313,0.0397038 Q0.6057941,0.0619111 0.5959648,0.0995962 Q0.5861355,0.1372812 0.5819969,0.1864064 Q0.5778583,0.2355316 0.5778583,0.2907133 Q0.5778583,0.345895 0.5822556,0.3943472 Q0.5866529,0.4427994 0.5964822,0.4791386 Q0.6063114,0.5154778 0.6223487,0.5363392 Q0.6383859,0.5572005 0.6616658,0.5572005 Q0.6844284,0.5572005 0.6999483,0.5343203 Q0.7154682,0.5114401 0.7255562,0.474428 Q0.7356441,0.4374159 0.7400414,0.3882907 Q0.7444387,0.3391655 0.7444387,0.2866756 Q0.7444387,0.2314939 0.7405587,0.1823687 Q0.7366787,0.1332436 0.7271081,0.0969044 Q0.7175375,0.0605653 0.701759,0.0390309 Q0.6859803,0.0174965 0.6616658,0.0174965 Z M0.9172271,0.5222073 Q0.9322297,0.5222073 0.9407656,0.5417227 Q0.9493016,0.5612382 0.9539575,0.5901749 Q0.9586136,0.6191117 0.9599069,0.653432 Q0.9612002,0.6877524 0.9612002,0.7173621 Q0.9612002,0.7483177 0.9596482,0.7833109 Q0.9580962,0.8183042 0.9531816,0.847241 Q0.9482669,0.8761776 0.9394724,0.8950202 Q0.9306777,0.9138628 0.9156751,0.9138628 Q0.9011899,0.9138628 0.8926539,0.8943473 Q0.884118,0.8748317 0.879462,0.8458951 Q0.874806,0.8169583 0.8735127,0.782638 Q0.8722193,0.7483177 0.8722193,0.7187079 Q0.8722193,0.6877524 0.8737714,0.653432 Q0.8753233,0.6191117 0.880238,0.5901749 Q0.8851526,0.5612382 0.8939473,0.5417227 Q0.9027418,0.5222073 0.9172271,0.5222073 Z M0.1055354,0.0174965 Q0.1019141,0.0713324 0.0920848,0.1063257 Q0.0822556,0.141319 0.068029,0.1615074 Q0.0538024,0.1816958 0.0362131,0.1890982 Q0.0186239,0.1965006 0,0.1965006 L0,0.2880215 L0.0951888,0.2880215 L0.0951888,0.9717362 L0.1391619,0.9717362 L0.1391619,0.0174965 Z M0.3047077,0.0336473 L0.2705639,0.5289367 L0.308329,0.5343203 Q0.3212623,0.4939434 0.3380755,0.4690444 Q0.3548888,0.4441453 0.3766166,0.4441453 Q0.3952406,0.4441453 0.4105018,0.4602961 Q0.4257631,0.4764468 0.436627,0.5053836 Q0.4474909,0.5343203 0.4534403,0.5740242 Q0.4593895,0.6137282 0.4593895,0.6608344 Q0.4593895,0.7173621 0.4531816,0.7597577 Q0.4469736,0.8021534 0.4363684,0.8304172 Q0.4257631,0.858681 0.4115365,0.8728129 Q0.3973099,0.8869449 0.38179,0.8869449 Q0.3652354,0.8869449 0.3515261,0.8741588 Q0.3378169,0.8613728 0.3277289,0.8378196 Q0.317641,0.8142665 0.3116917,0.782638 Q0.3057424,0.7510094 0.3047077,0.7146703 L0.2607346,0.7146703 Q0.2612519,0.7792733 0.2705639,0.8304172 Q0.2798758,0.8815613 0.2959131,0.9158816 Q0.3119503,0.9502019 0.3329022,0.9683715 Q0.3538541,0.9865411 0.3776513,0.9865411 Q0.4097258,0.9865411 0.4337817,0.9602961 Q0.4578375,0.9340511 0.4738748,0.8896366 Q0.4899121,0.845222 0.4979307,0.7880215 Q0.5059493,0.730821 0.5059493,0.6702557 Q0.5059493,0.5881561 0.4966374,0.5269179 Q0.4873254,0.4656796 0.4712881,0.4246299 Q0.4552509,0.3835801 0.433523,0.3633917 Q0.4117951,0.3432032 0.3874806,0.3432032 Q0.3688567,0.3432032 0.3499741,0.3600269 Q0.3310916,0.3768506 0.319193,0.4118438 L0.3181583,0.4091521 L0.3378169,0.1345894 L0.4857734,0.1345894 L0.4857734,0.0336473 Z M0.9172271,0.448183 Q0.8934299,0.448183 0.8773927,0.4703903 Q0.8613554,0.4925976 0.8515261,0.5302826 Q0.8416969,0.5679677 0.8375582,0.6170929 Q0.8334195,0.666218 0.8334195,0.7213997 Q0.8334195,0.7765815 0.8378169,0.8250337 Q0.8422142,0.8734858 0.8520435,0.9091521 Q0.8618727,0.9448183 0.87791,0.9656797 Q0.8939473,0.9865411 0.9172271,0.9865411 Q0.9399896,0.9865411 0.9555096,0.9643338 Q0.9710295,0.9421265 0.9811174,0.9051144 Q0.9912054,0.8681023 0.9956027,0.8189772 Q1,0.7698519 1,0.7173621 Q1,0.6621803 0.99612,0.6130552 Q0.99224,0.56393 0.9826694,0.5275908 Q0.9730988,0.4912517 0.9573202,0.4697174 Q0.9415417,0.448183 0.9172271,0.448183 Z M0.9058458,0 L0.627522,1 L0.6720124,1 L0.949819,0 Z" style="fill:rgb(0,0,0);stroke:none" clip-path="url(#clip15)" />
</g>
<g transform="matrix(5.798999935388565 0 0 2.2289998531341553 63.38682481863649 10.64662737933661) ">
<clipPath id="clip16"><path d="M-10.5857606,-4.7764146 L30.5899215,-4.7764146 L30.5899215,5.6418105 L-10.5857606,5.6418105 L-10.5857606,-4.7764146 Z" /></clipPath>
<path d="M0.6616658,0.0915208 Q0.6766684,0.0915208 0.6852043,0.1110363 Q0.6937403,0.1305518 0.6983963,0.1594885 Q0.7030522,0.1884252 0.7043456,0.2227456 Q0.7056389,0.2570659 0.7056389,0.2866756 Q0.7056389,0.3176312 0.7040869,0.3526245 Q0.7025349,0.3876177 0.6976203,0.4165545 Q0.6927056,0.4454912 0.683911,0.4643337 Q0.6751164,0.4831763 0.6601138,0.4831763 Q0.6456286,0.4831763 0.6370926,0.4636608 Q0.6285566,0.4441453 0.6239007,0.4152086 Q0.6192447,0.3862719 0.6179514,0.3519515 Q0.616658,0.3176312 0.616658,0.2880215 Q0.616658,0.2570659 0.61821,0.2227456 Q0.619762,0.1884252 0.6246767,0.1594885 Q0.6295913,0.1305518 0.6383859,0.1110363 Q0.6471805,0.0915208 0.6616658,0.0915208 Z M0.6616658,0.0174965 Q0.6378686,0.0174965 0.6218313,0.0397038 Q0.6057941,0.0619111 0.5959648,0.0995962 Q0.5861355,0.1372812 0.5819969,0.1864064 Q0.5778583,0.2355316 0.5778583,0.2907133 Q0.5778583,0.345895 0.5822556,0.3943472 Q0.5866529,0.4427994 0.5964822,0.4791386 Q0.6063114,0.5154778 0.6223487,0.5363392 Q0.6383859,0.5572005 0.6616658,0.5572005 Q0.6844284,0.5572005 0.6999483,0.5343203 Q0.7154682,0.5114401 0.7255562,0.474428 Q0.7356441,0.4374159 0.7400414,0.3882907 Q0.7444387,0.3391655 0.7444387,0.2866756 Q0.7444387,0.2314939 0.7405587,0.1823687 Q0.7366787,0.1332436 0.7271081,0.0969044 Q0.7175375,0.0605653 0.701759,0.0390309 Q0.6859803,0.0174965 0.6616658,0.0174965 Z M0.9172271,0.5222073 Q0.9322297,0.5222073 0.9407656,0.5417227 Q0.9493016,0.5612382 0.9539575,0.5901749 Q0.9586136,0.6191117 0.9599069,0.653432 Q0.9612002,0.6877524 0.9612002,0.7173621 Q0.9612002,0.7483177 0.9596482,0.7833109 Q0.9580962,0.8183042 0.9531816,0.847241 Q0.9482669,0.8761776 0.9394724,0.8950202 Q0.9306777,0.9138628 0.9156751,0.9138628 Q0.9011899,0.9138628 0.8926539,0.8943473 Q0.884118,0.8748317 0.879462,0.8458951 Q0.874806,0.8169583 0.8735127,0.782638 Q0.8722193,0.7483177 0.8722193,0.7187079 Q0.8722193,0.6877524 0.8737714,0.653432 Q0.8753233,0.6191117 0.880238,0.5901749 Q0.8851526,0.5612382 0.8939473,0.5417227 Q0.9027418,0.5222073 0.9172271,0.5222073 Z M0.1055354,0.0174965 Q0.1019141,0.0713324 0.0920848,0.1063257 Q0.0822556,0.141319 0.068029,0.1615074 Q0.0538024,0.1816958 0.0362131,0.1890982 Q0.0186239,0.1965006 0,0.1965006 L0,0.2880215 L0.0951888,0.2880215 L0.0951888,0.9717362 L0.1391619,0.9717362 L0.1391619,0.0174965 Z M0.2684946,0.0336473 L0.2684946,0.141319 L0.4609415,0.141319 Q0.431971,0.2207267 0.4068805,0.3149394 Q0.38179,0.4091521 0.3626487,0.5148048 Q0.3435075,0.6204576 0.3313502,0.7355316 Q0.319193,0.8506057 0.316089,0.9717362 L0.3652354,0.9717362 Q0.3678221,0.8600269 0.3797207,0.7415882 Q0.3916193,0.6231494 0.4105018,0.5114401 Q0.4293844,0.3997308 0.4536989,0.3014805 Q0.4780135,0.2032301 0.5059493,0.1318977 L0.5059493,0.0336473 Z M0.9172271,0.448183 Q0.8934299,0.448183 0.8773927,0.4703903 Q0.8613554,0.4925976 0.8515261,0.5302826 Q0.8416969,0.5679677 0.8375582,0.6170929 Q0.8334195,0.666218 0.8334195,0.7213997 Q0.8334195,0.7765815 0.8378169,0.8250337 Q0.8422142,0.8734858 0.8520435,0.9091521 Q0.8618727,0.9448183 0.87791,0.9656797 Q0.8939473,0.9865411 0.9172271,0.9865411 Q0.9399896,0.9865411 0.9555096,0.9643338 Q0.9710295,0.9421265 0.9811174,0.9051144 Q0.9912054,0.8681023 0.9956027,0.8189772 Q1,0.7698519 1,0.7173621 Q1,0.6621803 0.99612,0.6130552 Q0.99224,0.56393 0.9826694,0.5275908 Q0.9730988,0.4912517 0.9573202,0.4697174 Q0.9415417,0.448183 0.9172271,0.448183 Z M0.9058458,0 L0.627522,1 L0.6720124,1 L0.949819,0 Z" style="fill:rgb(0,0,0);stroke:none" clip-path="url(#clip16)" />
</g>
<g transform="matrix(5.798999935388565 0 0 2.2289998531341553 81.75434618615955 10.93626829928078) ">
<clipPath id="clip17"><path d="M-13.7531207,-4.9063567 L27.4225614,-4.9063567 L27.4225614,5.5118684 L-13.7531207,5.5118684 L-13.7531207,-4.9063567 Z" /></clipPath>
<path d="M0.6616658,0.0915208 Q0.6766684,0.0915208 0.6852043,0.1110363 Q0.6937403,0.1305518 0.6983963,0.1594885 Q0.7030522,0.1884252 0.7043456,0.2227456 Q0.7056389,0.2570659 0.7056389,0.2866756 Q0.7056389,0.3176312 0.7040869,0.3526245 Q0.7025349,0.3876177 0.6976203,0.4165545 Q0.6927056,0.4454912 0.683911,0.4643337 Q0.6751164,0.4831763 0.6601138,0.4831763 Q0.6456286,0.4831763 0.6370926,0.4636608 Q0.6285566,0.4441453 0.6239007,0.4152086 Q0.6192447,0.3862719 0.6179514,0.3519515 Q0.616658,0.3176312 0.616658,0.2880215 Q0.616658,0.2570659 0.61821,0.2227456 Q0.619762,0.1884252 0.6246767,0.1594885 Q0.6295913,0.1305518 0.6383859,0.1110363 Q0.6471805,0.0915208 0.6616658,0.0915208 Z M0.6616658,0.0174965 Q0.6378686,0.0174965 0.6218313,0.0397038 Q0.6057941,0.0619111 0.5959648,0.0995962 Q0.5861355,0.1372812 0.5819969,0.1864064 Q0.5778583,0.2355316 0.5778583,0.2907133 Q0.5778583,0.345895 0.5822556,0.3943472 Q0.5866529,0.4427994 0.5964822,0.4791386 Q0.6063114,0.5154778 0.6223487,0.5363392 Q0.6383859,0.5572005 0.6616658,0.5572005 Q0.6844284,0.5572005 0.6999483,0.5343203 Q0.7154682,0.5114401 0.7255562,0.474428 Q0.7356441,0.4374159 0.7400414,0.3882907 Q0.7444387,0.3391655 0.7444387,0.2866756 Q0.7444387,0.2314939 0.7405587,0.1823687 Q0.7366787,0.1332436 0.7271081,0.0969044 Q0.7175375,0.0605653 0.701759,0.0390309 Q0.6859803,0.0174965 0.6616658,0.0174965 Z M0.3905846,0.4589502 Q0.4092085,0.4589502 0.4231764,0.4764468 Q0.4371443,0.4939434 0.4464563,0.5228802 Q0.4557682,0.5518169 0.4601655,0.5915208 Q0.4645628,0.6312247 0.4645628,0.6756393 Q0.4645628,0.7173621 0.4596482,0.7557201 Q0.4547336,0.7940781 0.4454216,0.8236878 Q0.4361097,0.8532975 0.4224004,0.8701211 Q0.4086912,0.8869449 0.3905846,0.8869449 Q0.372478,0.8869449 0.3582514,0.8701211 Q0.3440248,0.8532975 0.3344542,0.8250337 Q0.3248836,0.7967699 0.3197103,0.7577389 Q0.314537,0.7187079 0.314537,0.6742934 Q0.314537,0.6298788 0.3194516,0.5901749 Q0.3243663,0.550471 0.3341955,0.5215343 Q0.3440248,0.4925976 0.3579927,0.4757739 Q0.3719607,0.4589502 0.3905846,0.4589502 Z M0.9172271,0.5222073 Q0.9322297,0.5222073 0.9407656,0.5417227 Q0.9493016,0.5612382 0.9539575,0.5901749 Q0.9586136,0.6191117 0.9599069,0.653432 Q0.9612002,0.6877524 0.9612002,0.7173621 Q0.9612002,0.7483177 0.9596482,0.7833109 Q0.9580962,0.8183042 0.9531816,0.847241 Q0.9482669,0.8761776 0.9394724,0.8950202 Q0.9306777,0.9138628 0.9156751,0.9138628 Q0.9011899,0.9138628 0.8926539,0.8943473 Q0.884118,0.8748317 0.879462,0.8458951 Q0.874806,0.8169583 0.8735127,0.782638 Q0.8722193,0.7483177 0.8722193,0.7187079 Q0.8722193,0.6877524 0.8737714,0.653432 Q0.8753233,0.6191117 0.880238,0.5901749 Q0.8851526,0.5612382 0.8939473,0.5417227 Q0.9027418,0.5222073 0.9172271,0.5222073 Z M0.1055354,0.0174965 Q0.1019141,0.0713324 0.0920848,0.1063257 Q0.0822556,0.141319 0.068029,0.1615074 Q0.0538024,0.1816958 0.0362131,0.1890982 Q0.0186239,0.1965006 0,0.1965006 L0,0.2880215 L0.0951888,0.2880215 L0.0951888,0.9717362 L0.1391619,0.9717362 L0.1391619,0.0174965 Z M0.3973099,0.0174965 Q0.3579927,0.0174965 0.3321262,0.0605653 Q0.3062597,0.1036339 0.2907398,0.1749663 Q0.2752199,0.2462988 0.2687532,0.3384926 Q0.2622866,0.4306864 0.2622866,0.5289367 Q0.2622866,0.6043069 0.2666839,0.6850606 Q0.2710812,0.7658142 0.2845318,0.833109 Q0.2979824,0.9004038 0.3228143,0.9434724 Q0.3476461,0.9865411 0.3885153,0.9865411 Q0.4231764,0.9865411 0.446715,0.9562585 Q0.4702535,0.9259758 0.4844801,0.8795423 Q0.4987067,0.833109 0.5049146,0.7765815 Q0.5111226,0.7200539 0.5111226,0.6675639 Q0.5111226,0.601615 0.5033627,0.5450875 Q0.4956027,0.4885599 0.4813761,0.4468371 Q0.4671495,0.4051144 0.4461976,0.3815612 Q0.4252457,0.358008 0.3988619,0.358008 Q0.3688567,0.358008 0.3458355,0.3876177 Q0.3228143,0.4172275 0.3072944,0.4831763 L0.3062597,0.4804845 Q0.306777,0.4253028 0.3103983,0.3620457 Q0.3140197,0.2987887 0.3235903,0.2442799 Q0.3331609,0.1897711 0.3502328,0.1541049 Q0.3673047,0.1184387 0.3952406,0.1184387 Q0.4216244,0.1184387 0.4376617,0.1574697 Q0.4536989,0.1965006 0.4568029,0.2611036 L0.500776,0.2611036 Q0.4966374,0.1426648 0.4697361,0.0800807 Q0.442835,0.0174965 0.3973099,0.0174965 Z M0.9172271,0.448183 Q0.8934299,0.448183 0.8773927,0.4703903 Q0.8613554,0.4925976 0.8515261,0.5302826 Q0.8416969,0.5679677 0.8375582,0.6170929 Q0.8334195,0.666218 0.8334195,0.7213997 Q0.8334195,0.7765815 0.8378169,0.8250337 Q0.8422142,0.8734858 0.8520435,0.9091521 Q0.8618727,0.9448183 0.87791,0.9656797 Q0.8939473,0.9865411 0.9172271,0.9865411 Q0.9399896,0.9865411 0.9555096,0.9643338 Q0.9710295,0.9421265 0.9811174,0.9051144 Q0.9912054,0.8681023 0.9956027,0.8189772 Q1,0.7698519 1,0.7173621 Q1,0.6621803 0.99612,0.6130552 Q0.99224,0.56393 0.9826694,0.5275908 Q0.9730988,0.4912517 0.9573202,0.4697174 Q0.9415417,0.448183 0.9172271,0.448183 Z M0.9058458,0 L0.627522,1 L0.6720124,1 L0.949819,0 Z" style="fill:rgb(0,0,0);stroke:none" clip-path="url(#clip17)" />
</g>
<g transform="matrix(5.798999935388565 0 0 2.2289998531341553 100.12186755368265 12.48567271933485) ">
<clipPath id="clip18"><path d="M-16.9204809,-5.6014686 L24.2552012,-5.6014686 L24.2552012,4.8167565 L-16.9204809,4.8167565 L-16.9204809,-5.6014686 Z" /></clipPath>
<path d="M0.6616658,0.0915208 Q0.6766684,0.0915208 0.6852043,0.1110363 Q0.6937403,0.1305518 0.6983963,0.1594885 Q0.7030522,0.1884252 0.7043456,0.2227456 Q0.7056389,0.2570659 0.7056389,0.2866756 Q0.7056389,0.3176312 0.7040869,0.3526245 Q0.7025349,0.3876177 0.6976203,0.4165545 Q0.6927056,0.4454912 0.683911,0.4643337 Q0.6751164,0.4831763 0.6601138,0.4831763 Q0.6456286,0.4831763 0.6370926,0.4636608 Q0.6285566,0.4441453 0.6239007,0.4152086 Q0.6192447,0.3862719 0.6179514,0.3519515 Q0.616658,0.3176312 0.616658,0.2880215 Q0.616658,0.2570659 0.61821,0.2227456 Q0.619762,0.1884252 0.6246767,0.1594885 Q0.6295913,0.1305518 0.6383859,0.1110363 Q0.6471805,0.0915208 0.6616658,0.0915208 Z M0.6616658,0.0174965 Q0.6378686,0.0174965 0.6218313,0.0397038 Q0.6057941,0.0619111 0.5959648,0.0995962 Q0.5861355,0.1372812 0.5819969,0.1864064 Q0.5778583,0.2355316 0.5778583,0.2907133 Q0.5778583,0.345895 0.5822556,0.3943472 Q0.5866529,0.4427994 0.5964822,0.4791386 Q0.6063114,0.5154778 0.6223487,0.5363392 Q0.6383859,0.5572005 0.6616658,0.5572005 Q0.6844284,0.5572005 0.6999483,0.5343203 Q0.7154682,0.5114401 0.7255562,0.474428 Q0.7356441,0.4374159 0.7400414,0.3882907 Q0.7444387,0.3391655 0.7444387,0.2866756 Q0.7444387,0.2314939 0.7405587,0.1823687 Q0.7366787,0.1332436 0.7271081,0.0969044 Q0.7175375,0.0605653 0.701759,0.0390309 Q0.6859803,0.0174965 0.6616658,0.0174965 Z M0.9172271,0.5222073 Q0.9322297,0.5222073 0.9407656,0.5417227 Q0.9493016,0.5612382 0.9539575,0.5901749 Q0.9586136,0.6191117 0.9599069,0.653432 Q0.9612002,0.6877524 0.9612002,0.7173621 Q0.9612002,0.7483177 0.9596482,0.7833109 Q0.9580962,0.8183042 0.9531816,0.847241 Q0.9482669,0.8761776 0.9394724,0.8950202 Q0.9306777,0.9138628 0.9156751,0.9138628 Q0.9011899,0.9138628 0.8926539,0.8943473 Q0.884118,0.8748317 0.879462,0.8458951 Q0.874806,0.8169583 0.8735127,0.782638 Q0.8722193,0.7483177 0.8722193,0.7187079 Q0.8722193,0.6877524 0.8737714,0.653432 Q0.8753233,0.6191117 0.880238,0.5901749 Q0.8851526,0.5612382 0.8939473,0.5417227 Q0.9027418,0.5222073 0.9172271,0.5222073 Z M0.1055354,0.0174965 Q0.1019141,0.0713324 0.0920848,0.1063257 Q0.0822556,0.141319 0.068029,0.1615074 Q0.0538024,0.1816958 0.0362131,0.1890982 Q0.0186239,0.1965006 0,0.1965006 L0,0.2880215 L0.0951888,0.2880215 L0.0951888,0.9717362 L0.1391619,0.9717362 L0.1391619,0.0174965 Z M0.3792033,0.0174965 Q0.3517848,0.0174965 0.3308329,0.0403768 Q0.309881,0.063257 0.2959131,0.1036339 Q0.2819452,0.1440107 0.2744439,0.2005383 Q0.2669426,0.2570659 0.2659079,0.3257065 L0.309881,0.3257065 Q0.309881,0.2839838 0.3140197,0.2462988 Q0.3181583,0.2086137 0.3266942,0.1803499 Q0.3352302,0.1520861 0.3484222,0.1352624 Q0.3616141,0.1184387 0.3792033,0.1184387 Q0.4071392,0.1184387 0.4257631,0.1567968 Q0.444387,0.1951548 0.444387,0.2718708 Q0.444387,0.3095558 0.4386963,0.3391655 Q0.4330057,0.3687752 0.4234351,0.3882907 Q0.4138645,0.4078062 0.4011899,0.4179004 Q0.3885153,0.4279946 0.3745474,0.4279946 L0.3600621,0.4279946 Q0.3579927,0.4279946 0.3554061,0.4266487 L0.3554061,0.5235531 Q0.3678221,0.5195155 0.38179,0.5195155 Q0.3983446,0.5195155 0.4125712,0.5309555 Q0.4267977,0.5423957 0.4371443,0.5659488 Q0.4474909,0.589502 0.4536989,0.6238223 Q0.4599069,0.6581427 0.4599069,0.7025572 Q0.4599069,0.7456259 0.4534403,0.7799462 Q0.4469736,0.8142665 0.4361097,0.8378196 Q0.4252457,0.8613728 0.4107605,0.8741588 Q0.3962752,0.8869449 0.380238,0.8869449 Q0.3424728,0.8869449 0.3228143,0.8283984 Q0.3031557,0.7698519 0.3021211,0.6769852 L0.258148,0.6769852 Q0.2576306,0.7510094 0.2661666,0.8088829 Q0.2747025,0.8667564 0.2907398,0.9064603 Q0.306777,0.9461642 0.3295396,0.9663526 Q0.3523021,0.9865411 0.380238,0.9865411 Q0.4061045,0.9865411 0.4291257,0.9683715 Q0.4521469,0.9502019 0.4692188,0.9138628 Q0.4862908,0.8775235 0.4963787,0.8230148 Q0.5064666,0.768506 0.5064666,0.6971736 Q0.5064666,0.6110364 0.4901707,0.5477793 Q0.4738748,0.4845222 0.4402483,0.4656796 L0.4402483,0.4629879 Q0.4619762,0.4374159 0.4764615,0.3876177 Q0.4909467,0.3378196 0.4909467,0.2732166 Q0.4909467,0.2072678 0.4824108,0.1588156 Q0.4738748,0.1103634 0.4588722,0.0794078 Q0.4438696,0.0484521 0.4234351,0.0329744 Q0.4030005,0.0174965 0.3792033,0.0174965 Z M0.9172271,0.448183 Q0.8934299,0.448183 0.8773927,0.4703903 Q0.8613554,0.4925976 0.8515261,0.5302826 Q0.8416969,0.5679677 0.8375582,0.6170929 Q0.8334195,0.666218 0.8334195,0.7213997 Q0.8334195,0.7765815 0.8378169,0.8250337 Q0.8422142,0.8734858 0.8520435,0.9091521 Q0.8618727,0.9448183 0.87791,0.9656797 Q0.8939473,0.9865411 0.9172271,0.9865411 Q0.9399896,0.9865411 0.9555096,0.9643338 Q0.9710295,0.9421265 0.9811174,0.9051144 Q0.9912054,0.8681023 0.9956027,0.8189772 Q1,0.7698519 1,0.7173621 Q1,0.6621803 0.99612,0.6130552 Q0.99224,0.56393 0.9826694,0.5275908 Q0.9730988,0.4912517 0.9573202,0.4697174 Q0.9415417,0.448183 0.9172271,0.448183 Z M0.9058458,0 L0.627522,1 L0.6720124,1 L0.949819,0 Z" style="fill:rgb(0,0,0);stroke:none" clip-path="url(#clip18)" />
</g>
<g transform="matrix(5.798999935388565 0 0 2.2289998531341553 118.48938892120572 14.612614148582818) ">
<clipPath id="clip19"><path d="M-20.087841,-6.555682 L21.087841,-6.555682 L21.087841,3.8625431 L-20.087841,3.8625431 L-20.087841,-6.555682 Z" /></clipPath>
<path d="M0.6616658,0.0915208 Q0.6766684,0.0915208 0.6852043,0.1110363 Q0.6937403,0.1305518 0.6983963,0.1594885 Q0.7030522,0.1884252 0.7043456,0.2227456 Q0.7056389,0.2570659 0.7056389,0.2866756 Q0.7056389,0.3176312 0.7040869,0.3526245 Q0.7025349,0.3876177 0.6976203,0.4165545 Q0.6927056,0.4454912 0.683911,0.4643337 Q0.6751164,0.4831763 0.6601138,0.4831763 Q0.6456286,0.4831763 0.6370926,0.4636608 Q0.6285566,0.4441453 0.6239007,0.4152086 Q0.6192447,0.3862719 0.6179514,0.3519515 Q0.616658,0.3176312 0.616658,0.2880215 Q0.616658,0.2570659 0.61821,0.2227456 Q0.619762,0.1884252 0.6246767,0.1594885 Q0.6295913,0.1305518 0.6383859,0.1110363 Q0.6471805,0.0915208 0.6616658,0.0915208 Z M0.6616658,0.0174965 Q0.6378686,0.0174965 0.6218313,0.0397038 Q0.6057941,0.0619111 0.5959648,0.0995962 Q0.5861355,0.1372812 0.5819969,0.1864064 Q0.5778583,0.2355316 0.5778583,0.2907133 Q0.5778583,0.345895 0.5822556,0.3943472 Q0.5866529,0.4427994 0.5964822,0.4791386 Q0.6063114,0.5154778 0.6223487,0.5363392 Q0.6383859,0.5572005 0.6616658,0.5572005 Q0.6844284,0.5572005 0.6999483,0.5343203 Q0.7154682,0.5114401 0.7255562,0.474428 Q0.7356441,0.4374159 0.7400414,0.3882907 Q0.7444387,0.3391655 0.7444387,0.2866756 Q0.7444387,0.2314939 0.7405587,0.1823687 Q0.7366787,0.1332436 0.7271081,0.0969044 Q0.7175375,0.0605653 0.701759,0.0390309 Q0.6859803,0.0174965 0.6616658,0.0174965 Z M0.386446,0.1184387 Q0.4050698,0.1184387 0.4180031,0.1372812 Q0.4309364,0.1561238 0.4394723,0.1864064 Q0.4480083,0.2166891 0.4524056,0.2570659 Q0.4568029,0.2974428 0.4591309,0.3398385 Q0.4614589,0.3822342 0.4617175,0.4246299 Q0.4619762,0.4670256 0.4619762,0.5020188 Q0.4619762,0.5558546 0.4606829,0.6224764 Q0.4593895,0.6890982 0.4524056,0.7476447 Q0.4454216,0.8061911 0.4299017,0.846568 Q0.4143818,0.8869449 0.386446,0.8869449 Q0.3585101,0.8869449 0.3429902,0.846568 Q0.3274703,0.8061911 0.3204863,0.7476447 Q0.3135023,0.6890982 0.312209,0.6224764 Q0.3109157,0.5558546 0.3109157,0.5020188 Q0.3109157,0.4670256 0.3111743,0.4246299 Q0.311433,0.3822342 0.313761,0.3398385 Q0.316089,0.2974428 0.3204863,0.2570659 Q0.3248836,0.2166891 0.3334196,0.1864064 Q0.3419555,0.1561238 0.3548888,0.1372812 Q0.3678221,0.1184387 0.386446,0.1184387 Z M0.9172271,0.5222073 Q0.9322297,0.5222073 0.9407656,0.5417227 Q0.9493016,0.5612382 0.9539575,0.5901749 Q0.9586136,0.6191117 0.9599069,0.653432 Q0.9612002,0.6877524 0.9612002,0.7173621 Q0.9612002,0.7483177 0.9596482,0.7833109 Q0.9580962,0.8183042 0.9531816,0.847241 Q0.9482669,0.8761776 0.9394724,0.8950202 Q0.9306777,0.9138628 0.9156751,0.9138628 Q0.9011899,0.9138628 0.8926539,0.8943473 Q0.884118,0.8748317 0.879462,0.8458951 Q0.874806,0.8169583 0.8735127,0.782638 Q0.8722193,0.7483177 0.8722193,0.7187079 Q0.8722193,0.6877524 0.8737714,0.653432 Q0.8753233,0.6191117 0.880238,0.5901749 Q0.8851526,0.5612382 0.8939473,0.5417227 Q0.9027418,0.5222073 0.9172271,0.5222073 Z M0.1055354,0.0174965 Q0.1019141,0.0713324 0.0920848,0.1063257 Q0.0822556,0.141319 0.068029,0.1615074 Q0.0538024,0.1816958 0.0362131,0.1890982 Q0.0186239,0.1965006 0,0.1965006 L0,0.2880215 L0.0951888,0.2880215 L0.0951888,0.9717362 L0.1391619,0.9717362 L0.1391619,0.0174965 Z M0.386446,0.0174965 Q0.3579927,0.0174965 0.3375582,0.0390309 Q0.3171236,0.0605653 0.3036731,0.0969044 Q0.2902225,0.1332436 0.2824625,0.1816958 Q0.2747025,0.230148 0.2705639,0.2839838 Q0.2664252,0.3378196 0.2653906,0.3943472 Q0.2643559,0.4508748 0.2643559,0.5033647 Q0.2643559,0.5558546 0.2653906,0.6123822 Q0.2664252,0.6689098 0.2705639,0.7227456 Q0.2747025,0.7765815 0.2824625,0.8243607 Q0.2902225,0.8721399 0.3036731,0.9084791 Q0.3171236,0.9448183 0.3375582,0.9656797 Q0.3579927,0.9865411 0.386446,0.9865411 Q0.4154165,0.9865411 0.4355923,0.9656797 Q0.4557682,0.9448183 0.4692188,0.9084791 Q0.4826694,0.8721399 0.4904294,0.8243607 Q0.4981894,0.7765815 0.502328,0.7227456 Q0.5064666,0.6689098 0.5075013,0.6123822 Q0.508536,0.5558546 0.508536,0.5033647 Q0.508536,0.4508748 0.5075013,0.3943472 Q0.5064666,0.3378196 0.502328,0.2839838 Q0.4981894,0.230148 0.4904294,0.1816958 Q0.4826694,0.1332436 0.4692188,0.0969044 Q0.4557682,0.0605653 0.4353337,0.0390309 Q0.4148991,0.0174965 0.386446,0.0174965 Z M0.9172271,0.448183 Q0.8934299,0.448183 0.8773927,0.4703903 Q0.8613554,0.4925976 0.8515261,0.5302826 Q0.8416969,0.5679677 0.8375582,0.6170929 Q0.8334195,0.666218 0.8334195,0.7213997 Q0.8334195,0.7765815 0.8378169,0.8250337 Q0.8422142,0.8734858 0.8520435,0.9091521 Q0.8618727,0.9448183 0.87791,0.9656797 Q0.8939473,0.9865411 0.9172271,0.9865411 Q0.9399896,0.9865411 0.9555096,0.9643338 Q0.9710295,0.9421265 0.9811174,0.9051144 Q0.9912054,0.8681023 0.9956027,0.8189772 Q1,0.7698519 1,0.7173621 Q1,0.6621803 0.99612,0.6130552 Q0.99224,0.56393 0.9826694,0.5275908 Q0.9730988,0.4912517 0.9573202,0.4697174 Q0.9415417,0.448183 0.9172271,0.448183 Z M0.9058458,0 L0.627522,1 L0.6720124,1 L0.949819,0 Z" style="fill:rgb(0,0,0);stroke:none" clip-path="url(#clip19)" />
</g>
<g transform="matrix(4.242000192403793 0 0 2.2289998531341553 137.63541016022117 16.507493885025447) ">
<clipPath id="clip20"><path d="M-31.9743998,-7.4057851 L24.3145599,-7.4057851 L24.3145599,3.01244 L-31.9743998,3.01244 L-31.9743998,-7.4057851 Z" /></clipPath>
<path d="M0.5374823,0.0915208 Q0.5579915,0.0915208 0.5696605,0.1110363 Q0.5813295,0.1305518 0.5876944,0.1594885 Q0.5940594,0.1884252 0.5958274,0.2227456 Q0.5975954,0.2570659 0.5975954,0.2866756 Q0.5975954,0.3176312 0.5954738,0.3526245 Q0.5933522,0.3876177 0.5866336,0.4165545 Q0.5799151,0.4454912 0.5678925,0.4643337 Q0.5558698,0.4831763 0.5353607,0.4831763 Q0.5155586,0.4831763 0.5038896,0.4636608 Q0.4922206,0.4441453 0.4858557,0.4152086 Q0.4794908,0.3862719 0.4777228,0.3519515 Q0.4759547,0.3176312 0.4759547,0.2880215 Q0.4759547,0.2570659 0.4780763,0.2227456 Q0.480198,0.1884252 0.4869165,0.1594885 Q0.493635,0.1305518 0.5056577,0.1110363 Q0.5176803,0.0915208 0.5374823,0.0915208 Z M0.5374823,0.0174965 Q0.5049505,0.0174965 0.4830268,0.0397038 Q0.4611032,0.0619111 0.4476662,0.0995962 Q0.4342291,0.1372812 0.4285714,0.1864064 Q0.4229137,0.2355316 0.4229137,0.2907133 Q0.4229137,0.345895 0.428925,0.3943472 Q0.4349363,0.4427994 0.4483734,0.4791386 Q0.4618104,0.5154778 0.483734,0.5363392 Q0.5056577,0.5572005 0.5374823,0.5572005 Q0.5685997,0.5572005 0.5898161,0.5343203 Q0.6110325,0.5114401 0.6248231,0.474428 Q0.6386138,0.4374159 0.6446252,0.3882907 Q0.6506365,0.3391655 0.6506365,0.2866756 Q0.6506365,0.2314939 0.6453324,0.1823687 Q0.6400283,0.1332436 0.6269448,0.0969044 Q0.6138613,0.0605653 0.5922913,0.0390309 Q0.5707214,0.0174965 0.5374823,0.0174965 Z M0.8868458,0.5222073 Q0.907355,0.5222073 0.919024,0.5417227 Q0.930693,0.5612382 0.9370579,0.5901749 Q0.9434229,0.6191117 0.9451909,0.653432 Q0.9469589,0.6877524 0.9469589,0.7173621 Q0.9469589,0.7483177 0.9448373,0.7833109 Q0.9427157,0.8183042 0.9359971,0.847241 Q0.9292786,0.8761776 0.9172559,0.8950202 Q0.9052333,0.9138628 0.8847241,0.9138628 Q0.8649222,0.9138628 0.8532531,0.8943473 Q0.8415841,0.8748317 0.8352192,0.8458951 Q0.8288542,0.8169583 0.8270862,0.782638 Q0.8253182,0.7483177 0.8253182,0.7187079 Q0.8253182,0.6877524 0.8274399,0.653432 Q0.8295615,0.6191117 0.83628,0.5901749 Q0.8429986,0.5612382 0.8550212,0.5417227 Q0.8670438,0.5222073 0.8868458,0.5222073 Z M0,0.0336473 L0,0.141319 L0.2630834,0.141319 Q0.2234795,0.2207267 0.1891796,0.3149394 Q0.1548798,0.4091521 0.1287129,0.5148048 Q0.102546,0.6204576 0.0859264,0.7355316 Q0.0693069,0.8506057 0.0650636,0.9717362 L0.1322489,0.9717362 Q0.135785,0.8600269 0.1520509,0.7415882 Q0.1683168,0.6231494 0.1941301,0.5114401 Q0.2199434,0.3997308 0.2531824,0.3014805 Q0.2864215,0.2032301 0.324611,0.1318977 L0.324611,0.0336473 Z M0.8868458,0.448183 Q0.8543139,0.448183 0.8323903,0.4703903 Q0.8104667,0.4925976 0.7970296,0.5302826 Q0.7835926,0.5679677 0.7779349,0.6170929 Q0.7722772,0.666218 0.7722772,0.7213997 Q0.7722772,0.7765815 0.7782885,0.8250337 Q0.7842998,0.8734858 0.7977369,0.9091521 Q0.811174,0.9448183 0.8330976,0.9656797 Q0.8550212,0.9865411 0.8868458,0.9865411 Q0.9179632,0.9865411 0.9391795,0.9643338 Q0.960396,0.9421265 0.9741866,0.9051144 Q0.9879773,0.8681023 0.9939886,0.8189772 Q1,0.7698519 1,0.7173621 Q1,0.6621803 0.9946959,0.6130552 Q0.9893918,0.56393 0.9763083,0.5275908 Q0.9632249,0.4912517 0.9416548,0.4697174 Q0.9200848,0.448183 0.8868458,0.448183 Z M0.8712871,0 L0.4908062,1 L0.5516266,1 L0.9314002,0 Z" style="fill:rgb(0,0,0);stroke:none" clip-path="url(#clip20)" />
</g>
<g transform="matrix(4.308000199496746 0 0 2.2289998531341553 155.96993152419776 17.85100897980194) ">
<clipPath id="clip21"><path d="M-35.7404653,-8.0085286 L19.6861287,-8.0085286 L19.6861287,2.4096965 L-35.7404653,2.4096965 L-35.7404653,-8.0085286 Z" /></clipPath>
<path d="M0.5445682,0.0915208 Q0.5647632,0.0915208 0.5762534,0.1110363 Q0.5877437,0.1305518 0.5940111,0.1594885 Q0.6002785,0.1884252 0.6020195,0.2227456 Q0.6037604,0.2570659 0.6037604,0.2866756 Q0.6037604,0.3176312 0.6016713,0.3526245 Q0.5995822,0.3876177 0.5929665,0.4165545 Q0.5863509,0.4454912 0.5745125,0.4643337 Q0.562674,0.4831763 0.5424791,0.4831763 Q0.5229805,0.4831763 0.5114902,0.4636608 Q0.5,0.4441453 0.4937326,0.4152086 Q0.4874652,0.3862719 0.4857242,0.3519515 Q0.4839832,0.3176312 0.4839832,0.2880215 Q0.4839832,0.2570659 0.4860724,0.2227456 Q0.4881615,0.1884252 0.4947771,0.1594885 Q0.5013927,0.1305518 0.5132312,0.1110363 Q0.5250696,0.0915208 0.5445682,0.0915208 Z M0.5445682,0.0174965 Q0.5125348,0.0174965 0.490947,0.0397038 Q0.4693593,0.0619111 0.4561281,0.0995962 Q0.4428969,0.1372812 0.4373259,0.1864064 Q0.4317549,0.2355316 0.4317549,0.2907133 Q0.4317549,0.345895 0.4376741,0.3943472 Q0.4435933,0.4427994 0.4568245,0.4791386 Q0.4700557,0.5154778 0.4916434,0.5363392 Q0.5132312,0.5572005 0.5445682,0.5572005 Q0.5752089,0.5572005 0.5961002,0.5343203 Q0.6169916,0.5114401 0.630571,0.474428 Q0.6441504,0.4374159 0.6500696,0.3882907 Q0.6559888,0.3391655 0.6559888,0.2866756 Q0.6559888,0.2314939 0.650766,0.1823687 Q0.6455431,0.1332436 0.6326601,0.0969044 Q0.6197771,0.0605653 0.5985376,0.0390309 Q0.577298,0.0174965 0.5445682,0.0174965 Z M0.2165738,0.1803499 L0.2165738,0.6473755 L0.0508357,0.6473755 L0.2151811,0.1803499 Z M0.8885793,0.5222073 Q0.9087743,0.5222073 0.9202646,0.5417227 Q0.9317548,0.5612382 0.9380222,0.5901749 Q0.9442896,0.6191117 0.9460306,0.653432 Q0.9477715,0.6877524 0.9477715,0.7173621 Q0.9477715,0.7483177 0.9456824,0.7833109 Q0.9435933,0.8183042 0.9369777,0.847241 Q0.9303621,0.8761776 0.9185236,0.8950202 Q0.9066852,0.9138628 0.8864902,0.9138628 Q0.8669916,0.9138628 0.8555014,0.8943473 Q0.8440111,0.8748317 0.8377437,0.8458951 Q0.8314763,0.8169583 0.8297353,0.782638 Q0.8279944,0.7483177 0.8279944,0.7187079 Q0.8279944,0.6877524 0.8300835,0.653432 Q0.8321726,0.6191117 0.8387883,0.5901749 Q0.8454039,0.5612382 0.8572423,0.5417227 Q0.8690808,0.5222073 0.8885793,0.5222073 Z M0.2249303,0.0174965 L0,0.6379543 L0,0.7483177 L0.2165738,0.7483177 L0.2165738,0.9717362 L0.2722841,0.9717362 L0.2722841,0.7483177 L0.3391365,0.7483177 L0.3391365,0.6473755 L0.2722841,0.6473755 L0.2722841,0.0174965 Z M0.8885793,0.448183 Q0.8565459,0.448183 0.8349582,0.4703903 Q0.8133704,0.4925976 0.8001392,0.5302826 Q0.786908,0.5679677 0.781337,0.6170929 Q0.775766,0.666218 0.775766,0.7213997 Q0.775766,0.7765815 0.7816852,0.8250337 Q0.7876044,0.8734858 0.8008356,0.9091521 Q0.8140668,0.9448183 0.8356546,0.9656797 Q0.8572423,0.9865411 0.8885793,0.9865411 Q0.91922,0.9865411 0.9401113,0.9643338 Q0.9610027,0.9421265 0.9745821,0.9051144 Q0.9881615,0.8681023 0.9940807,0.8189772 Q1,0.7698519 1,0.7173621 Q1,0.6621803 0.9947772,0.6130552 Q0.9895543,0.56393 0.9766713,0.5275908 Q0.9637883,0.4912517 0.9425487,0.4697174 Q0.9213091,0.448183 0.8885793,0.448183 Z M0.873259,0 L0.4986072,1 L0.5584958,1 L0.9324512,0 Z" style="fill:rgb(0,0,0);stroke:none" clip-path="url(#clip21)" />
</g>
<g transform="matrix(4.302171624023088 0 0 2.2289998531341553 174.34036717945767 18.767042000023284) ">
<clipPath id="clip22"><path d="M-40.0589242,-8.41949 L15.4427616,-8.41949 L15.4427616,1.9987351 L-40.0589242,1.9987351 L-40.0589242,-8.41949 Z" /></clipPath>
<path d="M0.5439512,0.0915208 Q0.5641735,0.0915208 0.5756794,0.1110363 Q0.5871852,0.1305518 0.5934611,0.1594885 Q0.599737,0.1884252 0.6014803,0.2227456 Q0.6032236,0.2570659 0.6032236,0.2866756 Q0.6032236,0.3176312 0.6011316,0.3526245 Q0.5990397,0.3876177 0.5924151,0.4165545 Q0.5857905,0.4454912 0.5739361,0.4643337 Q0.5620816,0.4831763 0.5418592,0.4831763 Q0.5223342,0.4831763 0.5108284,0.4636608 Q0.4993226,0.4441453 0.4930467,0.4152086 Q0.4867708,0.3862719 0.4850275,0.3519515 Q0.4832841,0.3176312 0.4832841,0.2880215 Q0.4832841,0.2570659 0.4853761,0.2227456 Q0.4874681,0.1884252 0.4940926,0.1594885 Q0.5007172,0.1305518 0.5125717,0.1110363 Q0.5244262,0.0915208 0.5439512,0.0915208 Z M0.5439512,0.0174965 Q0.5118744,0.0174965 0.4902574,0.0397038 Q0.4686404,0.0619111 0.4553913,0.0995962 Q0.4421421,0.1372812 0.4365636,0.1864064 Q0.430985,0.2355316 0.430985,0.2907133 Q0.430985,0.345895 0.4369122,0.3943472 Q0.4428395,0.4427994 0.4560886,0.4791386 Q0.4693377,0.5154778 0.4909547,0.5363392 Q0.5125717,0.5572005 0.5439512,0.5572005 Q0.5746334,0.5572005 0.595553,0.5343203 Q0.6164727,0.5114401 0.6300705,0.474428 Q0.6436683,0.4374159 0.6495955,0.3882907 Q0.6555228,0.3391655 0.6555228,0.2866756 Q0.6555228,0.2314939 0.6502929,0.1823687 Q0.6450629,0.1332436 0.6321625,0.0969044 Q0.619262,0.0605653 0.5979937,0.0390309 Q0.5767254,0.0174965 0.5439512,0.0174965 Z M0.8884284,0.5222073 Q0.9086508,0.5222073 0.9201566,0.5417227 Q0.9316624,0.5612382 0.9379383,0.5901749 Q0.9442142,0.6191117 0.9459575,0.653432 Q0.9477007,0.6877524 0.9477007,0.7173621 Q0.9477007,0.7483177 0.9456088,0.7833109 Q0.9435169,0.8183042 0.9368923,0.847241 Q0.9302677,0.8761776 0.9184132,0.8950202 Q0.9065588,0.9138628 0.8863364,0.9138628 Q0.8668114,0.9138628 0.8553056,0.8943473 Q0.8437998,0.8748317 0.8375239,0.8458951 Q0.8312479,0.8169583 0.8295047,0.782638 Q0.8277614,0.7483177 0.8277614,0.7187079 Q0.8277614,0.6877524 0.8298533,0.653432 Q0.8319453,0.6191117 0.8385699,0.5901749 Q0.8451944,0.5612382 0.8570489,0.5417227 Q0.8689034,0.5222073 0.8884284,0.5222073 Z M0.1632133,0.0174965 Q0.1262552,0.0174965 0.0980136,0.0403768 Q0.0697721,0.063257 0.0509444,0.1036339 Q0.0321167,0.1440107 0.0220055,0.2005383 Q0.0118943,0.2570659 0.0104997,0.3257065 L0.0697721,0.3257065 Q0.0697721,0.2839838 0.0753507,0.2462988 Q0.0809292,0.2086137 0.092435,0.1803499 Q0.1039409,0.1520861 0.1217226,0.1352624 Q0.1395043,0.1184387 0.1632133,0.1184387 Q0.2008687,0.1184387 0.2259723,0.1567968 Q0.2510758,0.1951548 0.2510758,0.2718708 Q0.2510758,0.3095558 0.2434053,0.3391655 Q0.2357348,0.3687752 0.2228343,0.3882907 Q0.2099338,0.4078062 0.1928494,0.4179004 Q0.1757651,0.4279946 0.1569373,0.4279946 L0.1374123,0.4279946 Q0.134623,0.4279946 0.1311364,0.4266487 L0.1311364,0.5235531 Q0.1478722,0.5195155 0.1666999,0.5195155 Q0.1890142,0.5195155 0.2081905,0.5309555 Q0.2273669,0.5423957 0.2413133,0.5659488 Q0.2552598,0.589502 0.2636277,0.6238223 Q0.2719955,0.6581427 0.2719955,0.7025572 Q0.2719955,0.7456259 0.263279,0.7799462 Q0.2545625,0.8142665 0.2399187,0.8378196 Q0.2252749,0.8613728 0.2057499,0.8741588 Q0.1862249,0.8869449 0.1646079,0.8869449 Q0.1137034,0.8869449 0.0872051,0.8283984 Q0.0607069,0.7698519 0.0593122,0.6769852 L0.0000398,0.6769852 Q-0.0006575,0.7510094 0.0108483,0.8088829 Q0.0223542,0.8667564 0.0439712,0.9064603 Q0.0655881,0.9461642 0.0962703,0.9663526 Q0.1269525,0.9865411 0.1646079,0.9865411 Q0.199474,0.9865411 0.2305049,0.9683715 Q0.2615357,0.9502019 0.2845473,0.9138628 Q0.307559,0.8775235 0.3211568,0.8230148 Q0.3347545,0.768506 0.3347545,0.6971736 Q0.3347545,0.6110364 0.3127889,0.5477793 Q0.2908232,0.4845222 0.2454973,0.4656796 L0.2454973,0.4629879 Q0.2747848,0.4374159 0.2943098,0.3876177 Q0.3138349,0.3378196 0.3138349,0.2732166 Q0.3138349,0.2072678 0.302329,0.1588156 Q0.2908232,0.1103634 0.2706009,0.0794078 Q0.2503785,0.0484521 0.2228343,0.0329744 Q0.1952901,0.0174965 0.1632133,0.0174965 Z M0.8884284,0.448183 Q0.8563516,0.448183 0.8347346,0.4703903 Q0.8131176,0.4925976 0.7998684,0.5302826 Q0.7866193,0.5679677 0.7810408,0.6170929 Q0.7754622,0.666218 0.7754622,0.7213997 Q0.7754622,0.7765815 0.7813894,0.8250337 Q0.7873167,0.8734858 0.8005658,0.9091521 Q0.8138149,0.9448183 0.8354319,0.9656797 Q0.8570489,0.9865411 0.8884284,0.9865411 Q0.9191106,0.9865411 0.9400302,0.9643338 Q0.9609499,0.9421265 0.9745476,0.9051144 Q0.9881455,0.8681023 0.9940727,0.8189772 Q1,0.7698519 1,0.7173621 Q1,0.6621803 0.9947701,0.6130552 Q0.9895401,0.56393 0.9766397,0.5275908 Q0.9637392,0.4912517 0.9424708,0.4697174 Q0.9212025,0.448183 0.8884284,0.448183 Z M0.8730873,0 L0.4979279,1 L0.5578976,1 L0.9323597,0 Z" style="fill:rgb(0,0,0);stroke:none" clip-path="url(#clip22)" />
</g>
<g transform="matrix(4.131000190973282 0 0 2.2289998531341553 192.7934742635057 19.444034022078192) ">
<clipPath id="clip23"><path d="M-46.185782,-8.7232101 L11.6156624,-8.7232101 L11.6156624,1.695015 L-46.185782,1.695015 L-46.185782,-8.7232101 Z" /></clipPath>
<path d="M0.5250545,0.0915208 Q0.5461147,0.0915208 0.5580973,0.1110363 Q0.5700798,0.1305518 0.5766158,0.1594885 Q0.5831518,0.1884252 0.5849673,0.2227456 Q0.5867828,0.2570659 0.5867828,0.2866756 Q0.5867828,0.3176312 0.5846042,0.3526245 Q0.5824255,0.3876177 0.5755265,0.4165545 Q0.5686274,0.4454912 0.5562817,0.4643337 Q0.543936,0.4831763 0.5228758,0.4831763 Q0.5025417,0.4831763 0.4905591,0.4636608 Q0.4785766,0.4441453 0.4720406,0.4152086 Q0.4655047,0.3862719 0.4636892,0.3519515 Q0.4618736,0.3176312 0.4618736,0.2880215 Q0.4618736,0.2570659 0.4640523,0.2227456 Q0.4662309,0.1884252 0.4731299,0.1594885 Q0.480029,0.1305518 0.4923747,0.1110363 Q0.5047204,0.0915208 0.5250545,0.0915208 Z M0.5250545,0.0174965 Q0.4916485,0.0174965 0.4691358,0.0397038 Q0.4466231,0.0619111 0.432825,0.0995962 Q0.4190268,0.1372812 0.4132171,0.1864064 Q0.4074074,0.2355316 0.4074074,0.2907133 Q0.4074074,0.345895 0.4135802,0.3943472 Q0.4197531,0.4427994 0.4335512,0.4791386 Q0.4473493,0.5154778 0.469862,0.5363392 Q0.4923747,0.5572005 0.5250545,0.5572005 Q0.557008,0.5572005 0.5787944,0.5343203 Q0.6005809,0.5114401 0.6147421,0.474428 Q0.6289034,0.4374159 0.6350762,0.3882907 Q0.6412491,0.3391655 0.6412491,0.2866756 Q0.6412491,0.2314939 0.6358024,0.1823687 Q0.6303558,0.1332436 0.6169208,0.0969044 Q0.6034858,0.0605653 0.5813362,0.0390309 Q0.5591866,0.0174965 0.5250545,0.0174965 Z M0.8838053,0.5222073 Q0.9048656,0.5222073 0.9168482,0.5417227 Q0.9288308,0.5612382 0.9353667,0.5901749 Q0.9419026,0.6191117 0.9437182,0.653432 Q0.9455337,0.6877524 0.9455337,0.7173621 Q0.9455337,0.7483177 0.9433551,0.7833109 Q0.9411765,0.8183042 0.9342774,0.847241 Q0.9273783,0.8761776 0.9150326,0.8950202 Q0.902687,0.9138628 0.8816267,0.9138628 Q0.8612926,0.9138628 0.8493101,0.8943473 Q0.8373275,0.8748317 0.8307916,0.8458951 Q0.8242556,0.8169583 0.82244,0.782638 Q0.8206245,0.7483177 0.8206245,0.7187079 Q0.8206245,0.6877524 0.8228032,0.653432 Q0.8249818,0.6191117 0.8318809,0.5901749 Q0.8387799,0.5612382 0.8511256,0.5417227 Q0.8634713,0.5222073 0.8838053,0.5222073 Z M0.1481481,0.0174965 Q0.1430646,0.0713324 0.1292665,0.1063257 Q0.1154684,0.141319 0.0954975,0.1615074 Q0.0755265,0.1816958 0.0508351,0.1890982 Q0.0261438,0.1965006 0,0.1965006 L0,0.2880215 L0.1336238,0.2880215 L0.1336238,0.9717362 L0.1953522,0.9717362 L0.1953522,0.0174965 Z M0.8838053,0.448183 Q0.8503994,0.448183 0.8278867,0.4703903 Q0.805374,0.4925976 0.7915758,0.5302826 Q0.7777777,0.5679677 0.771968,0.6170929 Q0.7661582,0.666218 0.7661582,0.7213997 Q0.7661582,0.7765815 0.7723311,0.8250337 Q0.778504,0.8734858 0.792302,0.9091521 Q0.8061002,0.9448183 0.8286129,0.9656797 Q0.8511256,0.9865411 0.8838053,0.9865411 Q0.9157589,0.9865411 0.9375453,0.9643338 Q0.9593318,0.9421265 0.973493,0.9051144 Q0.9876543,0.8681023 0.9938271,0.8189772 Q1,0.7698519 1,0.7173621 Q1,0.6621803 0.9945534,0.6130552 Q0.9891067,0.56393 0.9756717,0.5275908 Q0.9622367,0.4912517 0.940087,0.4697174 Q0.9179375,0.448183 0.8838053,0.448183 Z M0.8678286,0 L0.4771241,1 L0.5395788,1 L0.9295569,0 Z" style="fill:rgb(0,0,0);stroke:none" clip-path="url(#clip23)" />
</g>
<g transform="matrix(4.320000201463699 0 0 2.2289998531341553 211.06649562578355 19.021786416384153) ">
<clipPath id="clip24"><path d="M-48.3950199,-8.5337764 L6.8776113,-8.5337764 L6.8776113,1.8844487 L-48.3950199,1.8844487 L-48.3950199,-8.5337764 Z" /></clipPath>
<path d="M0.5458333,0.0915208 Q0.5659722,0.0915208 0.5774305,0.1110363 Q0.5888888,0.1305518 0.5951388,0.1594885 Q0.6013889,0.1884252 0.603125,0.2227456 Q0.6048611,0.2570659 0.6048611,0.2866756 Q0.6048611,0.3176312 0.6027777,0.3526245 Q0.6006944,0.3876177 0.5940972,0.4165545 Q0.5874999,0.4454912 0.5756944,0.4643337 Q0.5638888,0.4831763 0.54375,0.4831763 Q0.5243055,0.4831763 0.5128472,0.4636608 Q0.5013888,0.4441453 0.4951389,0.4152086 Q0.4888889,0.3862719 0.4871528,0.3519515 Q0.4854166,0.3176312 0.4854166,0.2880215 Q0.4854166,0.2570659 0.4875,0.2227456 Q0.4895833,0.1884252 0.4961805,0.1594885 Q0.5027777,0.1305518 0.5145833,0.1110363 Q0.5263889,0.0915208 0.5458333,0.0915208 Z M0.5458333,0.0174965 Q0.5138889,0.0174965 0.4923611,0.0397038 Q0.4708333,0.0619111 0.4576389,0.0995962 Q0.4444444,0.1372812 0.4388889,0.1864064 Q0.4333333,0.2355316 0.4333333,0.2907133 Q0.4333333,0.345895 0.4392361,0.3943472 Q0.4451389,0.4427994 0.4583333,0.4791386 Q0.4715277,0.5154778 0.4930555,0.5363392 Q0.5145833,0.5572005 0.5458333,0.5572005 Q0.5763889,0.5572005 0.5972222,0.5343203 Q0.6180555,0.5114401 0.6315972,0.474428 Q0.6451389,0.4374159 0.6510416,0.3882907 Q0.6569444,0.3391655 0.6569444,0.2866756 Q0.6569444,0.2314939 0.6517361,0.1823687 Q0.6465278,0.1332436 0.6336805,0.0969044 Q0.6208333,0.0605653 0.5996527,0.0390309 Q0.5784722,0.0174965 0.5458333,0.0174965 Z M0.8888888,0.5222073 Q0.9090278,0.5222073 0.9204861,0.5417227 Q0.9319444,0.5612382 0.9381944,0.5901749 Q0.9444444,0.6191117 0.9461805,0.653432 Q0.9479166,0.6877524 0.9479166,0.7173621 Q0.9479166,0.7483177 0.9458333,0.7833109 Q0.94375,0.8183042 0.9371528,0.847241 Q0.9305555,0.8761776 0.9187499,0.8950202 Q0.9069444,0.9138628 0.8868055,0.9138628 Q0.8673611,0.9138628 0.8559027,0.8943473 Q0.8444444,0.8748317 0.8381944,0.8458951 Q0.8319444,0.8169583 0.8302083,0.782638 Q0.8284722,0.7483177 0.8284722,0.7187079 Q0.8284722,0.6877524 0.8305555,0.653432 Q0.8326388,0.6191117 0.8392361,0.5901749 Q0.8458333,0.5612382 0.8576388,0.5417227 Q0.8694444,0.5222073 0.8888888,0.5222073 Z M0.1722222,0.0174965 Q0.1333333,0.0174965 0.1027778,0.0430686 Q0.0722222,0.0686406 0.0517361,0.1137281 Q0.03125,0.1588156 0.0215278,0.2207267 Q0.0118056,0.2826379 0.0138889,0.3553163 L0.0729167,0.3553163 Q0.0722222,0.3122476 0.0774306,0.2698519 Q0.0826389,0.2274562 0.0944444,0.1938089 Q0.10625,0.1601615 0.1246528,0.1393001 Q0.1430555,0.1184387 0.16875,0.1184387 Q0.1881944,0.1184387 0.2055555,0.1305518 Q0.2229166,0.1426648 0.2357639,0.165545 Q0.2486111,0.1884252 0.25625,0.2200538 Q0.2638889,0.2516823 0.2638889,0.2907133 Q0.2638889,0.3405114 0.2559028,0.3781965 Q0.2479167,0.4158816 0.2322917,0.448183 Q0.2166667,0.4804845 0.1930556,0.512113 Q0.1694444,0.5437416 0.1381944,0.5814266 Q0.1125,0.6110364 0.0888889,0.6446837 Q0.0652778,0.6783311 0.0465278,0.7227456 Q0.0277778,0.7671601 0.015625,0.8270525 Q0.0034722,0.8869449 0,0.9717362 L0.3215278,0.9717362 L0.3215278,0.8707941 L0.06875,0.8707941 Q0.0729167,0.8263796 0.0864583,0.7920592 Q0.1,0.7577389 0.1190972,0.7281292 Q0.1381944,0.6985195 0.1611111,0.6722745 Q0.1840278,0.6460296 0.2069444,0.6191117 Q0.2298611,0.5908479 0.2513889,0.5598923 Q0.2729167,0.5289367 0.2895833,0.4905787 Q0.30625,0.4522207 0.3163194,0.4037685 Q0.3263889,0.3553163 0.3263889,0.2920592 Q0.3263889,0.2247645 0.3142361,0.1736204 Q0.3020833,0.1224764 0.28125,0.0881561 Q0.2604167,0.0538358 0.2322917,0.0356662 Q0.2041667,0.0174965 0.1722222,0.0174965 Z M0.8888888,0.448183 Q0.8569444,0.448183 0.8354166,0.4703903 Q0.8138889,0.4925976 0.8006944,0.5302826 Q0.7875,0.5679677 0.7819444,0.6170929 Q0.7763888,0.666218 0.7763888,0.7213997 Q0.7763888,0.7765815 0.7822916,0.8250337 Q0.7881944,0.8734858 0.8013888,0.9091521 Q0.8145833,0.9448183 0.8361111,0.9656797 Q0.8576388,0.9865411 0.8888888,0.9865411 Q0.9194444,0.9865411 0.9402777,0.9643338 Q0.9611111,0.9421265 0.9746527,0.9051144 Q0.9881944,0.8681023 0.9940972,0.8189772 Q1,0.7698519 1,0.7173621 Q1,0.6621803 0.9947917,0.6130552 Q0.9895833,0.56393 0.9767361,0.5275908 Q0.9638889,0.4912517 0.9427082,0.4697174 Q0.9215277,0.448183 0.8888888,0.448183 Z M0.8736111,0 L0.4999999,1 L0.5597222,1 L0.9326388,0 Z" style="fill:rgb(0,0,0);stroke:none" clip-path="url(#clip24)" />
</g>
<g transform="matrix(238.977783203125 0 0 0.20000000298023224 1.8999999985098839 23.122222220709883) ">
<path d="M0.0004184,1 L0.9995815,1 L1,1 L1,0 L0.9995815,0 L0.0004184,0 L0,0 L0,1 L0.0004184,1 Z" style="fill:rgb(192,192,192);stroke:none" />
</g>
<g transform="matrix(0 0 0 3 2 21.7222222222) ">
<path d="MNaN,0 LNaN,1 LNaN,1 LNaN,1 LNaN,1 LNaN,0 LNaN,0 LNaN,0 LNaN,0 Z" style="fill:rgb(0,0,0);stroke:none" />
</g>
<g transform="matrix(3.0989999026060104 0 0 2.174999952316284 0.4505000486969948 25.434722246041858) ">
<path d="M0.2284608,0.1103448 Q0.2633107,0.1103448 0.2875121,0.1296552 Q0.3117135,0.1489655 0.3276864,0.18 Q0.3436593,0.2110345 0.3518877,0.2524138 Q0.3601162,0.2937931 0.3644724,0.3372414 Q0.3688287,0.3806896 0.3693127,0.4241379 Q0.3697967,0.4675862 0.3697967,0.5034482 Q0.3697967,0.5586207 0.3673766,0.6268965 Q0.3649564,0.6951724 0.3518877,0.7551724 Q0.338819,0.8151724 0.3097773,0.8565517 Q0.2807357,0.8979311 0.2284608,0.8979311 Q0.1761859,0.8979311 0.1471442,0.8565517 Q0.1181026,0.8151724 0.1050339,0.7551724 Q0.0919652,0.6951724 0.089545,0.6268965 Q0.0871249,0.5586207 0.0871249,0.5034482 Q0.0871249,0.4675862 0.0876089,0.4241379 Q0.0880929,0.3806896 0.0924492,0.3372414 Q0.0968054,0.2937931 0.1050339,0.2524138 Q0.1132623,0.2110345 0.1292352,0.18 Q0.1452081,0.1489655 0.1694095,0.1296552 Q0.1936109,0.1103448 0.2284608,0.1103448 Z M0.5643756,0 L0.5643756,0.9848276 L0.6466602,0.9848276 L0.6466602,0.7144827 L0.7241045,0.6124138 L0.8954502,0.9848276 L1,0.9848276 L0.7870281,0.5310345 L0.9854792,0.2717241 L0.8751211,0.2717241 L0.6466602,0.5834483 L0.6466602,0 Z M0.2284608,0.0068965 Q0.1752178,0.0068965 0.1369797,0.0289655 Q0.0987415,0.0510345 0.0735721,0.0882758 Q0.0484027,0.1255172 0.0338819,0.1751724 Q0.0193611,0.2248276 0.0116167,0.28 Q0.0038722,0.3351724 0.0019361,0.3931035 Q0,0.4510345 0,0.5048276 Q0,0.5586207 0.0019361,0.6165517 Q0.0038722,0.6744828 0.0116167,0.7296551 Q0.0193611,0.7848276 0.0338819,0.8337931 Q0.0484027,0.8827586 0.0735721,0.92 Q0.0987415,0.9572414 0.1369797,0.9786207 Q0.1752178,1 0.2284608,1 Q0.2826718,1 0.3204259,0.9786207 Q0.35818,0.9572414 0.3833495,0.92 Q0.4085189,0.8827586 0.4230397,0.8337931 Q0.4375605,0.7848276 0.445305,0.7296551 Q0.4530494,0.6744828 0.4549855,0.6165517 Q0.4569216,0.5586207 0.4569216,0.5048276 Q0.4569216,0.4510345 0.4549855,0.3931035 Q0.4530494,0.3351724 0.445305,0.28 Q0.4375605,0.2248276 0.4230397,0.1751724 Q0.4085189,0.1255172 0.3833495,0.0882758 Q0.35818,0.0510345 0.3199419,0.0289655 Q0.2817038,0.0068965 0.2284608,0.0068965 Z" style="fill:rgb(0,0,0);stroke:none" />
</g>
<g transform="matrix(0 0 0 3 20.367521286010742 21.7222222222) ">
<path d="MNaN,0 LNaN,1 LNaN,1 LNaN,1 LNaN,1 LNaN,0 LNaN,0 LNaN,0 LNaN,0 Z" style="fill:rgb(0,0,0);stroke:none" />
</g>
<g transform="matrix(3.119999907910824 0 0 2.174999952316284 18.807521413567667 25.434722246041858) ">
<path d="M0.5673077,0 L0.5673077,0.9848276 L0.6490384,0.9848276 L0.6490384,0.7144827 L0.7259615,0.6124138 L0.8961539,0.9848276 L1,0.9848276 L0.7884616,0.5310345 L0.985577,0.2717241 L0.8759616,0.2717241 L0.6490384,0.5834483 L0.6490384,0 Z M0.0817308,0.0234482 L0.0182692,0.5310345 L0.0884615,0.5365517 Q0.1125,0.4951724 0.14375,0.4696552 Q0.175,0.4441379 0.2153846,0.4441379 Q0.25,0.4441379 0.2783654,0.4606897 Q0.3067308,0.4772414 0.3269231,0.5068965 Q0.3471154,0.5365517 0.3581731,0.5772414 Q0.3692308,0.6179311 0.3692308,0.6662069 Q0.3692308,0.724138 0.3576923,0.7675862 Q0.3461538,0.8110345 0.3264423,0.84 Q0.3067308,0.8689655 0.2802885,0.8834483 Q0.2538462,0.8979311 0.225,0.8979311 Q0.1942308,0.8979311 0.16875,0.8848276 Q0.1432692,0.8717241 0.1245192,0.8475862 Q0.1057692,0.8234482 0.0947115,0.7910345 Q0.0836538,0.7586206 0.0817308,0.7213793 L0,0.7213793 Q0.0009615,0.7875863 0.0182692,0.84 Q0.0355769,0.8924138 0.0653846,0.9275862 Q0.0951923,0.9627586 0.1341346,0.9813793 Q0.1730769,1 0.2173077,1 Q0.2769231,1 0.3216346,0.9731034 Q0.3663462,0.9462068 0.3961538,0.9006896 Q0.4259616,0.8551724 0.4408654,0.7965517 Q0.4557692,0.7379311 0.4557692,0.6758621 Q0.4557692,0.5917241 0.4384616,0.5289655 Q0.4211539,0.4662069 0.3913462,0.4241379 Q0.3615385,0.382069 0.3211539,0.3613793 Q0.2807692,0.3406896 0.2355769,0.3406896 Q0.2009615,0.3406896 0.1658654,0.357931 Q0.1307692,0.3751724 0.1086539,0.4110345 L0.1067308,0.4082759 L0.1432692,0.1268965 L0.4182692,0.1268965 L0.4182692,0.0234482 Z" style="fill:rgb(0,0,0);stroke:none" />
</g>
<g transform="matrix(0 0 0 3 38.735042572021484 21.7222222222) ">
<path d="MNaN,0 LNaN,1 LNaN,1 LNaN,1 LNaN,1 LNaN,0 LNaN,0 LNaN,0 LNaN,0 Z" style="fill:rgb(0,0,0);stroke:none" />
</g>
<g transform="matrix(4.632000118494034 0 0 2.174999952316284 36.41904267579914 25.434722246041858) ">
<path d="M0.4838083,0.1103448 Q0.5071243,0.1103448 0.523316,0.1296552 Q0.5395078,0.1489655 0.5501943,0.18 Q0.5608808,0.2110345 0.566386,0.2524138 Q0.5718912,0.2937931 0.5748057,0.3372414 Q0.5777202,0.3806896 0.578044,0.4241379 Q0.5783679,0.4675862 0.5783679,0.5034482 Q0.5783679,0.5586207 0.5767487,0.6268965 Q0.5751295,0.6951724 0.566386,0.7551724 Q0.5576425,0.8151724 0.5382124,0.8565517 Q0.5187824,0.8979311 0.4838083,0.8979311 Q0.4488342,0.8979311 0.4294041,0.8565517 Q0.4099741,0.8151724 0.4012305,0.7551724 Q0.392487,0.6951724 0.3908679,0.6268965 Q0.3892487,0.5586207 0.3892487,0.5034482 Q0.3892487,0.4675862 0.3895725,0.4241379 Q0.3898963,0.3806896 0.3928108,0.3372414 Q0.3957254,0.2937931 0.4012305,0.2524138 Q0.4067357,0.2110345 0.4174223,0.18 Q0.4281088,0.1489655 0.4443005,0.1296552 Q0.4604922,0.1103448 0.4838083,0.1103448 Z M0.1321244,0.0068965 Q0.1275907,0.062069 0.115285,0.097931 Q0.1029793,0.1337931 0.0851684,0.1544827 Q0.0673575,0.1751724 0.0453368,0.1827586 Q0.0233161,0.1903448 0,0.1903448 L0,0.2841379 L0.119171,0.2841379 L0.119171,0.9848276 L0.1742228,0.9848276 L0.1742228,0.0068965 Z M0.7085492,0 L0.7085492,0.9848276 L0.763601,0.9848276 L0.763601,0.7144827 L0.8154145,0.6124138 L0.9300517,0.9848276 L1,0.9848276 L0.8575129,0.5310345 L0.990285,0.2717241 L0.9164508,0.2717241 L0.763601,0.5834483 L0.763601,0 Z M0.4838083,0.0068965 Q0.4481865,0.0068965 0.4226036,0.0289655 Q0.3970207,0.0510345 0.3801814,0.0882758 Q0.363342,0.1255172 0.3536269,0.1751724 Q0.3439119,0.2248276 0.3387305,0.28 Q0.3335492,0.3351724 0.3322539,0.3931035 Q0.3309585,0.4510345 0.3309585,0.5048276 Q0.3309585,0.5586207 0.3322539,0.6165517 Q0.3335492,0.6744828 0.3387305,0.7296551 Q0.3439119,0.7848276 0.3536269,0.8337931 Q0.363342,0.8827586 0.3801814,0.92 Q0.3970207,0.9572414 0.4226036,0.9786207 Q0.4481865,1 0.4838083,1 Q0.5200777,1 0.5453368,0.9786207 Q0.5705958,0.9572414 0.5874352,0.92 Q0.6042746,0.8827586 0.6139896,0.8337931 Q0.6237047,0.7848276 0.628886,0.7296551 Q0.6340673,0.6744828 0.6353627,0.6165517 Q0.636658,0.5586207 0.636658,0.5048276 Q0.636658,0.4510345 0.6353627,0.3931035 Q0.6340673,0.3351724 0.628886,0.28 Q0.6237047,0.2248276 0.6139896,0.1751724 Q0.6042746,0.1255172 0.5874352,0.0882758 Q0.5705958,0.0510345 0.5450129,0.0289655 Q0.51943,0.0068965 0.4838083,0.0068965 Z" style="fill:rgb(0,0,0);stroke:none" />
</g>
<g transform="matrix(0 0 0 3 57.10256576538086 21.7222222222) ">
<path d="MNaN,0 LNaN,1 LNaN,1 LNaN,1 LNaN,1 LNaN,0 LNaN,0 LNaN,0 LNaN,0 Z" style="fill:rgb(0,0,0);stroke:none" />
</g>
<g transform="matrix(4.632000118494034 0 0 2.174999952316284 54.786564043322215 25.434722246041858) ">
<path d="M0.1321244,0.0068965 Q0.1275907,0.062069 0.115285,0.097931 Q0.1029793,0.1337931 0.0851684,0.1544827 Q0.0673575,0.1751724 0.0453368,0.1827586 Q0.0233161,0.1903448 0,0.1903448 L0,0.2841379 L0.119171,0.2841379 L0.119171,0.9848276 L0.1742228,0.9848276 L0.1742228,0.0068965 Z M0.7085492,0 L0.7085492,0.9848276 L0.763601,0.9848276 L0.763601,0.7144827 L0.8154145,0.6124138 L0.9300517,0.9848276 L1,0.9848276 L0.8575129,0.5310345 L0.990285,0.2717241 L0.9164508,0.2717241 L0.763601,0.5834483 L0.763601,0 Z M0.3814766,0.0234482 L0.3387305,0.5310345 L0.3860104,0.5365517 Q0.4022021,0.4951724 0.4232513,0.4696552 Q0.4443005,0.4441379 0.4715026,0.4441379 Q0.4948186,0.4441379 0.5139249,0.4606897 Q0.5330311,0.4772414 0.5466321,0.5068965 Q0.5602331,0.5365517 0.5676813,0.5772414 Q0.5751295,0.6179311 0.5751295,0.6662069 Q0.5751295,0.724138 0.5673575,0.7675862 Q0.5595855,0.8110345 0.5463083,0.84 Q0.5330311,0.8689655 0.5152202,0.8834483 Q0.4974093,0.8979311 0.4779792,0.8979311 Q0.4572539,0.8979311 0.4400907,0.8848276 Q0.4229275,0.8717241 0.4102979,0.8475862 Q0.3976684,0.8234482 0.3902202,0.7910345 Q0.382772,0.7586206 0.3814766,0.7213793 L0.3264249,0.7213793 Q0.3270725,0.7875863 0.3387305,0.84 Q0.3503886,0.8924138 0.3704663,0.9275862 Q0.390544,0.9627586 0.4167746,0.9813793 Q0.4430052,1 0.4727979,1 Q0.5129534,1 0.5430699,0.9731034 Q0.5731865,0.9462068 0.5932642,0.9006896 Q0.613342,0.8551724 0.6233808,0.7965517 Q0.6334197,0.7379311 0.6334197,0.6758621 Q0.6334197,0.5917241 0.6217616,0.5289655 Q0.6101036,0.4662069 0.5900259,0.4241379 Q0.5699482,0.382069 0.5427461,0.3613793 Q0.515544,0.3406896 0.4851036,0.3406896 Q0.4617876,0.3406896 0.4381476,0.357931 Q0.4145078,0.3751724 0.3996114,0.4110345 L0.398316,0.4082759 L0.4229275,0.1268965 L0.6081606,0.1268965 L0.6081606,0.0234482 Z" style="fill:rgb(0,0,0);stroke:none" />
</g>
<g transform="matrix(0 0 0 3 75.47008514404297 21.7222222222) ">
<path d="MNaN,0 LNaN,1 LNaN,1 LNaN,1 LNaN,1 LNaN,0 LNaN,0 LNaN,0 LNaN,0 Z" style="fill:rgb(0,0,0);stroke:none" />
</g>
<g transform="matrix(4.821000128984451 0 0 2.174999952316284 73.05958540560009 25.434722246041858) ">
<path d="M0.5040448,0.1103448 Q0.5264468,0.1103448 0.5420037,0.1296552 Q0.5575607,0.1489655 0.5678282,0.18 Q0.5780958,0.2110345 0.5833852,0.2524138 Q0.5886746,0.2937931 0.5914748,0.3372414 Q0.594275,0.3806896 0.5945862,0.4241379 Q0.5948973,0.4675862 0.5948973,0.5034482 Q0.5948973,0.5586207 0.5933416,0.6268965 Q0.5917859,0.6951724 0.5833852,0.7551724 Q0.5749844,0.8151724 0.5563161,0.8565517 Q0.5376478,0.8979311 0.5040448,0.8979311 Q0.4704418,0.8979311 0.4517735,0.8565517 Q0.4331052,0.8151724 0.4247044,0.7551724 Q0.4163037,0.6951724 0.414748,0.6268965 Q0.4131923,0.5586207 0.4131923,0.5034482 Q0.4131923,0.4675862 0.4135034,0.4241379 Q0.4138145,0.3806896 0.4166148,0.3372414 Q0.4194151,0.2937931 0.4247044,0.2524138 Q0.4299938,0.2110345 0.4402613,0.18 Q0.4505289,0.1489655 0.4660859,0.1296552 Q0.4816428,0.1103448 0.5040448,0.1103448 Z M0.1543248,0.0068965 Q0.1194773,0.0068965 0.0920971,0.0331035 Q0.0647169,0.0593103 0.0463597,0.1055172 Q0.0280025,0.1517241 0.0192906,0.2151724 Q0.0105787,0.2786207 0.0124456,0.3531035 L0.0653391,0.3531035 Q0.0647169,0.3089655 0.0693839,0.2655172 Q0.074051,0.2220689 0.0846297,0.1875862 Q0.0952085,0.1531034 0.1116988,0.1317241 Q0.1281892,0.1103448 0.1512134,0.1103448 Q0.1686372,0.1103448 0.1841941,0.1227586 Q0.1997511,0.1351724 0.2112632,0.1586207 Q0.2227754,0.1820689 0.2296204,0.2144827 Q0.2364655,0.2468965 0.2364655,0.2868965 Q0.2364655,0.337931 0.2293093,0.3765517 Q0.2221531,0.4151724 0.2081518,0.4482758 Q0.1941506,0.4813793 0.1729932,0.5137931 Q0.1518357,0.5462069 0.1238332,0.5848276 Q0.100809,0.6151725 0.0796515,0.6496551 Q0.0584941,0.6841379 0.0416926,0.7296551 Q0.0248911,0.7751724 0.0140012,0.8365517 Q0.0031114,0.8979311 0,0.9848276 L0.2881145,0.9848276 L0.2881145,0.8813794 L0.0616055,0.8813794 Q0.0653391,0.8358621 0.0774735,0.8006896 Q0.089608,0.7655172 0.1067206,0.7351724 Q0.1238332,0.7048276 0.1443684,0.677931 Q0.1649035,0.6510344 0.1854387,0.6234483 Q0.2059739,0.5944828 0.2252645,0.5627586 Q0.2445551,0.5310345 0.2594897,0.4917241 Q0.2744244,0.4524138 0.2834474,0.4027586 Q0.2924704,0.3531035 0.2924704,0.2882759 Q0.2924704,0.2193103 0.2815806,0.1668965 Q0.2706907,0.1144827 0.2520224,0.0793104 Q0.2333541,0.0441379 0.2081518,0.0255173 Q0.1829496,0.0068965 0.1543248,0.0068965 Z M0.7199751,0 L0.7199751,0.9848276 L0.7728687,0.9848276 L0.7728687,0.7144827 L0.8226509,0.6124138 L0.932794,0.9848276 L1,0.9848276 L0.8630989,0.5310345 L0.9906658,0.2717241 L0.9197262,0.2717241 L0.7728687,0.5834483 L0.7728687,0 Z M0.5040448,0.0068965 Q0.4698195,0.0068965 0.4452395,0.0289655 Q0.4206596,0.0510345 0.4044804,0.0882758 Q0.3883012,0.1255172 0.378967,0.1751724 Q0.3696328,0.2248276 0.3646546,0.28 Q0.3596764,0.3351724 0.3584318,0.3931035 Q0.3571873,0.4510345 0.3571873,0.5048276 Q0.3571873,0.5586207 0.3584318,0.6165517 Q0.3596764,0.6744828 0.3646546,0.7296551 Q0.3696328,0.7848276 0.378967,0.8337931 Q0.3883012,0.8827586 0.4044804,0.92 Q0.4206596,0.9572414 0.4452395,0.9786207 Q0.4698195,1 0.5040448,1 Q0.5388923,1 0.5631611,0.9786207 Q0.58743,0.9572414 0.6036092,0.92 Q0.6197884,0.8827586 0.6291226,0.8337931 Q0.6384568,0.7848276 0.643435,0.7296551 Q0.6484132,0.6744828 0.6496577,0.6165517 Q0.6509023,0.5586207 0.6509023,0.5048276 Q0.6509023,0.4510345 0.6496577,0.3931035 Q0.6484132,0.3351724 0.643435,0.28 Q0.6384568,0.2248276 0.6291226,0.1751724 Q0.6197884,0.1255172 0.6036092,0.0882758 Q0.58743,0.0510345 0.56285,0.0289655 Q0.5382701,0.0068965 0.5040448,0.0068965 Z" style="fill:rgb(0,0,0);stroke:none" />
</g>
<g transform="matrix(0 0 0 3 93.83760833740234 21.7222222222) ">
<path d="MNaN,0 LNaN,1 LNaN,1 LNaN,1 LNaN,1 LNaN,0 LNaN,0 LNaN,0 LNaN,0 Z" style="fill:rgb(0,0,0);stroke:none" />
</g>
<g transform="matrix(4.821000128984451 0 0 2.174999952316284 91.42710677312316 25.434722246041858) ">
<path d="M0.1543248,0.0068965 Q0.1194773,0.0068965 0.0920971,0.0331035 Q0.0647169,0.0593103 0.0463597,0.1055172 Q0.0280025,0.1517241 0.0192906,0.2151724 Q0.0105787,0.2786207 0.0124456,0.3531035 L0.0653391,0.3531035 Q0.0647169,0.3089655 0.0693839,0.2655172 Q0.074051,0.2220689 0.0846297,0.1875862 Q0.0952085,0.1531034 0.1116988,0.1317241 Q0.1281892,0.1103448 0.1512134,0.1103448 Q0.1686372,0.1103448 0.1841941,0.1227586 Q0.1997511,0.1351724 0.2112632,0.1586207 Q0.2227754,0.1820689 0.2296204,0.2144827 Q0.2364655,0.2468965 0.2364655,0.2868965 Q0.2364655,0.337931 0.2293093,0.3765517 Q0.2221531,0.4151724 0.2081518,0.4482758 Q0.1941506,0.4813793 0.1729932,0.5137931 Q0.1518357,0.5462069 0.1238332,0.5848276 Q0.100809,0.6151725 0.0796515,0.6496551 Q0.0584941,0.6841379 0.0416926,0.7296551 Q0.0248911,0.7751724 0.0140012,0.8365517 Q0.0031114,0.8979311 0,0.9848276 L0.2881145,0.9848276 L0.2881145,0.8813794 L0.0616055,0.8813794 Q0.0653391,0.8358621 0.0774735,0.8006896 Q0.089608,0.7655172 0.1067206,0.7351724 Q0.1238332,0.7048276 0.1443684,0.677931 Q0.1649035,0.6510344 0.1854387,0.6234483 Q0.2059739,0.5944828 0.2252645,0.5627586 Q0.2445551,0.5310345 0.2594897,0.4917241 Q0.2744244,0.4524138 0.2834474,0.4027586 Q0.2924704,0.3531035 0.2924704,0.2882759 Q0.2924704,0.2193103 0.2815806,0.1668965 Q0.2706907,0.1144827 0.2520224,0.0793104 Q0.2333541,0.0441379 0.2081518,0.0255173 Q0.1829496,0.0068965 0.1543248,0.0068965 Z M0.7199751,0 L0.7199751,0.9848276 L0.7728687,0.9848276 L0.7728687,0.7144827 L0.8226509,0.6124138 L0.932794,0.9848276 L1,0.9848276 L0.8630989,0.5310345 L0.9906658,0.2717241 L0.9197262,0.2717241 L0.7728687,0.5834483 L0.7728687,0 Z M0.4057249,0.0234482 L0.3646546,0.5310345 L0.4100809,0.5365517 Q0.4256378,0.4951724 0.4458618,0.4696552 Q0.4660859,0.4441379 0.4922215,0.4441379 Q0.5146235,0.4441379 0.5329807,0.4606897 Q0.5513379,0.4772414 0.5644057,0.5068965 Q0.5774735,0.5365517 0.5846297,0.5772414 Q0.5917859,0.6179311 0.5917859,0.6662069 Q0.5917859,0.724138 0.5843186,0.7675862 Q0.5768512,0.8110345 0.5640946,0.84 Q0.5513379,0.8689655 0.5342253,0.8834483 Q0.5171126,0.8979311 0.4984443,0.8979311 Q0.4785314,0.8979311 0.4620411,0.8848276 Q0.4455507,0.8717241 0.4334163,0.8475862 Q0.4212819,0.8234482 0.4141257,0.7910345 Q0.4069695,0.7586206 0.4057249,0.7213793 L0.3528314,0.7213793 Q0.3534536,0.7875863 0.3646546,0.84 Q0.3758556,0.8924138 0.3951462,0.9275862 Q0.4144368,0.9627586 0.4396391,0.9813793 Q0.4648413,1 0.4934661,1 Q0.5320473,1 0.5609832,0.9731034 Q0.5899191,0.9462068 0.6092097,0.9006896 Q0.6285003,0.8551724 0.6381456,0.7965517 Q0.6477909,0.7379311 0.6477909,0.6758621 Q0.6477909,0.5917241 0.6365899,0.5289655 Q0.6253889,0.4662069 0.6060983,0.4241379 Q0.5868077,0.382069 0.5606721,0.3613793 Q0.5345364,0.3406896 0.5052893,0.3406896 Q0.4828874,0.3406896 0.4601742,0.357931 Q0.4374611,0.3751724 0.4231487,0.4110345 L0.4219041,0.4082759 L0.4455507,0.1268965 L0.6235221,0.1268965 L0.6235221,0.0234482 Z" style="fill:rgb(0,0,0);stroke:none" />
</g>
<g transform="matrix(0 0 0 3 112.20513153076172 21.7222222222) ">
<path d="MNaN,0 LNaN,1 LNaN,1 LNaN,1 LNaN,1 LNaN,0 LNaN,0 LNaN,0 LNaN,0 Z" style="fill:rgb(0,0,0);stroke:none" />
</g>
<g transform="matrix(4.80317155154384 0 0 2.174999952316284 109.80354242936654 25.434722246041858) ">
<path d="M0.5022039,0.1103448 Q0.524689,0.1103448 0.5403037,0.1296552 Q0.5559184,0.1489655 0.5662241,0.18 Q0.5765298,0.2110345 0.5818388,0.2524138 Q0.5871478,0.2937931 0.5899584,0.3372414 Q0.5927691,0.3806896 0.5930813,0.4241379 Q0.5933936,0.4675862 0.5933936,0.5034482 Q0.5933936,0.5586207 0.5918321,0.6268965 Q0.5902707,0.6951724 0.5818388,0.7551724 Q0.5734069,0.8151724 0.5546692,0.8565517 Q0.5359316,0.8979311 0.5022039,0.8979311 Q0.4684762,0.8979311 0.4497386,0.8565517 Q0.431001,0.8151724 0.422569,0.7551724 Q0.4141371,0.6951724 0.4125756,0.6268965 Q0.4110141,0.5586207 0.4110141,0.5034482 Q0.4110141,0.4675862 0.4113264,0.4241379 Q0.4116387,0.3806896 0.4144493,0.3372414 Q0.41726,0.2937931 0.422569,0.2524138 Q0.427878,0.2110345 0.4381837,0.18 Q0.4484894,0.1489655 0.4641041,0.1296552 Q0.4797188,0.1103448 0.5022039,0.1103448 Z M0.7189357,0 L0.7189357,0.9848276 L0.7720256,0.9848276 L0.7720256,0.7144827 L0.8219926,0.6124138 L0.9325445,0.9848276 L1,0.9848276 L0.8625907,0.5310345 L0.9906312,0.2717241 L0.9194282,0.2717241 L0.7720256,0.5834483 L0.7720256,0 Z M0.1461891,0.0068965 Q0.113086,0.0068965 0.0877902,0.0303448 Q0.0624944,0.053793 0.0456306,0.0951724 Q0.0287667,0.1365517 0.0197102,0.1944828 Q0.0106537,0.2524138 0.0094045,0.3227586 L0.0624944,0.3227586 Q0.0624944,0.28 0.0674911,0.2413793 Q0.0724878,0.2027586 0.0827935,0.1737931 Q0.0930992,0.1448276 0.1090262,0.1275862 Q0.1249532,0.1103448 0.1461891,0.1103448 Q0.1799168,0.1103448 0.202402,0.1496552 Q0.2248871,0.1889655 0.2248871,0.2675862 Q0.2248871,0.3062069 0.2180167,0.3365517 Q0.2111462,0.3668965 0.1995913,0.3868965 Q0.1880365,0.4068966 0.1727341,0.4172413 Q0.1574317,0.4275862 0.1405678,0.4275862 L0.1230794,0.4275862 Q0.120581,0.4275862 0.1174581,0.4262069 L0.1174581,0.5255172 Q0.1324482,0.5213793 0.1493121,0.5213793 Q0.1692989,0.5213793 0.186475,0.5331034 Q0.2036511,0.5448276 0.2161429,0.5689655 Q0.2286346,0.5931034 0.2361297,0.6282758 Q0.2436247,0.6634483 0.2436247,0.7089656 Q0.2436247,0.7531035 0.2358174,0.7882759 Q0.22801,0.8234482 0.2148937,0.8475862 Q0.2017774,0.8717241 0.184289,0.8848276 Q0.1668005,0.8979311 0.1474383,0.8979311 Q0.1018434,0.8979311 0.0781091,0.837931 Q0.0543748,0.777931 0.0531256,0.6827586 L0.0000357,0.6827586 Q-0.0005889,0.7586206 0.0097168,0.8179311 Q0.0200225,0.8772414 0.0393847,0.9179311 Q0.0587469,0.9586207 0.0862287,0.9793103 Q0.1137106,1 0.1474383,1 Q0.1786677,1 0.2064618,0.9813793 Q0.2342559,0.9627586 0.2548673,0.9255173 Q0.2754787,0.8882758 0.2876582,0.8324138 Q0.2998376,0.7765517 0.2998376,0.7034483 Q0.2998376,0.6151725 0.2801631,0.5503449 Q0.2604886,0.4855172 0.2198904,0.4662069 L0.2198904,0.4634483 Q0.2461231,0.4372414 0.2636115,0.3862069 Q0.2811,0.3351724 0.2811,0.2689655 Q0.2811,0.2013793 0.2707943,0.1517241 Q0.2604886,0.102069 0.2423756,0.0703448 Q0.2242625,0.0386206 0.1995913,0.0227586 Q0.1749201,0.0068965 0.1461891,0.0068965 Z M0.5022039,0.0068965 Q0.4678516,0.0068965 0.4431804,0.0289655 Q0.4185092,0.0510345 0.4022699,0.0882758 Q0.3860306,0.1255172 0.3766618,0.1751724 Q0.367293,0.2248276 0.3622963,0.28 Q0.3572996,0.3351724 0.3560504,0.3931035 Q0.3548013,0.4510345 0.3548013,0.5048276 Q0.3548013,0.5586207 0.3560504,0.6165517 Q0.3572996,0.6744828 0.3622963,0.7296551 Q0.367293,0.7848276 0.3766618,0.8337931 Q0.3860306,0.8827586 0.4022699,0.92 Q0.4185092,0.9572414 0.4431804,0.9786207 Q0.4678516,1 0.5022039,1 Q0.5371808,1 0.5615397,0.9786207 Q0.5858986,0.9572414 0.6021378,0.92 Q0.6183771,0.8827586 0.6277459,0.8337931 Q0.6371148,0.7848276 0.6421115,0.7296551 Q0.6471081,0.6744828 0.6483573,0.6165517 Q0.6496065,0.5586207 0.6496065,0.5048276 Q0.6496065,0.4510345 0.6483573,0.3931035 Q0.6471081,0.3351724 0.6421115,0.28 Q0.6371148,0.2248276 0.6277459,0.1751724 Q0.6183771,0.1255172 0.6021378,0.0882758 Q0.5858986,0.0510345 0.5612274,0.0289655 Q0.5365562,0.0068965 0.5022039,0.0068965 Z" style="fill:rgb(0,0,0);stroke:none" />
</g>
<g transform="matrix(0 0 0 3 130.57264709472656 21.7222222222) ">
<path d="MNaN,0 LNaN,1 LNaN,1 LNaN,1 LNaN,1 LNaN,0 LNaN,0 LNaN,0 LNaN,0 Z" style="fill:rgb(0,0,0);stroke:none" />
</g>
<g transform="matrix(4.80317155154384 0 0 2.174999952316284 128.17106379688963 25.434722246041858) ">
<path d="M0.7189357,0 L0.7189357,0.9848276 L0.7720256,0.9848276 L0.7720256,0.7144827 L0.8219926,0.6124138 L0.9325445,0.9848276 L1,0.9848276 L0.8625907,0.5310345 L0.9906312,0.2717241 L0.9194282,0.2717241 L0.7720256,0.5834483 L0.7720256,0 Z M0.1461891,0.0068965 Q0.113086,0.0068965 0.0877902,0.0303448 Q0.0624944,0.053793 0.0456306,0.0951724 Q0.0287667,0.1365517 0.0197102,0.1944828 Q0.0106537,0.2524138 0.0094045,0.3227586 L0.0624944,0.3227586 Q0.0624944,0.28 0.0674911,0.2413793 Q0.0724878,0.2027586 0.0827935,0.1737931 Q0.0930992,0.1448276 0.1090262,0.1275862 Q0.1249532,0.1103448 0.1461891,0.1103448 Q0.1799168,0.1103448 0.202402,0.1496552 Q0.2248871,0.1889655 0.2248871,0.2675862 Q0.2248871,0.3062069 0.2180167,0.3365517 Q0.2111462,0.3668965 0.1995913,0.3868965 Q0.1880365,0.4068966 0.1727341,0.4172413 Q0.1574317,0.4275862 0.1405678,0.4275862 L0.1230794,0.4275862 Q0.120581,0.4275862 0.1174581,0.4262069 L0.1174581,0.5255172 Q0.1324482,0.5213793 0.1493121,0.5213793 Q0.1692989,0.5213793 0.186475,0.5331034 Q0.2036511,0.5448276 0.2161429,0.5689655 Q0.2286346,0.5931034 0.2361297,0.6282758 Q0.2436247,0.6634483 0.2436247,0.7089656 Q0.2436247,0.7531035 0.2358174,0.7882759 Q0.22801,0.8234482 0.2148937,0.8475862 Q0.2017774,0.8717241 0.184289,0.8848276 Q0.1668005,0.8979311 0.1474383,0.8979311 Q0.1018434,0.8979311 0.0781091,0.837931 Q0.0543748,0.777931 0.0531256,0.6827586 L0.0000357,0.6827586 Q-0.0005889,0.7586206 0.0097168,0.8179311 Q0.0200225,0.8772414 0.0393847,0.9179311 Q0.0587469,0.9586207 0.0862287,0.9793103 Q0.1137106,1 0.1474383,1 Q0.1786677,1 0.2064618,0.9813793 Q0.2342559,0.9627586 0.2548673,0.9255173 Q0.2754787,0.8882758 0.2876582,0.8324138 Q0.2998376,0.7765517 0.2998376,0.7034483 Q0.2998376,0.6151725 0.2801631,0.5503449 Q0.2604886,0.4855172 0.2198904,0.4662069 L0.2198904,0.4634483 Q0.2461231,0.4372414 0.2636115,0.3862069 Q0.2811,0.3351724 0.2811,0.2689655 Q0.2811,0.2013793 0.2707943,0.1517241 Q0.2604886,0.102069 0.2423756,0.0703448 Q0.2242625,0.0386206 0.1995913,0.0227586 Q0.1749201,0.0068965 0.1461891,0.0068965 Z M0.4035191,0.0234482 L0.3622963,0.5310345 L0.4078912,0.5365517 Q0.4235059,0.4951724 0.443805,0.4696552 Q0.4641041,0.4441379 0.4903367,0.4441379 Q0.5128219,0.4441379 0.5312472,0.4606897 Q0.5496725,0.4772414 0.5627889,0.5068965 Q0.5759052,0.5365517 0.583088,0.5772414 Q0.5902707,0.6179311 0.5902707,0.6662069 Q0.5902707,0.724138 0.5827756,0.7675862 Q0.5752806,0.8110345 0.5624766,0.84 Q0.5496725,0.8689655 0.5324964,0.8834483 Q0.5153202,0.8979311 0.4965826,0.8979311 Q0.4765958,0.8979311 0.4600442,0.8848276 Q0.4434927,0.8717241 0.4313132,0.8475862 Q0.4191338,0.8234482 0.411951,0.7910345 Q0.4047683,0.7586206 0.4035191,0.7213793 L0.3504292,0.7213793 Q0.3510538,0.7875863 0.3622963,0.84 Q0.3735389,0.8924138 0.3929011,0.9275862 Q0.4122633,0.9627586 0.4375591,0.9813793 Q0.4628549,1 0.4915859,1 Q0.5303103,1 0.5593536,0.9731034 Q0.5883969,0.9462068 0.6077592,0.9006896 Q0.6271213,0.8551724 0.6368024,0.7965517 Q0.6464835,0.7379311 0.6464835,0.6758621 Q0.6464835,0.5917241 0.635241,0.5289655 Q0.6239984,0.4662069 0.6046362,0.4241379 Q0.585274,0.382069 0.5590414,0.3613793 Q0.5328087,0.3406896 0.503453,0.3406896 Q0.4809679,0.3406896 0.4581705,0.357931 Q0.435373,0.3751724 0.4210075,0.4110345 L0.4197584,0.4082759 L0.4434927,0.1268965 L0.6221247,0.1268965 L0.6221247,0.0234482 Z" style="fill:rgb(0,0,0);stroke:none" />
</g>
<g transform="matrix(0 0 0 3 148.94017028808594 21.7222222222) ">
<path d="MNaN,0 LNaN,1 LNaN,1 LNaN,1 LNaN,1 LNaN,0 LNaN,0 LNaN,0 LNaN,0 Z" style="fill:rgb(0,0,0);stroke:none" />
</g>
<g transform="matrix(4.809000127017498 0 0 2.174999952316284 146.53567087667588 25.434722246041858) ">
<path d="M0.1940112,0.1737931 L0.1940112,0.6524138 L0.0455396,0.6524138 L0.1927636,0.1737931 Z M0.5028072,0.1103448 Q0.5252651,0.1103448 0.5408609,0.1296552 Q0.5564566,0.1489655 0.5667498,0.18 Q0.577043,0.2110345 0.5823456,0.2524138 Q0.5876482,0.2937931 0.5904554,0.3372414 Q0.5932626,0.3806896 0.5935745,0.4241379 Q0.5938865,0.4675862 0.5938865,0.5034482 Q0.5938865,0.5586207 0.5923268,0.6268965 Q0.5907673,0.6951724 0.5823456,0.7551724 Q0.5739239,0.8151724 0.555209,0.8565517 Q0.5364941,0.8979311 0.5028072,0.8979311 Q0.4691204,0.8979311 0.4504055,0.8565517 Q0.4316906,0.8151724 0.4232688,0.7551724 Q0.4148472,0.6951724 0.4132876,0.6268965 Q0.411728,0.5586207 0.411728,0.5034482 Q0.411728,0.4675862 0.4120399,0.4241379 Q0.4123518,0.3806896 0.415159,0.3372414 Q0.4179663,0.2937931 0.4232688,0.2524138 Q0.4285714,0.2110345 0.4388646,0.18 Q0.4491578,0.1489655 0.4647536,0.1296552 Q0.4803493,0.1103448 0.5028072,0.1103448 Z M0.2014972,0.0068965 L0,0.6427586 L0,0.7558621 L0.1940112,0.7558621 L0.1940112,0.9848276 L0.2439176,0.9848276 L0.2439176,0.7558621 L0.3038053,0.7558621 L0.3038053,0.6524138 L0.2439176,0.6524138 L0.2439176,0.0068965 Z M0.7192763,0 L0.7192763,0.9848276 L0.7723019,0.9848276 L0.7723019,0.7144827 L0.8222084,0.6124138 L0.9326263,0.9848276 L1,0.9848276 L0.8627573,0.5310345 L0.9906425,0.2717241 L0.9195259,0.2717241 L0.7723019,0.5834483 L0.7723019,0 Z M0.5028072,0.0068965 Q0.4684965,0.0068965 0.4438552,0.0289655 Q0.4192139,0.0510345 0.4029944,0.0882758 Q0.3867748,0.1255172 0.3774173,0.1751724 Q0.3680599,0.2248276 0.3630692,0.28 Q0.3580786,0.3351724 0.3568309,0.3931035 Q0.3555833,0.4510345 0.3555833,0.5048276 Q0.3555833,0.5586207 0.3568309,0.6165517 Q0.3580786,0.6744828 0.3630692,0.7296551 Q0.3680599,0.7848276 0.3774173,0.8337931 Q0.3867748,0.8827586 0.4029944,0.92 Q0.4192139,0.9572414 0.4438552,0.9786207 Q0.4684965,1 0.5028072,1 Q0.5377417,1 0.5620711,0.9786207 Q0.5864005,0.9572414 0.60262,0.92 Q0.6188396,0.8827586 0.6281971,0.8337931 Q0.6375546,0.7848276 0.6425452,0.7296551 Q0.6475358,0.6744828 0.6487835,0.6165517 Q0.6500312,0.5586207 0.6500312,0.5048276 Q0.6500312,0.4510345 0.6487835,0.3931035 Q0.6475358,0.3351724 0.6425452,0.28 Q0.6375546,0.2248276 0.6281971,0.1751724 Q0.6188396,0.1255172 0.60262,0.0882758 Q0.5864005,0.0510345 0.5617592,0.0289655 Q0.5371179,0.0068965 0.5028072,0.0068965 Z" style="fill:rgb(0,0,0);stroke:none" />
</g>
<g transform="matrix(0 0 0 3 167.3076934814453 21.7222222222) ">
<path d="MNaN,0 LNaN,1 LNaN,1 LNaN,1 LNaN,1 LNaN,0 LNaN,0 LNaN,0 LNaN,0 Z" style="fill:rgb(0,0,0);stroke:none" />
</g>
<g transform="matrix(4.809000127017498 0 0 2.174999952316284 164.90319224419895 25.434722246041858) ">
<path d="M0.1940112,0.1737931 L0.1940112,0.6524138 L0.0455396,0.6524138 L0.1927636,0.1737931 Z M0.2014972,0.0068965 L0,0.6427586 L0,0.7558621 L0.1940112,0.7558621 L0.1940112,0.9848276 L0.2439176,0.9848276 L0.2439176,0.7558621 L0.3038053,0.7558621 L0.3038053,0.6524138 L0.2439176,0.6524138 L0.2439176,0.0068965 Z M0.7192763,0 L0.7192763,0.9848276 L0.7723019,0.9848276 L0.7723019,0.7144827 L0.8222084,0.6124138 L0.9326263,0.9848276 L1,0.9848276 L0.8627573,0.5310345 L0.9906425,0.2717241 L0.9195259,0.2717241 L0.7723019,0.5834483 L0.7723019,0 Z M0.404242,0.0234482 L0.3630692,0.5310345 L0.4086089,0.5365517 Q0.4242046,0.4951724 0.4444791,0.4696552 Q0.4647536,0.4441379 0.4909544,0.4441379 Q0.5134123,0.4441379 0.5318153,0.4606897 Q0.5502183,0.4772414 0.5633188,0.5068965 Q0.5764192,0.5365517 0.5835933,0.5772414 Q0.5907673,0.6179311 0.5907673,0.6662069 Q0.5907673,0.724138 0.5832813,0.7675862 Q0.5757954,0.8110345 0.5630069,0.84 Q0.5502183,0.8689655 0.533063,0.8834483 Q0.5159077,0.8979311 0.4971927,0.8979311 Q0.4772302,0.8979311 0.4606987,0.8848276 Q0.4441672,0.8717241 0.4320025,0.8475862 Q0.4198378,0.8234482 0.4126638,0.7910345 Q0.4054897,0.7586206 0.404242,0.7213793 L0.3512165,0.7213793 Q0.3518403,0.7875863 0.3630692,0.84 Q0.3742982,0.8924138 0.3936369,0.9275862 Q0.4129756,0.9627586 0.4382408,0.9813793 Q0.4635059,1 0.4922021,1 Q0.5308796,1 0.5598877,0.9731034 Q0.5888958,0.9462068 0.6082346,0.9006896 Q0.6275733,0.8551724 0.6372426,0.7965517 Q0.646912,0.7379311 0.646912,0.6758621 Q0.646912,0.5917241 0.6356831,0.5289655 Q0.6244541,0.4662069 0.6051154,0.4241379 Q0.5857767,0.382069 0.5595758,0.3613793 Q0.5333749,0.3406896 0.5040549,0.3406896 Q0.481597,0.3406896 0.4588272,0.357931 Q0.4360574,0.3751724 0.4217093,0.4110345 L0.4204616,0.4082759 L0.4441672,0.1268965 L0.6225827,0.1268965 L0.6225827,0.0234482 Z" style="fill:rgb(0,0,0);stroke:none" />
</g>
<g transform="matrix(0 0 0 3 185.6752166748047 21.7222222222) ">
<path d="MNaN,0 LNaN,1 LNaN,1 LNaN,1 LNaN,1 LNaN,0 LNaN,0 LNaN,0 LNaN,0 Z" style="fill:rgb(0,0,0);stroke:none" />
</g>
<g transform="matrix(4.788000129163265 0 0 2.174999952316284 183.28121361064913 25.434722246041858) ">
<path d="M0.5006266,0.1103448 Q0.5231829,0.1103448 0.5388471,0.1296552 Q0.5545113,0.1489655 0.5648496,0.18 Q0.5751879,0.2110345 0.5805138,0.2524138 Q0.5858396,0.2937931 0.5886591,0.3372414 Q0.5914787,0.3806896 0.5917919,0.4241379 Q0.5921053,0.4675862 0.5921053,0.5034482 Q0.5921053,0.5586207 0.5905388,0.6268965 Q0.5889724,0.6951724 0.5805138,0.7551724 Q0.5720551,0.8151724 0.5532581,0.8565517 Q0.5344611,0.8979311 0.5006266,0.8979311 Q0.466792,0.8979311 0.447995,0.8565517 Q0.429198,0.8151724 0.4207393,0.7551724 Q0.4122807,0.6951724 0.4107143,0.6268965 Q0.4091478,0.5586207 0.4091478,0.5034482 Q0.4091478,0.4675862 0.4094611,0.4241379 Q0.4097744,0.3806896 0.412594,0.3372414 Q0.4154135,0.2937931 0.4207393,0.2524138 Q0.4260651,0.2110345 0.4364035,0.18 Q0.4467418,0.1489655 0.462406,0.1296552 Q0.4780702,0.1103448 0.5006266,0.1103448 Z M0.7180451,0 L0.7180451,0.9848276 L0.7713032,0.9848276 L0.7713032,0.7144827 L0.8214286,0.6124138 L0.9323308,0.9848276 L1,0.9848276 L0.8621553,0.5310345 L0.9906015,0.2717241 L0.9191729,0.2717241 L0.7713032,0.5834483 L0.7713032,0 Z M0.0532581,0.0234482 L0.0119048,0.5310345 L0.0576441,0.5365517 Q0.0733083,0.4951724 0.0936717,0.4696552 Q0.1140351,0.4441379 0.1403509,0.4441379 Q0.1629073,0.4441379 0.181391,0.4606897 Q0.1998747,0.4772414 0.2130326,0.5068965 Q0.2261905,0.5365517 0.233396,0.5772414 Q0.2406015,0.6179311 0.2406015,0.6662069 Q0.2406015,0.724138 0.2330827,0.7675862 Q0.2255639,0.8110345 0.2127193,0.84 Q0.1998747,0.8689655 0.1826441,0.8834483 Q0.1654135,0.8979311 0.1466165,0.8979311 Q0.1265664,0.8979311 0.1099624,0.8848276 Q0.0933584,0.8717241 0.0811403,0.8475862 Q0.0689223,0.8234482 0.0617168,0.7910345 Q0.0545113,0.7586206 0.0532581,0.7213793 L0,0.7213793 Q0.0006266,0.7875863 0.0119048,0.84 Q0.023183,0.8924138 0.0426065,0.9275862 Q0.0620301,0.9627586 0.087406,0.9813793 Q0.1127819,1 0.141604,1 Q0.1804511,1 0.2095865,0.9731034 Q0.2387218,0.9462068 0.2581453,0.9006896 Q0.2775689,0.8551724 0.2872807,0.7965517 Q0.2969925,0.7379311 0.2969925,0.6758621 Q0.2969925,0.5917241 0.2857143,0.5289655 Q0.2744361,0.4662069 0.2550125,0.4241379 Q0.235589,0.382069 0.2092732,0.3613793 Q0.1829574,0.3406896 0.1535088,0.3406896 Q0.1309524,0.3406896 0.1080827,0.357931 Q0.085213,0.3751724 0.070802,0.4110345 L0.0695489,0.4082759 L0.0933584,0.1268965 L0.2725564,0.1268965 L0.2725564,0.0234482 Z M0.5006266,0.0068965 Q0.4661654,0.0068965 0.441416,0.0289655 Q0.4166666,0.0510345 0.4003759,0.0882758 Q0.3840852,0.1255172 0.3746867,0.1751724 Q0.3652882,0.2248276 0.3602757,0.28 Q0.3552631,0.3351724 0.35401,0.3931035 Q0.3527569,0.4510345 0.3527569,0.5048276 Q0.3527569,0.5586207 0.35401,0.6165517 Q0.3552631,0.6744828 0.3602757,0.7296551 Q0.3652882,0.7848276 0.3746867,0.8337931 Q0.3840852,0.8827586 0.4003759,0.92 Q0.4166666,0.9572414 0.441416,0.9786207 Q0.4661654,1 0.5006266,1 Q0.5357143,1 0.5601503,0.9786207 Q0.5845865,0.9572414 0.6008772,0.92 Q0.6171679,0.8827586 0.6265664,0.8337931 Q0.6359649,0.7848276 0.6409774,0.7296551 Q0.6459899,0.6744828 0.6472431,0.6165517 Q0.6484962,0.5586207 0.6484962,0.5048276 Q0.6484962,0.4510345 0.6472431,0.3931035 Q0.6459899,0.3351724 0.6409774,0.28 Q0.6359649,0.2248276 0.6265664,0.1751724 Q0.6171679,0.1255172 0.6008772,0.0882758 Q0.5845865,0.0510345 0.5598371,0.0289655 Q0.5350877,0.0068965 0.5006266,0.0068965 Z" style="fill:rgb(0,0,0);stroke:none" />
</g>
<g transform="matrix(0 0 0 3 204.04273986816406 21.7222222222) ">
<path d="MNaN,0 LNaN,1 LNaN,1 LNaN,1 LNaN,1 LNaN,0 LNaN,0 LNaN,0 LNaN,0 Z" style="fill:rgb(0,0,0);stroke:none" />
</g>
<g transform="matrix(4.788000129163265 0 0 2.174999952316284 201.6487349781722 25.434722246041858) ">
<path d="M0.7180451,0 L0.7180451,0.9848276 L0.7713032,0.9848276 L0.7713032,0.7144827 L0.8214286,0.6124138 L0.9323308,0.9848276 L1,0.9848276 L0.8621553,0.5310345 L0.9906015,0.2717241 L0.9191729,0.2717241 L0.7713032,0.5834483 L0.7713032,0 Z M0.0532581,0.0234482 L0.0119048,0.5310345 L0.0576441,0.5365517 Q0.0733083,0.4951724 0.0936717,0.4696552 Q0.1140351,0.4441379 0.1403509,0.4441379 Q0.1629073,0.4441379 0.181391,0.4606897 Q0.1998747,0.4772414 0.2130326,0.5068965 Q0.2261905,0.5365517 0.233396,0.5772414 Q0.2406015,0.6179311 0.2406015,0.6662069 Q0.2406015,0.724138 0.2330827,0.7675862 Q0.2255639,0.8110345 0.2127193,0.84 Q0.1998747,0.8689655 0.1826441,0.8834483 Q0.1654135,0.8979311 0.1466165,0.8979311 Q0.1265664,0.8979311 0.1099624,0.8848276 Q0.0933584,0.8717241 0.0811403,0.8475862 Q0.0689223,0.8234482 0.0617168,0.7910345 Q0.0545113,0.7586206 0.0532581,0.7213793 L0,0.7213793 Q0.0006266,0.7875863 0.0119048,0.84 Q0.023183,0.8924138 0.0426065,0.9275862 Q0.0620301,0.9627586 0.087406,0.9813793 Q0.1127819,1 0.141604,1 Q0.1804511,1 0.2095865,0.9731034 Q0.2387218,0.9462068 0.2581453,0.9006896 Q0.2775689,0.8551724 0.2872807,0.7965517 Q0.2969925,0.7379311 0.2969925,0.6758621 Q0.2969925,0.5917241 0.2857143,0.5289655 Q0.2744361,0.4662069 0.2550125,0.4241379 Q0.235589,0.382069 0.2092732,0.3613793 Q0.1829574,0.3406896 0.1535088,0.3406896 Q0.1309524,0.3406896 0.1080827,0.357931 Q0.085213,0.3751724 0.070802,0.4110345 L0.0695489,0.4082759 L0.0933584,0.1268965 L0.2725564,0.1268965 L0.2725564,0.0234482 Z M0.401629,0.0234482 L0.3602757,0.5310345 L0.406015,0.5365517 Q0.4216792,0.4951724 0.4420426,0.4696552 Q0.462406,0.4441379 0.4887218,0.4441379 Q0.5112782,0.4441379 0.5297619,0.4606897 Q0.5482456,0.4772414 0.5614035,0.5068965 Q0.5745614,0.5365517 0.5817669,0.5772414 Q0.5889724,0.6179311 0.5889724,0.6662069 Q0.5889724,0.724138 0.5814536,0.7675862 Q0.5739348,0.8110345 0.5610902,0.84 Q0.5482456,0.8689655 0.531015,0.8834483 Q0.5137845,0.8979311 0.4949874,0.8979311 Q0.4749373,0.8979311 0.4583333,0.8848276 Q0.4417293,0.8717241 0.4295113,0.8475862 Q0.4172932,0.8234482 0.4100877,0.7910345 Q0.4028822,0.7586206 0.401629,0.7213793 L0.3483709,0.7213793 Q0.3489975,0.7875863 0.3602757,0.84 Q0.3715539,0.8924138 0.3909774,0.9275862 Q0.410401,0.9627586 0.4357769,0.9813793 Q0.4611529,1 0.4899749,1 Q0.5288221,1 0.5579574,0.9731034 Q0.5870927,0.9462068 0.6065163,0.9006896 Q0.6259398,0.8551724 0.6356516,0.7965517 Q0.6453634,0.7379311 0.6453634,0.6758621 Q0.6453634,0.5917241 0.6340852,0.5289655 Q0.622807,0.4662069 0.6033834,0.4241379 Q0.5839599,0.382069 0.5576441,0.3613793 Q0.5313283,0.3406896 0.5018797,0.3406896 Q0.4793233,0.3406896 0.4564536,0.357931 Q0.4335839,0.3751724 0.4191729,0.4110345 L0.4179198,0.4082759 L0.4417293,0.1268965 L0.6209273,0.1268965 L0.6209273,0.0234482 Z" style="fill:rgb(0,0,0);stroke:none" />
</g>
<g transform="matrix(0 0 0 3 222.41026306152344 21.7222222222) ">
<path d="MNaN,0 LNaN,1 LNaN,1 LNaN,1 LNaN,1 LNaN,0 LNaN,0 LNaN,0 LNaN,0 Z" style="fill:rgb(0,0,0);stroke:none" />
</g>
<g transform="matrix(2.076000042259693 0 0 0.9839999675750732 221.37225638914708 25.530222238412463) ">
<path d="M0.2196532,0.2347561 Q0.2485549,0.2347561 0.2774566,0.2621951 Q0.3063584,0.2896341 0.333815,0.3292683 Q0.3612717,0.3689024 0.3858381,0.417683 Q0.4104046,0.4664633 0.4306358,0.5060975 Q0.4118497,0.5487805 0.3880058,0.5929877 Q0.3641618,0.6371952 0.3374277,0.6768294 Q0.3106936,0.7164634 0.2817919,0.7408535 Q0.2528902,0.7652439 0.2239884,0.7652439 Q0.1690751,0.7652439 0.1372832,0.6920732 Q0.1054913,0.6189024 0.1054913,0.5030489 Q0.1054913,0.3993903 0.1358382,0.3170732 Q0.166185,0.2347561 0.2196532,0.2347561 Z M0.7760115,0.2347561 Q0.833815,0.2347561 0.8641618,0.3125 Q0.8945086,0.390244 0.8945086,0.5060975 Q0.8945086,0.6158536 0.8648844,0.6905487 Q0.8352601,0.7652439 0.7803468,0.7652439 Q0.7485549,0.7652439 0.7196532,0.7408535 Q0.6907514,0.7164634 0.6647398,0.679878 Q0.6387283,0.6432928 0.6148844,0.5975611 Q0.5910404,0.5518293 0.5693641,0.5091463 Q0.5881503,0.4695123 0.6119942,0.4207318 Q0.6358381,0.3719512 0.6625723,0.3307927 Q0.6893063,0.2896341 0.7182081,0.2621951 Q0.7471098,0.2347561 0.7760115,0.2347561 Z M0.2196532,0 Q0.1676301,0 0.1271676,0.0396342 Q0.0867052,0.0792682 0.058526,0.1478658 Q0.0303468,0.2164634 0.0151734,0.3079268 Q0,0.3993903 0,0.5030489 Q0,0.609756 0.015896,0.7012196 Q0.0317919,0.7926829 0.0606936,0.8582318 Q0.0895954,0.9237804 0.1307803,0.9618903 Q0.1719653,1 0.2239884,1 Q0.2687861,1 0.3070809,0.9710365 Q0.3453757,0.9420732 0.3793352,0.8932927 Q0.4132948,0.8445123 0.4429191,0.785061 Q0.4725433,0.7256098 0.5014451,0.6646342 Q0.5289017,0.7286586 0.5599711,0.7881098 Q0.5910404,0.8475609 0.6242774,0.8948172 Q0.6575144,0.9420732 0.6958093,0.9710365 Q0.734104,1 0.7774566,1 Q0.8294797,1 0.8706647,0.9603658 Q0.9118497,0.9207316 0.9407514,0.8536585 Q0.9696532,0.7865853 0.9848265,0.695122 Q1,0.6036587 1,0.4969513 Q1,0.3932927 0.9841041,0.3018292 Q0.9682081,0.2103659 0.9385838,0.1432927 Q0.9089595,0.0762196 0.8677746,0.0381098 Q0.8265896,0 0.7760115,0 Q0.7326589,0 0.6943642,0.0320122 Q0.6560694,0.0640244 0.6221098,0.1143292 Q0.5881503,0.1646341 0.558526,0.2271342 Q0.5289017,0.2896341 0.5014451,0.3536586 Q0.4725433,0.2896341 0.4421965,0.2271342 Q0.4118497,0.1646341 0.3771676,0.1143292 Q0.3424855,0.0640244 0.3034682,0.0320122 Q0.2644508,0 0.2196532,0 Z" style="fill:rgb(0,0,0);stroke:none" />
</g>
</svg>
