<?xml version="1.0" encoding="UTF-8"?>
<!DOCTYPE svg PUBLIC "-//W3C//DTD SVG 1.1//EN" "http://www.w3.org/Graphics/SVG/1.1/DTD/svg11.dtd">
<svg version="1.2" xmlns="http://www.w3.org/2000/svg" xmlns:xlink="http://www.w3.org/1999/xlink" x="0mm" y="0mm" width="112.8888889mm" height="28.2222222mm" viewBox="0 0 112.8888889 28.2222222">
<style type="text/css"><![CDATA[
text { font:12px Dialog; }
]]></style>
<g transform="matrix(118.3888888889 0 0 23.2222222222 2 0) ">
<path d="M0,0 L1,0 L1,1 L0,1 L0,0 Z" style="fill:rgb(255,255,255);stroke:none" />
</g>
<g transform="matrix(119.38888549804688 0 0 24.22222137451172 1.5 -0.5) ">
<path d="M0.004188,0.0412844 L0.995812,0.0412844 L0.995812,0.0206422 L0.991624,0.0206422 L0.991624,0.9793578 L0.995812,0.9793578 L0.995812,0.9587156 L0.004188,0.9587156 L0.004188,0.9793578 L0.008376,0.9793578 L0.008376,0.0206422 L0.004188,0.0206422 L0.004188,0.0412844 Z M0,0.0206422 L0,0.9793578 L0,1 L0.004188,1 L0.995812,1 L1,1 L1,0.9793578 L1,0.0206422 L1,0 L0.995812,0 L0.004188,0 L0,0 L0,0.0206422 Z" style="fill:rgb(255,255,255);stroke:none" />
</g>
<g transform="matrix(17.302991452993076 0 0 17.416672472205555 2.4553418803419227 5.805549749994444) ">
<clipPath id="clip1"><path d="M-0.0263158,-0.3333329 L6.8157895,-0.3333329 L6.8157895,1 L-0.0263158,1 L-0.0263158,-0.3333329 Z" /></clipPath>
<path d="M0,0 L1,0 L1,1 L0,1 L0,0 Z" style="fill:rgb(51,102,204);stroke:none" clip-path="url(#clip1)" />
</g>
<g transform="matrix(17.302991452993073 0 0 17.416672472205555 20.669017094018844 5.805549749994444) ">
<clipPath id="clip2"><path d="M-1.0789474,-0.3333329 L5.7631579,-0.3333329 L5.7631579,1 L-1.0789474,1 L-1.0789474,-0.3333329 Z" /></clipPath>
<path d="M0,0 L1,0 L1,1 L0,1 L0,0 Z" style="fill:rgb(51,102,204);stroke:none" clip-path="url(#clip2)" />
</g>
<g transform="matrix(17.302991452993076 0 0 1.4338490341375163 38.88269230769577 21.788373188062483) ">
<clipPath id="clip3"><path d="M-2.1315789,-15.1957233 L4.7105263,-15.1957233 L4.7105263,1 L-2.1315789,1 L-2.1315789,-15.1957233 Z" /></clipPath>
<path d="M0,0 L1,0 L1,1 L0,1 L0,0 Z" style="fill:rgb(51,102,204);stroke:none" clip-path="url(#clip3)" />
</g>
<g transform="matrix(17.302991452993076 0 0 0.17494761838872108 57.096367521372684 23.047274603811278) ">
<clipPath id="clip4"><path d="M-3.1842105,-131.7381443 L3.6578947,-131.7381443 L3.6578947,1 L-3.1842105,1 L-3.1842105,-131.7381443 Z" /></clipPath>
<path d="M0,0 L1,0 L1,1 L0,1 L0,0 Z" style="fill:rgb(51,102,204);stroke:none" clip-path="url(#clip4)" />
</g>
<g transform="matrix(17.30299145299307 0 0 0.023446583722201098 75.31004273504962 23.198775638477798) ">
<clipPath id="clip5"><path d="M-4.2368421,-989.4309514 L2.6052632,-989.4309514 L2.6052632,1 L-4.2368421,1 L-4.2368421,-989.4309514 Z" /></clipPath>
<path d="M0,0 L1,0 L1,1 L0,1 L0,0 Z" style="fill:rgb(51,102,204);stroke:none" clip-path="url(#clip5)" />
</g>
<g transform="matrix(17.30299145299307 0 0 0.010821497499989619 93.52371794872654 23.21140072470001) ">
<clipPath id="clip6"><path d="M-5.2894737,-2144.9342593 L1.5526316,-2144.9342593 L1.5526316,1 L-5.2894737,1 L-5.2894737,-2144.9342593 Z" /></clipPath>
<path d="M0,0 L1,0 L1,1 L0,1 L0,0 Z" style="fill:rgb(51,102,204);stroke:none" clip-path="url(#clip6)" />
</g>
<g transform="matrix(7.7219996601343155 0 0 2.2289998531341553 7.245837776771303 2.891049823427367) ">
<clipPath id="clip7"><path d="M-0.6793367,-1.2970166 L14.6520404,-1.2970166 L14.6520404,9.1212085 L-0.6793367,9.1212085 L-0.6793367,-1.2970166 Z" /></clipPath>
<path d="M0.7459207,0.0915208 Q0.7571872,0.0915208 0.7635975,0.1110363 Q0.7700078,0.1305518 0.7735043,0.1594885 Q0.7770008,0.1884252 0.777972,0.2227456 Q0.7789433,0.2570659 0.7789433,0.2866756 Q0.7789433,0.3176312 0.7777778,0.3526245 Q0.7766123,0.3876177 0.7729215,0.4165545 Q0.7692308,0.4454912 0.7626262,0.4643337 Q0.7560218,0.4831763 0.7447552,0.4831763 Q0.7338772,0.4831763 0.727467,0.4636608 Q0.7210567,0.4441453 0.7175602,0.4152086 Q0.7140637,0.3862719 0.7130925,0.3519515 Q0.7121212,0.3176312 0.7121212,0.2880215 Q0.7121212,0.2570659 0.7132867,0.2227456 Q0.7144522,0.1884252 0.718143,0.1594885 Q0.7218337,0.1305518 0.7284382,0.1110363 Q0.7350427,0.0915208 0.7459207,0.0915208 Z M0.7459207,0.0174965 Q0.7280497,0.0174965 0.7160062,0.0397038 Q0.7039627,0.0619111 0.6965812,0.0995962 Q0.6891997,0.1372812 0.6860917,0.1864064 Q0.6829837,0.2355316 0.6829837,0.2907133 Q0.6829837,0.345895 0.6862859,0.3943472 Q0.6895882,0.4427994 0.6969697,0.4791386 Q0.7043512,0.5154778 0.7163947,0.5363392 Q0.7284382,0.5572005 0.7459207,0.5572005 Q0.7630148,0.5572005 0.7746698,0.5343203 Q0.7863248,0.5114401 0.7939006,0.474428 Q0.8014763,0.4374159 0.8047785,0.3882907 Q0.8080808,0.3391655 0.8080808,0.2866756 Q0.8080808,0.2314939 0.8051671,0.1823687 Q0.8022533,0.1332436 0.795066,0.0969044 Q0.7878788,0.0605653 0.7760295,0.0390309 Q0.7641802,0.0174965 0.7459207,0.0174965 Z M0.5392386,0.1184387 Q0.5532246,0.1184387 0.5629371,0.1372812 Q0.5726496,0.1561238 0.5790598,0.1864064 Q0.5854701,0.2166891 0.5887723,0.2570659 Q0.5920746,0.2974428 0.5938228,0.3398385 Q0.5955711,0.3822342 0.5957654,0.4246299 Q0.5959596,0.4670256 0.5959596,0.5020188 Q0.5959596,0.5558546 0.5949884,0.6224764 Q0.5940171,0.6890982 0.5887723,0.7476447 Q0.5835276,0.8061911 0.5718726,0.846568 Q0.5602176,0.8869449 0.5392386,0.8869449 Q0.5182595,0.8869449 0.5066045,0.846568 Q0.4949495,0.8061911 0.4897047,0.7476447 Q0.48446,0.6890982 0.4834888,0.6224764 Q0.4825175,0.5558546 0.4825175,0.5020188 Q0.4825175,0.4670256 0.4827118,0.4246299 Q0.482906,0.3822342 0.4846542,0.3398385 Q0.4864025,0.2974428 0.4897047,0.2570659 Q0.493007,0.2166891 0.4994173,0.1864064 Q0.5058275,0.1561238 0.51554,0.1372812 Q0.5252525,0.1184387 0.5392386,0.1184387 Z M0.9378399,0.5222073 Q0.9491064,0.5222073 0.9555167,0.5417227 Q0.9619269,0.5612382 0.9654234,0.5901749 Q0.96892,0.6191117 0.9698912,0.653432 Q0.9708625,0.6877524 0.9708625,0.7173621 Q0.9708625,0.7483177 0.9696969,0.7833109 Q0.9685315,0.8183042 0.9648407,0.847241 Q0.9611499,0.8761776 0.9545455,0.8950202 Q0.947941,0.9138628 0.9366745,0.9138628 Q0.9257964,0.9138628 0.9193862,0.8943473 Q0.9129759,0.8748317 0.9094794,0.8458951 Q0.9059829,0.8169583 0.9050117,0.782638 Q0.9040404,0.7483177 0.9040404,0.7187079 Q0.9040404,0.6877524 0.9052059,0.653432 Q0.9063714,0.6191117 0.9100622,0.5901749 Q0.9137529,0.5612382 0.9203574,0.5417227 Q0.9269619,0.5222073 0.9378399,0.5222073 Z M0,0.2799461 L0,0.371467 L0.1651127,0.6312247 L0,0.8909825 L0,0.9811574 L0.1973582,0.6729476 L0.1973582,0.589502 L0,0.2799461 Z M0.3177933,0.0174965 Q0.2972028,0.0174965 0.2814686,0.0403768 Q0.2657343,0.063257 0.2552448,0.1036339 Q0.2447553,0.1440107 0.239122,0.2005383 Q0.2334888,0.2570659 0.2327118,0.3257065 L0.2657343,0.3257065 Q0.2657343,0.2839838 0.2688423,0.2462988 Q0.2719503,0.2086137 0.2783606,0.1803499 Q0.2847708,0.1520861 0.2946776,0.1352624 Q0.3045843,0.1184387 0.3177933,0.1184387 Q0.3387724,0.1184387 0.3527584,0.1567968 Q0.3667444,0.1951548 0.3667444,0.2718708 Q0.3667444,0.3095558 0.3624709,0.3391655 Q0.3581974,0.3687752 0.3510101,0.3882907 Q0.3438229,0.4078062 0.3343046,0.4179004 Q0.3247864,0.4279946 0.3142968,0.4279946 L0.3034188,0.4279946 Q0.3018648,0.4279946 0.2999223,0.4266487 L0.2999223,0.5235531 Q0.3092463,0.5195155 0.3197358,0.5195155 Q0.3321679,0.5195155 0.3428516,0.5309555 Q0.3535354,0.5423957 0.3613054,0.5659488 Q0.3690754,0.589502 0.3737374,0.6238223 Q0.3783994,0.6581427 0.3783994,0.7025572 Q0.3783994,0.7456259 0.3735431,0.7799462 Q0.3686869,0.8142665 0.3605284,0.8378196 Q0.3523699,0.8613728 0.3414919,0.8741588 Q0.3306138,0.8869449 0.3185703,0.8869449 Q0.2902098,0.8869449 0.2754468,0.8283984 Q0.2606838,0.7698519 0.2599068,0.6769852 L0.2268843,0.6769852 Q0.2264957,0.7510094 0.232906,0.8088829 Q0.2393163,0.8667564 0.2513598,0.9064603 Q0.2634033,0.9461642 0.2804973,0.9663526 Q0.2975913,0.9865411 0.3185703,0.9865411 Q0.3379954,0.9865411 0.3552836,0.9683715 Q0.3725719,0.9502019 0.3853924,0.9138628 Q0.3982129,0.8775235 0.4057887,0.8230148 Q0.4133645,0.768506 0.4133645,0.6971736 Q0.4133645,0.6110364 0.4011267,0.5477793 Q0.3888889,0.4845222 0.3636364,0.4656796 L0.3636364,0.4629879 Q0.3799534,0.4374159 0.3908314,0.3876177 Q0.4017094,0.3378196 0.4017094,0.2732166 Q0.4017094,0.2072678 0.3952992,0.1588156 Q0.3888889,0.1103634 0.3776224,0.0794078 Q0.3663559,0.0484521 0.3510101,0.0329744 Q0.3356644,0.0174965 0.3177933,0.0174965 Z M0.5392386,0.0174965 Q0.5178711,0.0174965 0.5025253,0.0390309 Q0.4871795,0.0605653 0.4770785,0.0969044 Q0.4669775,0.1332436 0.46115,0.1816958 Q0.4553225,0.230148 0.4522145,0.2839838 Q0.4491065,0.3378196 0.4483295,0.3943472 Q0.4475524,0.4508748 0.4475524,0.5033647 Q0.4475524,0.5558546 0.4483295,0.6123822 Q0.4491065,0.6689098 0.4522145,0.7227456 Q0.4553225,0.7765815 0.46115,0.8243607 Q0.4669775,0.8721399 0.4770785,0.9084791 Q0.4871795,0.9448183 0.5025253,0.9656797 Q0.5178711,0.9865411 0.5392386,0.9865411 Q0.5609946,0.9865411 0.5761461,0.9656797 Q0.5912976,0.9448183 0.6013986,0.9084791 Q0.6114997,0.8721399 0.6173271,0.8243607 Q0.6231546,0.7765815 0.6262627,0.7227456 Q0.6293707,0.6689098 0.6301476,0.6123822 Q0.6309246,0.5558546 0.6309246,0.5033647 Q0.6309246,0.4508748 0.6301476,0.3943472 Q0.6293707,0.3378196 0.6262627,0.2839838 Q0.6231546,0.230148 0.6173271,0.1816958 Q0.6114997,0.1332436 0.6013986,0.0969044 Q0.5912976,0.0605653 0.5759518,0.0390309 Q0.5606061,0.0174965 0.5392386,0.0174965 Z M0.9378399,0.448183 Q0.9199689,0.448183 0.9079254,0.4703903 Q0.8958819,0.4925976 0.8885004,0.5302826 Q0.8811189,0.5679677 0.8780109,0.6170929 Q0.8749029,0.666218 0.8749029,0.7213997 Q0.8749029,0.7765815 0.8782052,0.8250337 Q0.8815074,0.8734858 0.8888889,0.9091521 Q0.8962704,0.9448183 0.9083139,0.9656797 Q0.9203574,0.9865411 0.9378399,0.9865411 Q0.9549339,0.9865411 0.966589,0.9643338 Q0.978244,0.9421265 0.9858197,0.9051144 Q0.9933955,0.8681023 0.9966978,0.8189772 Q1,0.7698519 1,0.7173621 Q1,0.6621803 0.9970862,0.6130552 Q0.9941725,0.56393 0.9869852,0.5275908 Q0.979798,0.4912517 0.9679487,0.4697174 Q0.9560995,0.448183 0.9378399,0.448183 Z M0.9292929,0 L0.7202797,1 L0.7536907,1 L0.9623155,0 Z" style="fill:rgb(0,0,0);stroke:none" clip-path="url(#clip7)" />
</g>
<g transform="matrix(7.7219996601343155 0 0 2.2289998531341553 25.459512990448225 2.891049823427367) ">
<clipPath id="clip8"><path d="M-3.0380101,-1.2970166 L12.293367,-1.2970166 L12.293367,9.1212085 L-3.0380101,9.1212085 L-3.0380101,-1.2970166 Z" /></clipPath>
<path d="M0.7459207,0.0915208 Q0.7571872,0.0915208 0.7635975,0.1110363 Q0.7700078,0.1305518 0.7735043,0.1594885 Q0.7770008,0.1884252 0.777972,0.2227456 Q0.7789433,0.2570659 0.7789433,0.2866756 Q0.7789433,0.3176312 0.7777778,0.3526245 Q0.7766123,0.3876177 0.7729215,0.4165545 Q0.7692308,0.4454912 0.7626262,0.4643337 Q0.7560218,0.4831763 0.7447552,0.4831763 Q0.7338772,0.4831763 0.727467,0.4636608 Q0.7210567,0.4441453 0.7175602,0.4152086 Q0.7140637,0.3862719 0.7130925,0.3519515 Q0.7121212,0.3176312 0.7121212,0.2880215 Q0.7121212,0.2570659 0.7132867,0.2227456 Q0.7144522,0.1884252 0.718143,0.1594885 Q0.7218337,0.1305518 0.7284382,0.1110363 Q0.7350427,0.0915208 0.7459207,0.0915208 Z M0.7459207,0.0174965 Q0.7280497,0.0174965 0.7160062,0.0397038 Q0.7039627,0.0619111 0.6965812,0.0995962 Q0.6891997,0.1372812 0.6860917,0.1864064 Q0.6829837,0.2355316 0.6829837,0.2907133 Q0.6829837,0.345895 0.6862859,0.3943472 Q0.6895882,0.4427994 0.6969697,0.4791386 Q0.7043512,0.5154778 0.7163947,0.5363392 Q0.7284382,0.5572005 0.7459207,0.5572005 Q0.7630148,0.5572005 0.7746698,0.5343203 Q0.7863248,0.5114401 0.7939006,0.474428 Q0.8014763,0.4374159 0.8047785,0.3882907 Q0.8080808,0.3391655 0.8080808,0.2866756 Q0.8080808,0.2314939 0.8051671,0.1823687 Q0.8022533,0.1332436 0.795066,0.0969044 Q0.7878788,0.0605653 0.7760295,0.0390309 Q0.7641802,0.0174965 0.7459207,0.0174965 Z M0.5392386,0.1184387 Q0.5532246,0.1184387 0.5629371,0.1372812 Q0.5726496,0.1561238 0.5790598,0.1864064 Q0.5854701,0.2166891 0.5887723,0.2570659 Q0.5920746,0.2974428 0.5938228,0.3398385 Q0.5955711,0.3822342 0.5957654,0.4246299 Q0.5959596,0.4670256 0.5959596,0.5020188 Q0.5959596,0.5558546 0.5949884,0.6224764 Q0.5940171,0.6890982 0.5887723,0.7476447 Q0.5835276,0.8061911 0.5718726,0.846568 Q0.5602176,0.8869449 0.5392386,0.8869449 Q0.5182595,0.8869449 0.5066045,0.846568 Q0.4949495,0.8061911 0.4897047,0.7476447 Q0.48446,0.6890982 0.4834888,0.6224764 Q0.4825175,0.5558546 0.4825175,0.5020188 Q0.4825175,0.4670256 0.4827118,0.4246299 Q0.482906,0.3822342 0.4846542,0.3398385 Q0.4864025,0.2974428 0.4897047,0.2570659 Q0.493007,0.2166891 0.4994173,0.1864064 Q0.5058275,0.1561238 0.51554,0.1372812 Q0.5252525,0.1184387 0.5392386,0.1184387 Z M0.9378399,0.5222073 Q0.9491064,0.5222073 0.9555167,0.5417227 Q0.9619269,0.5612382 0.9654234,0.5901749 Q0.96892,0.6191117 0.9698912,0.653432 Q0.9708625,0.6877524 0.9708625,0.7173621 Q0.9708625,0.7483177 0.9696969,0.7833109 Q0.9685315,0.8183042 0.9648407,0.847241 Q0.9611499,0.8761776 0.9545455,0.8950202 Q0.947941,0.9138628 0.9366745,0.9138628 Q0.9257964,0.9138628 0.9193862,0.8943473 Q0.9129759,0.8748317 0.9094794,0.8458951 Q0.9059829,0.8169583 0.9050117,0.782638 Q0.9040404,0.7483177 0.9040404,0.7187079 Q0.9040404,0.6877524 0.9052059,0.653432 Q0.9063714,0.6191117 0.9100622,0.5901749 Q0.9137529,0.5612382 0.9203574,0.5417227 Q0.9269619,0.5222073 0.9378399,0.5222073 Z M0,0.2799461 L0,0.371467 L0.1651127,0.6312247 L0,0.8909825 L0,0.9811574 L0.1973582,0.6729476 L0.1973582,0.589502 L0,0.2799461 Z M0.3177933,0.0174965 Q0.2972028,0.0174965 0.2814686,0.0403768 Q0.2657343,0.063257 0.2552448,0.1036339 Q0.2447553,0.1440107 0.239122,0.2005383 Q0.2334888,0.2570659 0.2327118,0.3257065 L0.2657343,0.3257065 Q0.2657343,0.2839838 0.2688423,0.2462988 Q0.2719503,0.2086137 0.2783606,0.1803499 Q0.2847708,0.1520861 0.2946776,0.1352624 Q0.3045843,0.1184387 0.3177933,0.1184387 Q0.3387724,0.1184387 0.3527584,0.1567968 Q0.3667444,0.1951548 0.3667444,0.2718708 Q0.3667444,0.3095558 0.3624709,0.3391655 Q0.3581974,0.3687752 0.3510101,0.3882907 Q0.3438229,0.4078062 0.3343046,0.4179004 Q0.3247864,0.4279946 0.3142968,0.4279946 L0.3034188,0.4279946 Q0.3018648,0.4279946 0.2999223,0.4266487 L0.2999223,0.5235531 Q0.3092463,0.5195155 0.3197358,0.5195155 Q0.3321679,0.5195155 0.3428516,0.5309555 Q0.3535354,0.5423957 0.3613054,0.5659488 Q0.3690754,0.589502 0.3737374,0.6238223 Q0.3783994,0.6581427 0.3783994,0.7025572 Q0.3783994,0.7456259 0.3735431,0.7799462 Q0.3686869,0.8142665 0.3605284,0.8378196 Q0.3523699,0.8613728 0.3414919,0.8741588 Q0.3306138,0.8869449 0.3185703,0.8869449 Q0.2902098,0.8869449 0.2754468,0.8283984 Q0.2606838,0.7698519 0.2599068,0.6769852 L0.2268843,0.6769852 Q0.2264957,0.7510094 0.232906,0.8088829 Q0.2393163,0.8667564 0.2513598,0.9064603 Q0.2634033,0.9461642 0.2804973,0.9663526 Q0.2975913,0.9865411 0.3185703,0.9865411 Q0.3379954,0.9865411 0.3552836,0.9683715 Q0.3725719,0.9502019 0.3853924,0.9138628 Q0.3982129,0.8775235 0.4057887,0.8230148 Q0.4133645,0.768506 0.4133645,0.6971736 Q0.4133645,0.6110364 0.4011267,0.5477793 Q0.3888889,0.4845222 0.3636364,0.4656796 L0.3636364,0.4629879 Q0.3799534,0.4374159 0.3908314,0.3876177 Q0.4017094,0.3378196 0.4017094,0.2732166 Q0.4017094,0.2072678 0.3952992,0.1588156 Q0.3888889,0.1103634 0.3776224,0.0794078 Q0.3663559,0.0484521 0.3510101,0.0329744 Q0.3356644,0.0174965 0.3177933,0.0174965 Z M0.5392386,0.0174965 Q0.5178711,0.0174965 0.5025253,0.0390309 Q0.4871795,0.0605653 0.4770785,0.0969044 Q0.4669775,0.1332436 0.46115,0.1816958 Q0.4553225,0.230148 0.4522145,0.2839838 Q0.4491065,0.3378196 0.4483295,0.3943472 Q0.4475524,0.4508748 0.4475524,0.5033647 Q0.4475524,0.5558546 0.4483295,0.6123822 Q0.4491065,0.6689098 0.4522145,0.7227456 Q0.4553225,0.7765815 0.46115,0.8243607 Q0.4669775,0.8721399 0.4770785,0.9084791 Q0.4871795,0.9448183 0.5025253,0.9656797 Q0.5178711,0.9865411 0.5392386,0.9865411 Q0.5609946,0.9865411 0.5761461,0.9656797 Q0.5912976,0.9448183 0.6013986,0.9084791 Q0.6114997,0.8721399 0.6173271,0.8243607 Q0.6231546,0.7765815 0.6262627,0.7227456 Q0.6293707,0.6689098 0.6301476,0.6123822 Q0.6309246,0.5558546 0.6309246,0.5033647 Q0.6309246,0.4508748 0.6301476,0.3943472 Q0.6293707,0.3378196 0.6262627,0.2839838 Q0.6231546,0.230148 0.6173271,0.1816958 Q0.6114997,0.1332436 0.6013986,0.0969044 Q0.5912976,0.0605653 0.5759518,0.0390309 Q0.5606061,0.0174965 0.5392386,0.0174965 Z M0.9378399,0.448183 Q0.9199689,0.448183 0.9079254,0.4703903 Q0.8958819,0.4925976 0.8885004,0.5302826 Q0.8811189,0.5679677 0.8780109,0.6170929 Q0.8749029,0.666218 0.8749029,0.7213997 Q0.8749029,0.7765815 0.8782052,0.8250337 Q0.8815074,0.8734858 0.8888889,0.9091521 Q0.8962704,0.9448183 0.9083139,0.9656797 Q0.9203574,0.9865411 0.9378399,0.9865411 Q0.9549339,0.9865411 0.966589,0.9643338 Q0.978244,0.9421265 0.9858197,0.9051144 Q0.9933955,0.8681023 0.9966978,0.8189772 Q1,0.7698519 1,0.7173621 Q1,0.6621803 0.9970862,0.6130552 Q0.9941725,0.56393 0.9869852,0.5275908 Q0.979798,0.4912517 0.9679487,0.4697174 Q0.9560995,0.448183 0.9378399,0.448183 Z M0.9292929,0 L0.7202797,1 L0.7536907,1 L0.9623155,0 Z" style="fill:rgb(0,0,0);stroke:none" clip-path="url(#clip8)" />
</g>
<g transform="matrix(4.320000201463699 0 0 2.2289998531341553 45.37418793346046 18.873873261495405) ">
<clipPath id="clip9"><path d="M-10.0403208,-8.4674179 L17.3645133,-8.4674179 L17.3645133,1.9508072 L-10.0403208,1.9508072 L-10.0403208,-8.4674179 Z" /></clipPath>
<path d="M0.5458333,0.0915208 Q0.5659722,0.0915208 0.5774305,0.1110363 Q0.5888888,0.1305518 0.5951388,0.1594885 Q0.6013889,0.1884252 0.603125,0.2227456 Q0.6048611,0.2570659 0.6048611,0.2866756 Q0.6048611,0.3176312 0.6027777,0.3526245 Q0.6006944,0.3876177 0.5940972,0.4165545 Q0.5874999,0.4454912 0.5756944,0.4643337 Q0.5638888,0.4831763 0.54375,0.4831763 Q0.5243055,0.4831763 0.5128472,0.4636608 Q0.5013888,0.4441453 0.4951389,0.4152086 Q0.4888889,0.3862719 0.4871528,0.3519515 Q0.4854166,0.3176312 0.4854166,0.2880215 Q0.4854166,0.2570659 0.4875,0.2227456 Q0.4895833,0.1884252 0.4961805,0.1594885 Q0.5027777,0.1305518 0.5145833,0.1110363 Q0.5263889,0.0915208 0.5458333,0.0915208 Z M0.5458333,0.0174965 Q0.5138889,0.0174965 0.4923611,0.0397038 Q0.4708333,0.0619111 0.4576389,0.0995962 Q0.4444444,0.1372812 0.4388889,0.1864064 Q0.4333333,0.2355316 0.4333333,0.2907133 Q0.4333333,0.345895 0.4392361,0.3943472 Q0.4451389,0.4427994 0.4583333,0.4791386 Q0.4715277,0.5154778 0.4930555,0.5363392 Q0.5145833,0.5572005 0.5458333,0.5572005 Q0.5763889,0.5572005 0.5972222,0.5343203 Q0.6180555,0.5114401 0.6315972,0.474428 Q0.6451389,0.4374159 0.6510416,0.3882907 Q0.6569444,0.3391655 0.6569444,0.2866756 Q0.6569444,0.2314939 0.6517361,0.1823687 Q0.6465278,0.1332436 0.6336805,0.0969044 Q0.6208333,0.0605653 0.5996527,0.0390309 Q0.5784722,0.0174965 0.5458333,0.0174965 Z M0.8888888,0.5222073 Q0.9090278,0.5222073 0.9204861,0.5417227 Q0.9319444,0.5612382 0.9381944,0.5901749 Q0.9444444,0.6191117 0.9461805,0.653432 Q0.9479166,0.6877524 0.9479166,0.7173621 Q0.9479166,0.7483177 0.9458333,0.7833109 Q0.94375,0.8183042 0.9371528,0.847241 Q0.9305555,0.8761776 0.9187499,0.8950202 Q0.9069444,0.9138628 0.8868055,0.9138628 Q0.8673611,0.9138628 0.8559027,0.8943473 Q0.8444444,0.8748317 0.8381944,0.8458951 Q0.8319444,0.8169583 0.8302083,0.782638 Q0.8284722,0.7483177 0.8284722,0.7187079 Q0.8284722,0.6877524 0.8305555,0.653432 Q0.8326388,0.6191117 0.8392361,0.5901749 Q0.8458333,0.5612382 0.8576388,0.5417227 Q0.8694444,0.5222073 0.8888888,0.5222073 Z M0.1722222,0.0174965 Q0.1333333,0.0174965 0.1027778,0.0430686 Q0.0722222,0.0686406 0.0517361,0.1137281 Q0.03125,0.1588156 0.0215278,0.2207267 Q0.0118056,0.2826379 0.0138889,0.3553163 L0.0729167,0.3553163 Q0.0722222,0.3122476 0.0774306,0.2698519 Q0.0826389,0.2274562 0.0944444,0.1938089 Q0.10625,0.1601615 0.1246528,0.1393001 Q0.1430555,0.1184387 0.16875,0.1184387 Q0.1881944,0.1184387 0.2055555,0.1305518 Q0.2229166,0.1426648 0.2357639,0.165545 Q0.2486111,0.1884252 0.25625,0.2200538 Q0.2638889,0.2516823 0.2638889,0.2907133 Q0.2638889,0.3405114 0.2559028,0.3781965 Q0.2479167,0.4158816 0.2322917,0.448183 Q0.2166667,0.4804845 0.1930556,0.512113 Q0.1694444,0.5437416 0.1381944,0.5814266 Q0.1125,0.6110364 0.0888889,0.6446837 Q0.0652778,0.6783311 0.0465278,0.7227456 Q0.0277778,0.7671601 0.015625,0.8270525 Q0.0034722,0.8869449 0,0.9717362 L0.3215278,0.9717362 L0.3215278,0.8707941 L0.06875,0.8707941 Q0.0729167,0.8263796 0.0864583,0.7920592 Q0.1,0.7577389 0.1190972,0.7281292 Q0.1381944,0.6985195 0.1611111,0.6722745 Q0.1840278,0.6460296 0.2069444,0.6191117 Q0.2298611,0.5908479 0.2513889,0.5598923 Q0.2729167,0.5289367 0.2895833,0.4905787 Q0.30625,0.4522207 0.3163194,0.4037685 Q0.3263889,0.3553163 0.3263889,0.2920592 Q0.3263889,0.2247645 0.3142361,0.1736204 Q0.3020833,0.1224764 0.28125,0.0881561 Q0.2604167,0.0538358 0.2322917,0.0356662 Q0.2041667,0.0174965 0.1722222,0.0174965 Z M0.8888888,0.448183 Q0.8569444,0.448183 0.8354166,0.4703903 Q0.8138889,0.4925976 0.8006944,0.5302826 Q0.7875,0.5679677 0.7819444,0.6170929 Q0.7763888,0.666218 0.7763888,0.7213997 Q0.7763888,0.7765815 0.7822916,0.8250337 Q0.7881944,0.8734858 0.8013888,0.9091521 Q0.8145833,0.9448183 0.8361111,0.9656797 Q0.8576388,0.9865411 0.8888888,0.9865411 Q0.9194444,0.9865411 0.9402777,0.9643338 Q0.9611111,0.9421265 0.9746527,0.9051144 Q0.9881944,0.8681023 0.9940972,0.8189772 Q1,0.7698519 1,0.7173621 Q1,0.6621803 0.9947917,0.6130552 Q0.9895833,0.56393 0.9767361,0.5275908 Q0.9638889,0.4912517 0.9427082,0.4697174 Q0.9215277,0.448183 0.8888888,0.448183 Z M0.8736111,0 L0.4999999,1 L0.5597222,1 L0.9326388,0 Z" style="fill:rgb(0,0,0);stroke:none" clip-path="url(#clip9)" />
</g>
<g transform="matrix(118.58888244628906 0 0 0.20000000298023224 1.8999999985098839 23.122222220709883) ">
<path d="M0.0008432,1 L0.9991568,1 L1,1 L1,0 L0.9991568,0 L0.0008432,0 L0,0 L0,1 L0.0008432,1 Z" style="fill:rgb(192,192,192);stroke:none" />
</g>
<g transform="matrix(0 0 0 3 2 21.7222222222) ">
<path d="MNaN,0 LNaN,1 LNaN,1 LNaN,1 LNaN,1 LNaN,0 LNaN,0 LNaN,0 LNaN,0 Z" style="fill:rgb(0,0,0);stroke:none" />
</g>
<g transform="matrix(3.0989999026060104 0 0 2.174999952316284 0.4505000486969948 25.434722246041858) ">
<path d="M0.2284608,0.1103448 Q0.2633107,0.1103448 0.2875121,0.1296552 Q0.3117135,0.1489655 0.3276864,0.18 Q0.3436593,0.2110345 0.3518877,0.2524138 Q0.3601162,0.2937931 0.3644724,0.3372414 Q0.3688287,0.3806896 0.3693127,0.4241379 Q0.3697967,0.4675862 0.3697967,0.5034482 Q0.3697967,0.5586207 0.3673766,0.6268965 Q0.3649564,0.6951724 0.3518877,0.7551724 Q0.338819,0.8151724 0.3097773,0.8565517 Q0.2807357,0.8979311 0.2284608,0.8979311 Q0.1761859,0.8979311 0.1471442,0.8565517 Q0.1181026,0.8151724 0.1050339,0.7551724 Q0.0919652,0.6951724 0.089545,0.6268965 Q0.0871249,0.5586207 0.0871249,0.5034482 Q0.0871249,0.4675862 0.0876089,0.4241379 Q0.0880929,0.3806896 0.0924492,0.3372414 Q0.0968054,0.2937931 0.1050339,0.2524138 Q0.1132623,0.2110345 0.1292352,0.18 Q0.1452081,0.1489655 0.1694095,0.1296552 Q0.1936109,0.1103448 0.2284608,0.1103448 Z M0.5643756,0 L0.5643756,0.9848276 L0.6466602,0.9848276 L0.6466602,0.7144827 L0.7241045,0.6124138 L0.8954502,0.9848276 L1,0.9848276 L0.7870281,0.5310345 L0.9854792,0.2717241 L0.8751211,0.2717241 L0.6466602,0.5834483 L0.6466602,0 Z M0.2284608,0.0068965 Q0.1752178,0.0068965 0.1369797,0.0289655 Q0.0987415,0.0510345 0.0735721,0.0882758 Q0.0484027,0.1255172 0.0338819,0.1751724 Q0.0193611,0.2248276 0.0116167,0.28 Q0.0038722,0.3351724 0.0019361,0.3931035 Q0,0.4510345 0,0.5048276 Q0,0.5586207 0.0019361,0.6165517 Q0.0038722,0.6744828 0.0116167,0.7296551 Q0.0193611,0.7848276 0.0338819,0.8337931 Q0.0484027,0.8827586 0.0735721,0.92 Q0.0987415,0.9572414 0.1369797,0.9786207 Q0.1752178,1 0.2284608,1 Q0.2826718,1 0.3204259,0.9786207 Q0.35818,0.9572414 0.3833495,0.92 Q0.4085189,0.8827586 0.4230397,0.8337931 Q0.4375605,0.7848276 0.445305,0.7296551 Q0.4530494,0.6744828 0.4549855,0.6165517 Q0.4569216,0.5586207 0.4569216,0.5048276 Q0.4569216,0.4510345 0.4549855,0.3931035 Q0.4530494,0.3351724 0.445305,0.28 Q0.4375605,0.2248276 0.4230397,0.1751724 Q0.4085189,0.1255172 0.3833495,0.0882758 Q0.35818,0.0510345 0.3199419,0.0289655 Q0.2817038,0.0068965 0.2284608,0.0068965 Z" style="fill:rgb(0,0,0);stroke:none" />
</g>
<g transform="matrix(0 0 0 3 20.213674545288086 21.7222222222) ">
<path d="MNaN,0 LNaN,1 LNaN,1 LNaN,1 LNaN,1 LNaN,0 LNaN,0 LNaN,0 LNaN,0 Z" style="fill:rgb(0,0,0);stroke:none" />
</g>
<g transform="matrix(4.632000118494034 0 0 2.174999952316284 17.89767515442991 25.434722246041858) ">
<path d="M0.4838083,0.1103448 Q0.5071243,0.1103448 0.523316,0.1296552 Q0.5395078,0.1489655 0.5501943,0.18 Q0.5608808,0.2110345 0.566386,0.2524138 Q0.5718912,0.2937931 0.5748057,0.3372414 Q0.5777202,0.3806896 0.578044,0.4241379 Q0.5783679,0.4675862 0.5783679,0.5034482 Q0.5783679,0.5586207 0.5767487,0.6268965 Q0.5751295,0.6951724 0.566386,0.7551724 Q0.5576425,0.8151724 0.5382124,0.8565517 Q0.5187824,0.8979311 0.4838083,0.8979311 Q0.4488342,0.8979311 0.4294041,0.8565517 Q0.4099741,0.8151724 0.4012305,0.7551724 Q0.392487,0.6951724 0.3908679,0.6268965 Q0.3892487,0.5586207 0.3892487,0.5034482 Q0.3892487,0.4675862 0.3895725,0.4241379 Q0.3898963,0.3806896 0.3928108,0.3372414 Q0.3957254,0.2937931 0.4012305,0.2524138 Q0.4067357,0.2110345 0.4174223,0.18 Q0.4281088,0.1489655 0.4443005,0.1296552 Q0.4604922,0.1103448 0.4838083,0.1103448 Z M0.1321244,0.0068965 Q0.1275907,0.062069 0.115285,0.097931 Q0.1029793,0.1337931 0.0851684,0.1544827 Q0.0673575,0.1751724 0.0453368,0.1827586 Q0.0233161,0.1903448 0,0.1903448 L0,0.2841379 L0.119171,0.2841379 L0.119171,0.9848276 L0.1742228,0.9848276 L0.1742228,0.0068965 Z M0.7085492,0 L0.7085492,0.9848276 L0.763601,0.9848276 L0.763601,0.7144827 L0.8154145,0.6124138 L0.9300517,0.9848276 L1,0.9848276 L0.8575129,0.5310345 L0.990285,0.2717241 L0.9164508,0.2717241 L0.763601,0.5834483 L0.763601,0 Z M0.4838083,0.0068965 Q0.4481865,0.0068965 0.4226036,0.0289655 Q0.3970207,0.0510345 0.3801814,0.0882758 Q0.363342,0.1255172 0.3536269,0.1751724 Q0.3439119,0.2248276 0.3387305,0.28 Q0.3335492,0.3351724 0.3322539,0.3931035 Q0.3309585,0.4510345 0.3309585,0.5048276 Q0.3309585,0.5586207 0.3322539,0.6165517 Q0.3335492,0.6744828 0.3387305,0.7296551 Q0.3439119,0.7848276 0.3536269,0.8337931 Q0.363342,0.8827586 0.3801814,0.92 Q0.3970207,0.9572414 0.4226036,0.9786207 Q0.4481865,1 0.4838083,1 Q0.5200777,1 0.5453368,0.9786207 Q0.5705958,0.9572414 0.5874352,0.92 Q0.6042746,0.8827586 0.6139896,0.8337931 Q0.6237047,0.7848276 0.628886,0.7296551 Q0.6340673,0.6744828 0.6353627,0.6165517 Q0.636658,0.5586207 0.636658,0.5048276 Q0.636658,0.4510345 0.6353627,0.3931035 Q0.6340673,0.3351724 0.628886,0.28 Q0.6237047,0.2248276 0.6139896,0.1751724 Q0.6042746,0.1255172 0.5874352,0.0882758 Q0.5705958,0.0510345 0.5450129,0.0289655 Q0.51943,0.0068965 0.4838083,0.0068965 Z" style="fill:rgb(0,0,0);stroke:none" />
</g>
<g transform="matrix(0 0 0 3 38.42734909057617 21.7222222222) ">
<path d="MNaN,0 LNaN,1 LNaN,1 LNaN,1 LNaN,1 LNaN,0 LNaN,0 LNaN,0 LNaN,0 Z" style="fill:rgb(0,0,0);stroke:none" />
</g>
<g transform="matrix(4.821000128984451 0 0 2.174999952316284 36.016850362861625 25.434722246041858) ">
<path d="M0.5040448,0.1103448 Q0.5264468,0.1103448 0.5420037,0.1296552 Q0.5575607,0.1489655 0.5678282,0.18 Q0.5780958,0.2110345 0.5833852,0.2524138 Q0.5886746,0.2937931 0.5914748,0.3372414 Q0.594275,0.3806896 0.5945862,0.4241379 Q0.5948973,0.4675862 0.5948973,0.5034482 Q0.5948973,0.5586207 0.5933416,0.6268965 Q0.5917859,0.6951724 0.5833852,0.7551724 Q0.5749844,0.8151724 0.5563161,0.8565517 Q0.5376478,0.8979311 0.5040448,0.8979311 Q0.4704418,0.8979311 0.4517735,0.8565517 Q0.4331052,0.8151724 0.4247044,0.7551724 Q0.4163037,0.6951724 0.414748,0.6268965 Q0.4131923,0.5586207 0.4131923,0.5034482 Q0.4131923,0.4675862 0.4135034,0.4241379 Q0.4138145,0.3806896 0.4166148,0.3372414 Q0.4194151,0.2937931 0.4247044,0.2524138 Q0.4299938,0.2110345 0.4402613,0.18 Q0.4505289,0.1489655 0.4660859,0.1296552 Q0.4816428,0.1103448 0.5040448,0.1103448 Z M0.1543248,0.0068965 Q0.1194773,0.0068965 0.0920971,0.0331035 Q0.0647169,0.0593103 0.0463597,0.1055172 Q0.0280025,0.1517241 0.0192906,0.2151724 Q0.0105787,0.2786207 0.0124456,0.3531035 L0.0653391,0.3531035 Q0.0647169,0.3089655 0.0693839,0.2655172 Q0.074051,0.2220689 0.0846297,0.1875862 Q0.0952085,0.1531034 0.1116988,0.1317241 Q0.1281892,0.1103448 0.1512134,0.1103448 Q0.1686372,0.1103448 0.1841941,0.1227586 Q0.1997511,0.1351724 0.2112632,0.1586207 Q0.2227754,0.1820689 0.2296204,0.2144827 Q0.2364655,0.2468965 0.2364655,0.2868965 Q0.2364655,0.337931 0.2293093,0.3765517 Q0.2221531,0.4151724 0.2081518,0.4482758 Q0.1941506,0.4813793 0.1729932,0.5137931 Q0.1518357,0.5462069 0.1238332,0.5848276 Q0.100809,0.6151725 0.0796515,0.6496551 Q0.0584941,0.6841379 0.0416926,0.7296551 Q0.0248911,0.7751724 0.0140012,0.8365517 Q0.0031114,0.8979311 0,0.9848276 L0.2881145,0.9848276 L0.2881145,0.8813794 L0.0616055,0.8813794 Q0.0653391,0.8358621 0.0774735,0.8006896 Q0.089608,0.7655172 0.1067206,0.7351724 Q0.1238332,0.7048276 0.1443684,0.677931 Q0.1649035,0.6510344 0.1854387,0.6234483 Q0.2059739,0.5944828 0.2252645,0.5627586 Q0.2445551,0.5310345 0.2594897,0.4917241 Q0.2744244,0.4524138 0.2834474,0.4027586 Q0.2924704,0.3531035 0.2924704,0.2882759 Q0.2924704,0.2193103 0.2815806,0.1668965 Q0.2706907,0.1144827 0.2520224,0.0793104 Q0.2333541,0.0441379 0.2081518,0.0255173 Q0.1829496,0.0068965 0.1543248,0.0068965 Z M0.7199751,0 L0.7199751,0.9848276 L0.7728687,0.9848276 L0.7728687,0.7144827 L0.8226509,0.6124138 L0.932794,0.9848276 L1,0.9848276 L0.8630989,0.5310345 L0.9906658,0.2717241 L0.9197262,0.2717241 L0.7728687,0.5834483 L0.7728687,0 Z M0.5040448,0.0068965 Q0.4698195,0.0068965 0.4452395,0.0289655 Q0.4206596,0.0510345 0.4044804,0.0882758 Q0.3883012,0.1255172 0.378967,0.1751724 Q0.3696328,0.2248276 0.3646546,0.28 Q0.3596764,0.3351724 0.3584318,0.3931035 Q0.3571873,0.4510345 0.3571873,0.5048276 Q0.3571873,0.5586207 0.3584318,0.6165517 Q0.3596764,0.6744828 0.3646546,0.7296551 Q0.3696328,0.7848276 0.378967,0.8337931 Q0.3883012,0.8827586 0.4044804,0.92 Q0.4206596,0.9572414 0.4452395,0.9786207 Q0.4698195,1 0.5040448,1 Q0.5388923,1 0.5631611,0.9786207 Q0.58743,0.9572414 0.6036092,0.92 Q0.6197884,0.8827586 0.6291226,0.8337931 Q0.6384568,0.7848276 0.643435,0.7296551 Q0.6484132,0.6744828 0.6496577,0.6165517 Q0.6509023,0.5586207 0.6509023,0.5048276 Q0.6509023,0.4510345 0.6496577,0.3931035 Q0.6484132,0.3351724 0.643435,0.28 Q0.6384568,0.2248276 0.6291226,0.1751724 Q0.6197884,0.1255172 0.6036092,0.0882758 Q0.58743,0.0510345 0.56285,0.0289655 Q0.5382701,0.0068965 0.5040448,0.0068965 Z" style="fill:rgb(0,0,0);stroke:none" />
</g>
<g transform="matrix(0 0 0 3 56.64102554321289 21.7222222222) ">
<path d="MNaN,0 LNaN,1 LNaN,1 LNaN,1 LNaN,1 LNaN,0 LNaN,0 LNaN,0 LNaN,0 Z" style="fill:rgb(0,0,0);stroke:none" />
</g>
<g transform="matrix(4.80317155154384 0 0 2.174999952316284 54.23943986525885 25.434722246041858) ">
<path d="M0.5022039,0.1103448 Q0.524689,0.1103448 0.5403037,0.1296552 Q0.5559184,0.1489655 0.5662241,0.18 Q0.5765298,0.2110345 0.5818388,0.2524138 Q0.5871478,0.2937931 0.5899584,0.3372414 Q0.5927691,0.3806896 0.5930813,0.4241379 Q0.5933936,0.4675862 0.5933936,0.5034482 Q0.5933936,0.5586207 0.5918321,0.6268965 Q0.5902707,0.6951724 0.5818388,0.7551724 Q0.5734069,0.8151724 0.5546692,0.8565517 Q0.5359316,0.8979311 0.5022039,0.8979311 Q0.4684762,0.8979311 0.4497386,0.8565517 Q0.431001,0.8151724 0.422569,0.7551724 Q0.4141371,0.6951724 0.4125756,0.6268965 Q0.4110141,0.5586207 0.4110141,0.5034482 Q0.4110141,0.4675862 0.4113264,0.4241379 Q0.4116387,0.3806896 0.4144493,0.3372414 Q0.41726,0.2937931 0.422569,0.2524138 Q0.427878,0.2110345 0.4381837,0.18 Q0.4484894,0.1489655 0.4641041,0.1296552 Q0.4797188,0.1103448 0.5022039,0.1103448 Z M0.7189357,0 L0.7189357,0.9848276 L0.7720256,0.9848276 L0.7720256,0.7144827 L0.8219926,0.6124138 L0.9325445,0.9848276 L1,0.9848276 L0.8625907,0.5310345 L0.9906312,0.2717241 L0.9194282,0.2717241 L0.7720256,0.5834483 L0.7720256,0 Z M0.1461891,0.0068965 Q0.113086,0.0068965 0.0877902,0.0303448 Q0.0624944,0.053793 0.0456306,0.0951724 Q0.0287667,0.1365517 0.0197102,0.1944828 Q0.0106537,0.2524138 0.0094045,0.3227586 L0.0624944,0.3227586 Q0.0624944,0.28 0.0674911,0.2413793 Q0.0724878,0.2027586 0.0827935,0.1737931 Q0.0930992,0.1448276 0.1090262,0.1275862 Q0.1249532,0.1103448 0.1461891,0.1103448 Q0.1799168,0.1103448 0.202402,0.1496552 Q0.2248871,0.1889655 0.2248871,0.2675862 Q0.2248871,0.3062069 0.2180167,0.3365517 Q0.2111462,0.3668965 0.1995913,0.3868965 Q0.1880365,0.4068966 0.1727341,0.4172413 Q0.1574317,0.4275862 0.1405678,0.4275862 L0.1230794,0.4275862 Q0.120581,0.4275862 0.1174581,0.4262069 L0.1174581,0.5255172 Q0.1324482,0.5213793 0.1493121,0.5213793 Q0.1692989,0.5213793 0.186475,0.5331034 Q0.2036511,0.5448276 0.2161429,0.5689655 Q0.2286346,0.5931034 0.2361297,0.6282758 Q0.2436247,0.6634483 0.2436247,0.7089656 Q0.2436247,0.7531035 0.2358174,0.7882759 Q0.22801,0.8234482 0.2148937,0.8475862 Q0.2017774,0.8717241 0.184289,0.8848276 Q0.1668005,0.8979311 0.1474383,0.8979311 Q0.1018434,0.8979311 0.0781091,0.837931 Q0.0543748,0.777931 0.0531256,0.6827586 L0.0000357,0.6827586 Q-0.0005889,0.7586206 0.0097168,0.8179311 Q0.0200225,0.8772414 0.0393847,0.9179311 Q0.0587469,0.9586207 0.0862287,0.9793103 Q0.1137106,1 0.1474383,1 Q0.1786677,1 0.2064618,0.9813793 Q0.2342559,0.9627586 0.2548673,0.9255173 Q0.2754787,0.8882758 0.2876582,0.8324138 Q0.2998376,0.7765517 0.2998376,0.7034483 Q0.2998376,0.6151725 0.2801631,0.5503449 Q0.2604886,0.4855172 0.2198904,0.4662069 L0.2198904,0.4634483 Q0.2461231,0.4372414 0.2636115,0.3862069 Q0.2811,0.3351724 0.2811,0.2689655 Q0.2811,0.2013793 0.2707943,0.1517241 Q0.2604886,0.102069 0.2423756,0.0703448 Q0.2242625,0.0386206 0.1995913,0.0227586 Q0.1749201,0.0068965 0.1461891,0.0068965 Z M0.5022039,0.0068965 Q0.4678516,0.0068965 0.4431804,0.0289655 Q0.4185092,0.0510345 0.4022699,0.0882758 Q0.3860306,0.1255172 0.3766618,0.1751724 Q0.367293,0.2248276 0.3622963,0.28 Q0.3572996,0.3351724 0.3560504,0.3931035 Q0.3548013,0.4510345 0.3548013,0.5048276 Q0.3548013,0.5586207 0.3560504,0.6165517 Q0.3572996,0.6744828 0.3622963,0.7296551 Q0.367293,0.7848276 0.3766618,0.8337931 Q0.3860306,0.8827586 0.4022699,0.92 Q0.4185092,0.9572414 0.4431804,0.9786207 Q0.4678516,1 0.5022039,1 Q0.5371808,1 0.5615397,0.9786207 Q0.5858986,0.9572414 0.6021378,0.92 Q0.6183771,0.8827586 0.6277459,0.8337931 Q0.6371148,0.7848276 0.6421115,0.7296551 Q0.6471081,0.6744828 0.6483573,0.6165517 Q0.6496065,0.5586207 0.6496065,0.5048276 Q0.6496065,0.4510345 0.6483573,0.3931035 Q0.6471081,0.3351724 0.6421115,0.28 Q0.6371148,0.2248276 0.6277459,0.1751724 Q0.6183771,0.1255172 0.6021378,0.0882758 Q0.5858986,0.0510345 0.5612274,0.0289655 Q0.5365562,0.0068965 0.5022039,0.0068965 Z" style="fill:rgb(0,0,0);stroke:none" />
</g>
<g transform="matrix(0 0 0 3 74.85469818115234 21.7222222222) ">
<path d="MNaN,0 LNaN,1 LNaN,1 LNaN,1 LNaN,1 LNaN,0 LNaN,0 LNaN,0 LNaN,0 Z" style="fill:rgb(0,0,0);stroke:none" />
</g>
<g transform="matrix(4.809000127017498 0 0 2.174999952316284 72.45020079119895 25.434722246041858) ">
<path d="M0.1940112,0.1737931 L0.1940112,0.6524138 L0.0455396,0.6524138 L0.1927636,0.1737931 Z M0.5028072,0.1103448 Q0.5252651,0.1103448 0.5408609,0.1296552 Q0.5564566,0.1489655 0.5667498,0.18 Q0.577043,0.2110345 0.5823456,0.2524138 Q0.5876482,0.2937931 0.5904554,0.3372414 Q0.5932626,0.3806896 0.5935745,0.4241379 Q0.5938865,0.4675862 0.5938865,0.5034482 Q0.5938865,0.5586207 0.5923268,0.6268965 Q0.5907673,0.6951724 0.5823456,0.7551724 Q0.5739239,0.8151724 0.555209,0.8565517 Q0.5364941,0.8979311 0.5028072,0.8979311 Q0.4691204,0.8979311 0.4504055,0.8565517 Q0.4316906,0.8151724 0.4232688,0.7551724 Q0.4148472,0.6951724 0.4132876,0.6268965 Q0.411728,0.5586207 0.411728,0.5034482 Q0.411728,0.4675862 0.4120399,0.4241379 Q0.4123518,0.3806896 0.415159,0.3372414 Q0.4179663,0.2937931 0.4232688,0.2524138 Q0.4285714,0.2110345 0.4388646,0.18 Q0.4491578,0.1489655 0.4647536,0.1296552 Q0.4803493,0.1103448 0.5028072,0.1103448 Z M0.2014972,0.0068965 L0,0.6427586 L0,0.7558621 L0.1940112,0.7558621 L0.1940112,0.9848276 L0.2439176,0.9848276 L0.2439176,0.7558621 L0.3038053,0.7558621 L0.3038053,0.6524138 L0.2439176,0.6524138 L0.2439176,0.0068965 Z M0.7192763,0 L0.7192763,0.9848276 L0.7723019,0.9848276 L0.7723019,0.7144827 L0.8222084,0.6124138 L0.9326263,0.9848276 L1,0.9848276 L0.8627573,0.5310345 L0.9906425,0.2717241 L0.9195259,0.2717241 L0.7723019,0.5834483 L0.7723019,0 Z M0.5028072,0.0068965 Q0.4684965,0.0068965 0.4438552,0.0289655 Q0.4192139,0.0510345 0.4029944,0.0882758 Q0.3867748,0.1255172 0.3774173,0.1751724 Q0.3680599,0.2248276 0.3630692,0.28 Q0.3580786,0.3351724 0.3568309,0.3931035 Q0.3555833,0.4510345 0.3555833,0.5048276 Q0.3555833,0.5586207 0.3568309,0.6165517 Q0.3580786,0.6744828 0.3630692,0.7296551 Q0.3680599,0.7848276 0.3774173,0.8337931 Q0.3867748,0.8827586 0.4029944,0.92 Q0.4192139,0.9572414 0.4438552,0.9786207 Q0.4684965,1 0.5028072,1 Q0.5377417,1 0.5620711,0.9786207 Q0.5864005,0.9572414 0.60262,0.92 Q0.6188396,0.8827586 0.6281971,0.8337931 Q0.6375546,0.7848276 0.6425452,0.7296551 Q0.6475358,0.6744828 0.6487835,0.6165517 Q0.6500312,0.5586207 0.6500312,0.5048276 Q0.6500312,0.4510345 0.6487835,0.3931035 Q0.6475358,0.3351724 0.6425452,0.28 Q0.6375546,0.2248276 0.6281971,0.1751724 Q0.6188396,0.1255172 0.60262,0.0882758 Q0.5864005,0.0510345 0.5617592,0.0289655 Q0.5371179,0.0068965 0.5028072,0.0068965 Z" style="fill:rgb(0,0,0);stroke:none" />
</g>
<g transform="matrix(0 0 0 3 93.06837463378906 21.7222222222) ">
<path d="MNaN,0 LNaN,1 LNaN,1 LNaN,1 LNaN,1 LNaN,0 LNaN,0 LNaN,0 LNaN,0 Z" style="fill:rgb(0,0,0);stroke:none" />
</g>
<g transform="matrix(4.788000129163265 0 0 2.174999952316284 90.67437600380299 25.434722246041858) ">
<path d="M0.5006266,0.1103448 Q0.5231829,0.1103448 0.5388471,0.1296552 Q0.5545113,0.1489655 0.5648496,0.18 Q0.5751879,0.2110345 0.5805138,0.2524138 Q0.5858396,0.2937931 0.5886591,0.3372414 Q0.5914787,0.3806896 0.5917919,0.4241379 Q0.5921053,0.4675862 0.5921053,0.5034482 Q0.5921053,0.5586207 0.5905388,0.6268965 Q0.5889724,0.6951724 0.5805138,0.7551724 Q0.5720551,0.8151724 0.5532581,0.8565517 Q0.5344611,0.8979311 0.5006266,0.8979311 Q0.466792,0.8979311 0.447995,0.8565517 Q0.429198,0.8151724 0.4207393,0.7551724 Q0.4122807,0.6951724 0.4107143,0.6268965 Q0.4091478,0.5586207 0.4091478,0.5034482 Q0.4091478,0.4675862 0.4094611,0.4241379 Q0.4097744,0.3806896 0.412594,0.3372414 Q0.4154135,0.2937931 0.4207393,0.2524138 Q0.4260651,0.2110345 0.4364035,0.18 Q0.4467418,0.1489655 0.462406,0.1296552 Q0.4780702,0.1103448 0.5006266,0.1103448 Z M0.7180451,0 L0.7180451,0.9848276 L0.7713032,0.9848276 L0.7713032,0.7144827 L0.8214286,0.6124138 L0.9323308,0.9848276 L1,0.9848276 L0.8621553,0.5310345 L0.9906015,0.2717241 L0.9191729,0.2717241 L0.7713032,0.5834483 L0.7713032,0 Z M0.0532581,0.0234482 L0.0119048,0.5310345 L0.0576441,0.5365517 Q0.0733083,0.4951724 0.0936717,0.4696552 Q0.1140351,0.4441379 0.1403509,0.4441379 Q0.1629073,0.4441379 0.181391,0.4606897 Q0.1998747,0.4772414 0.2130326,0.5068965 Q0.2261905,0.5365517 0.233396,0.5772414 Q0.2406015,0.6179311 0.2406015,0.6662069 Q0.2406015,0.724138 0.2330827,0.7675862 Q0.2255639,0.8110345 0.2127193,0.84 Q0.1998747,0.8689655 0.1826441,0.8834483 Q0.1654135,0.8979311 0.1466165,0.8979311 Q0.1265664,0.8979311 0.1099624,0.8848276 Q0.0933584,0.8717241 0.0811403,0.8475862 Q0.0689223,0.8234482 0.0617168,0.7910345 Q0.0545113,0.7586206 0.0532581,0.7213793 L0,0.7213793 Q0.0006266,0.7875863 0.0119048,0.84 Q0.023183,0.8924138 0.0426065,0.9275862 Q0.0620301,0.9627586 0.087406,0.9813793 Q0.1127819,1 0.141604,1 Q0.1804511,1 0.2095865,0.9731034 Q0.2387218,0.9462068 0.2581453,0.9006896 Q0.2775689,0.8551724 0.2872807,0.7965517 Q0.2969925,0.7379311 0.2969925,0.6758621 Q0.2969925,0.5917241 0.2857143,0.5289655 Q0.2744361,0.4662069 0.2550125,0.4241379 Q0.235589,0.382069 0.2092732,0.3613793 Q0.1829574,0.3406896 0.1535088,0.3406896 Q0.1309524,0.3406896 0.1080827,0.357931 Q0.085213,0.3751724 0.070802,0.4110345 L0.0695489,0.4082759 L0.0933584,0.1268965 L0.2725564,0.1268965 L0.2725564,0.0234482 Z M0.5006266,0.0068965 Q0.4661654,0.0068965 0.441416,0.0289655 Q0.4166666,0.0510345 0.4003759,0.0882758 Q0.3840852,0.1255172 0.3746867,0.1751724 Q0.3652882,0.2248276 0.3602757,0.28 Q0.3552631,0.3351724 0.35401,0.3931035 Q0.3527569,0.4510345 0.3527569,0.5048276 Q0.3527569,0.5586207 0.35401,0.6165517 Q0.3552631,0.6744828 0.3602757,0.7296551 Q0.3652882,0.7848276 0.3746867,0.8337931 Q0.3840852,0.8827586 0.4003759,0.92 Q0.4166666,0.9572414 0.441416,0.9786207 Q0.4661654,1 0.5006266,1 Q0.5357143,1 0.5601503,0.9786207 Q0.5845865,0.9572414 0.6008772,0.92 Q0.6171679,0.8827586 0.6265664,0.8337931 Q0.6359649,0.7848276 0.6409774,0.7296551 Q0.6459899,0.6744828 0.6472431,0.6165517 Q0.6484962,0.5586207 0.6484962,0.5048276 Q0.6484962,0.4510345 0.6472431,0.3931035 Q0.6459899,0.3351724 0.6409774,0.28 Q0.6359649,0.2248276 0.6265664,0.1751724 Q0.6171679,0.1255172 0.6008772,0.0882758 Q0.5845865,0.0510345 0.5598371,0.0289655 Q0.5350877,0.0068965 0.5006266,0.0068965 Z" style="fill:rgb(0,0,0);stroke:none" />
</g>
<g transform="matrix(0 0 0 3 111.28205108642578 21.7222222222) ">
<path d="MNaN,0 LNaN,1 LNaN,1 LNaN,1 LNaN,1 LNaN,0 LNaN,0 LNaN,0 LNaN,0 Z" style="fill:rgb(0,0,0);stroke:none" />
</g>
<g transform="matrix(2.076000042259693 0 0 0.9839999675750732 110.2440512609317 25.530222238412463) ">
<path d="M0.2196532,0.2347561 Q0.2485549,0.2347561 0.2774566,0.2621951 Q0.3063584,0.2896341 0.333815,0.3292683 Q0.3612717,0.3689024 0.3858381,0.417683 Q0.4104046,0.4664633 0.4306358,0.5060975 Q0.4118497,0.5487805 0.3880058,0.5929877 Q0.3641618,0.6371952 0.3374277,0.6768294 Q0.3106936,0.7164634 0.2817919,0.7408535 Q0.2528902,0.7652439 0.2239884,0.7652439 Q0.1690751,0.7652439 0.1372832,0.6920732 Q0.1054913,0.6189024 0.1054913,0.5030489 Q0.1054913,0.3993903 0.1358382,0.3170732 Q0.166185,0.2347561 0.2196532,0.2347561 Z M0.7760115,0.2347561 Q0.833815,0.2347561 0.8641618,0.3125 Q0.8945086,0.390244 0.8945086,0.5060975 Q0.8945086,0.6158536 0.8648844,0.6905487 Q0.8352601,0.7652439 0.7803468,0.7652439 Q0.7485549,0.7652439 0.7196532,0.7408535 Q0.6907514,0.7164634 0.6647398,0.679878 Q0.6387283,0.6432928 0.6148844,0.5975611 Q0.5910404,0.5518293 0.5693641,0.5091463 Q0.5881503,0.4695123 0.6119942,0.4207318 Q0.6358381,0.3719512 0.6625723,0.3307927 Q0.6893063,0.2896341 0.7182081,0.2621951 Q0.7471098,0.2347561 0.7760115,0.2347561 Z M0.2196532,0 Q0.1676301,0 0.1271676,0.0396342 Q0.0867052,0.0792682 0.058526,0.1478658 Q0.0303468,0.2164634 0.0151734,0.3079268 Q0,0.3993903 0,0.5030489 Q0,0.609756 0.015896,0.7012196 Q0.0317919,0.7926829 0.0606936,0.8582318 Q0.0895954,0.9237804 0.1307803,0.9618903 Q0.1719653,1 0.2239884,1 Q0.2687861,1 0.3070809,0.9710365 Q0.3453757,0.9420732 0.3793352,0.8932927 Q0.4132948,0.8445123 0.4429191,0.785061 Q0.4725433,0.7256098 0.5014451,0.6646342 Q0.5289017,0.7286586 0.5599711,0.7881098 Q0.5910404,0.8475609 0.6242774,0.8948172 Q0.6575144,0.9420732 0.6958093,0.9710365 Q0.734104,1 0.7774566,1 Q0.8294797,1 0.8706647,0.9603658 Q0.9118497,0.9207316 0.9407514,0.8536585 Q0.9696532,0.7865853 0.9848265,0.695122 Q1,0.6036587 1,0.4969513 Q1,0.3932927 0.9841041,0.3018292 Q0.9682081,0.2103659 0.9385838,0.1432927 Q0.9089595,0.0762196 0.8677746,0.0381098 Q0.8265896,0 0.7760115,0 Q0.7326589,0 0.6943642,0.0320122 Q0.6560694,0.0640244 0.6221098,0.1143292 Q0.5881503,0.1646341 0.558526,0.2271342 Q0.5289017,0.2896341 0.5014451,0.3536586 Q0.4725433,0.2896341 0.4421965,0.2271342 Q0.4118497,0.1646341 0.3771676,0.1143292 Q0.3424855,0.0640244 0.3034682,0.0320122 Q0.2644508,0 0.2196532,0 Z" style="fill:rgb(0,0,0);stroke:none" />
</g>
</svg>
