<?xml version="1.0" encoding="UTF-8"?>
<!DOCTYPE svg PUBLIC "-//W3C//DTD SVG 1.1//EN" "http://www.w3.org/Graphics/SVG/1.1/DTD/svg11.dtd">
<svg version="1.2" xmlns="http://www.w3.org/2000/svg" xmlns:xlink="http://www.w3.org/1999/xlink" x="0mm" y="0mm" width="225.7777778mm" height="28.2222222mm" viewBox="0 0 225.7777778 28.2222222">
<style type="text/css"><![CDATA[
text { font:12px Dialog; }
]]></style>
<g transform="matrix(238.7777777778 0 0 23.2222222222 2 0) ">
<path d="M0,0 L1,0 L1,1 L0,1 L0,0 Z" style="fill:rgb(255,255,255);stroke:none" />
</g>
<g transform="matrix(239.77777099609375 0 0 24.22222137451172 1.5 -0.5) ">
<path d="M0.0020853,0.0412844 L0.9979147,0.0412844 L0.9979147,0.0206422 L0.9958295,0.0206422 L0.9958295,0.9793578 L0.9979147,0.9793578 L0.9979147,0.9587156 L0.0020853,0.9587156 L0.0020853,0.9793578 L0.0041705,0.9793578 L0.0041705,0.0206422 L0.0020853,0.0206422 L0.0020853,0.0412844 Z M0,0.0206422 L0,0.9793578 L0,1 L0.0020853,1 L0.9979147,1 L1,1 L1,0.9793578 L1,0.0206422 L1,0 L0.9979147,0 L0.0020853,0 L0,0 L0,0.0206422 Z" style="fill:rgb(255,255,255);stroke:none" />
</g>
<g transform="matrix(17.44914529914692 0 0 4.903325696495305 2.4591880341880774 18.318896525704695) ">
<clipPath id="clip1"><path d="M-0.0263158,-3.7360146 L13.6578947,-3.7360146 L13.6578947,1 L-0.0263158,1 L-0.0263158,-3.7360146 Z" /></clipPath>
<path d="M0,0 L1,0 L1,1 L0,1 L0,0 Z" style="fill:rgb(51,102,204);stroke:none" clip-path="url(#clip1)" />
</g>
<g transform="matrix(17.449145299146924 0 0 14.958728993985686 20.826709401711152 8.263493228214314) ">
<clipPath id="clip2"><path d="M-1.0789474,-0.5524195 L12.6052632,-0.5524195 L12.6052632,1 L-1.0789474,1 L-1.0789474,-0.5524195 Z" /></clipPath>
<path d="M0,0 L1,0 L1,1 L0,1 L0,0 Z" style="fill:rgb(51,102,204);stroke:none" clip-path="url(#clip2)" />
</g>
<g transform="matrix(17.44914529914692 0 0 15.98959271584581 39.19423076923423 7.23262950635419) ">
<clipPath id="clip3"><path d="M-2.1315789,-0.4523336 L11.5526316,-0.4523336 L11.5526316,1 L-2.1315789,1 L-2.1315789,-0.4523336 Z" /></clipPath>
<path d="M0,0 L1,0 L1,1 L0,1 L0,0 Z" style="fill:rgb(51,102,204);stroke:none" clip-path="url(#clip3)" />
</g>
<g transform="matrix(17.449145299146934 0 0 10.74563378593416 57.561752136757306 12.476588436265839) ">
<clipPath id="clip4"><path d="M-3.1842105,-1.1610845 L10.5,-1.1610845 L10.5,1 L-3.1842105,1 L-3.1842105,-1.1610845 Z" /></clipPath>
<path d="M0,0 L1,0 L1,1 L0,1 L0,0 Z" style="fill:rgb(51,102,204);stroke:none" clip-path="url(#clip4)" />
</g>
<g transform="matrix(17.449145299146906 0 0 5.983491595272053 75.92927350428039 17.238730626927946) ">
<clipPath id="clip5"><path d="M-4.2368421,-2.8810487 L9.4473684,-2.8810487 L9.4473684,1 L-4.2368421,1 L-4.2368421,-2.8810487 Z" /></clipPath>
<path d="M0,0 L1,0 L1,1 L0,1 L0,0 Z" style="fill:rgb(51,102,204);stroke:none" clip-path="url(#clip5)" />
</g>
<g transform="matrix(17.449145299146906 0 0 2.8281522087472943 94.29679487180347 20.394070013452705) ">
<clipPath id="clip6"><path d="M-5.2894737,-7.2110935 L8.3947368,-7.2110935 L8.3947368,1 L-5.2894737,1 L-5.2894737,-7.2110935 Z" /></clipPath>
<path d="M0,0 L1,0 L1,1 L0,1 L0,0 Z" style="fill:rgb(51,102,204);stroke:none" clip-path="url(#clip6)" />
</g>
<g transform="matrix(17.449145299146906 0 0 1.4745833199152543 112.66431623932654 21.747638902284745) ">
<clipPath id="clip7"><path d="M-6.3421053,-14.7483283 L7.3421053,-14.7483283 L7.3421053,1 L-6.3421053,1 L-6.3421053,-14.7483283 Z" /></clipPath>
<path d="M0,0 L1,0 L1,1 L0,1 L0,0 Z" style="fill:rgb(51,102,204);stroke:none" clip-path="url(#clip7)" />
</g>
<g transform="matrix(17.44914529914695 0 0 0.6319642783049524 131.0318376068496 22.590257943895047) ">
<clipPath id="clip8"><path d="M-7.3947368,-35.7460995 L6.2894737,-35.7460995 L6.2894737,1 L-7.3947368,1 L-7.3947368,-35.7460995 Z" /></clipPath>
<path d="M0,0 L1,0 L1,1 L0,1 L0,0 Z" style="fill:rgb(51,102,204);stroke:none" clip-path="url(#clip8)" />
</g>
<g transform="matrix(17.44914529914692 0 0 0.2868490340830583 149.3993589743727 22.93537318811694) ">
<clipPath id="clip9"><path d="M-8.4473684,-79.9562504 L5.2368421,-79.9562504 L5.2368421,1 L-8.4473684,1 L-8.4473684,-79.9562504 Z" /></clipPath>
<path d="M0,0 L1,0 L1,1 L0,1 L0,0 Z" style="fill:rgb(51,102,204);stroke:none" clip-path="url(#clip9)" />
</g>
<g transform="matrix(17.44914529914695 0 0 0.1411835116387543 167.76688034189576 23.081038710561245) ">
<clipPath id="clip10"><path d="M-9.5,-163.4825373 L4.1842105,-163.4825373 L4.1842105,1 L-9.5,1 L-9.5,-163.4825373 Z" /></clipPath>
<path d="M0,0 L1,0 L1,1 L0,1 L0,0 Z" style="fill:rgb(51,102,204);stroke:none" clip-path="url(#clip10)" />
</g>
<g transform="matrix(17.44914529914692 0 0 0.06050721844438556 186.13440170941885 23.161715003755614) ">
<clipPath id="clip11"><path d="M-10.5526316,-382.7925923 L3.1315789,-382.7925923 L3.1315789,1 L-10.5526316,1 L-10.5526316,-382.7925923 Z" /></clipPath>
<path d="M0,0 L1,0 L1,1 L0,1 L0,0 Z" style="fill:rgb(51,102,204);stroke:none" clip-path="url(#clip11)" />
</g>
<g transform="matrix(17.44914529914692 0 0 0.05154318522217238 204.50192307694192 23.170679036977827) ">
<clipPath id="clip12"><path d="M-11.6052632,-449.5391377 L2.0789474,-449.5391377 L2.0789474,1 L-11.6052632,1 L-11.6052632,-449.5391377 Z" /></clipPath>
<path d="M0,0 L1,0 L1,1 L0,1 L0,0 Z" style="fill:rgb(51,102,204);stroke:none" clip-path="url(#clip12)" />
</g>
<g transform="matrix(4.272000201046467 0 0 2.2289998531341553 9.047760583238304 15.404396599137616) ">
<clipPath id="clip13"><path d="M-1.6497566,-6.9109007 L54.2439153,-6.9109007 L54.2439153,3.5073244 L-1.6497566,3.5073244 L-1.6497566,-6.9109007 Z" /></clipPath>
<path d="M0.1678371,0.1184387 Q0.2043539,0.1184387 0.2278792,0.1554508 Q0.2514045,0.192463 0.2514045,0.2651413 Q0.2514045,0.3378196 0.2282303,0.3781965 Q0.2050562,0.4185733 0.1692416,0.4185733 Q0.1509831,0.4185733 0.1348315,0.4091521 Q0.1186798,0.3997308 0.1067416,0.3808883 Q0.0948034,0.3620457 0.0877809,0.333109 Q0.0807584,0.3041722 0.0807584,0.2651413 Q0.0807584,0.2288021 0.0877809,0.2018842 Q0.0948034,0.1749663 0.1063905,0.1561238 Q0.1179775,0.1372812 0.1341292,0.12786 Q0.1502809,0.1184387 0.1678371,0.1184387 Z M0.5407303,0.0915208 Q0.5610955,0.0915208 0.5726825,0.1110363 Q0.5842696,0.1305518 0.5905898,0.1594885 Q0.5969101,0.1884252 0.5986657,0.2227456 Q0.6004213,0.2570659 0.6004213,0.2866756 Q0.6004213,0.3176312 0.5983146,0.3526245 Q0.5962079,0.3876177 0.5895365,0.4165545 Q0.5828651,0.4454912 0.5709269,0.4643337 Q0.5589887,0.4831763 0.5386236,0.4831763 Q0.5189606,0.4831763 0.5073735,0.4636608 Q0.4957865,0.4441453 0.4894663,0.4152086 Q0.483146,0.3862719 0.4813904,0.3519515 Q0.4796348,0.3176312 0.4796348,0.2880215 Q0.4796348,0.2570659 0.4817415,0.2227456 Q0.4838483,0.1884252 0.4905196,0.1594885 Q0.497191,0.1305518 0.5091292,0.1110363 Q0.5210674,0.0915208 0.5407303,0.0915208 Z M0.5407303,0.0174965 Q0.508427,0.0174965 0.4866573,0.0397038 Q0.4648876,0.0619111 0.4515449,0.0995962 Q0.4382022,0.1372812 0.4325842,0.1864064 Q0.4269663,0.2355316 0.4269663,0.2907133 Q0.4269663,0.345895 0.4329354,0.3943472 Q0.4389045,0.4427994 0.4522472,0.4791386 Q0.4655899,0.5154778 0.4873595,0.5363392 Q0.5091292,0.5572005 0.5407303,0.5572005 Q0.5716292,0.5572005 0.5926966,0.5343203 Q0.613764,0.5114401 0.6274578,0.474428 Q0.6411516,0.4374159 0.6471208,0.3882907 Q0.6530899,0.3391655 0.6530899,0.2866756 Q0.6530899,0.2314939 0.647823,0.1823687 Q0.6425562,0.1332436 0.6295646,0.0969044 Q0.616573,0.0605653 0.5951544,0.0390309 Q0.573736,0.0174965 0.5407303,0.0174965 Z M0.1685393,0.5195155 Q0.1896067,0.5195155 0.2082163,0.5336473 Q0.2268258,0.5477793 0.2408708,0.5720054 Q0.2549157,0.5962315 0.2629916,0.6292059 Q0.2710674,0.6621803 0.2710674,0.7012113 Q0.2710674,0.7415882 0.2636938,0.7752355 Q0.2563202,0.8088829 0.2426264,0.833782 Q0.2289326,0.858681 0.210323,0.8728129 Q0.1917135,0.8869449 0.1692416,0.8869449 Q0.1228932,0.8869449 0.0930477,0.8378196 Q0.0632022,0.7886945 0.0632022,0.7025572 Q0.0632022,0.6608344 0.0712781,0.627187 Q0.0793539,0.5935397 0.09375,0.5693135 Q0.1081461,0.5450875 0.1274579,0.5323014 Q0.1467697,0.5195155 0.1685393,0.5195155 Z M0.8876404,0.5222073 Q0.9080056,0.5222073 0.9195927,0.5417227 Q0.9311797,0.5612382 0.9375,0.5901749 Q0.9438202,0.6191117 0.9455758,0.653432 Q0.9473314,0.6877524 0.9473314,0.7173621 Q0.9473314,0.7483177 0.9452247,0.7833109 Q0.943118,0.8183042 0.9364466,0.847241 Q0.9297752,0.8761776 0.917837,0.8950202 Q0.9058988,0.9138628 0.8855336,0.9138628 Q0.8658707,0.9138628 0.8542837,0.8943473 Q0.8426966,0.8748317 0.8363764,0.8458951 Q0.8300561,0.8169583 0.8283005,0.782638 Q0.8265449,0.7483177 0.8265449,0.7187079 Q0.8265449,0.6877524 0.8286517,0.653432 Q0.8307584,0.6191117 0.8374297,0.5901749 Q0.8441011,0.5612382 0.8560393,0.5417227 Q0.8679775,0.5222073 0.8876404,0.5222073 Z M0.1636236,0.0174965 Q0.1348315,0.0174965 0.1084972,0.0336473 Q0.0821629,0.049798 0.0617978,0.0807537 Q0.0414326,0.1117092 0.0294944,0.1567968 Q0.0175562,0.2018842 0.0175562,0.2611036 Q0.0175562,0.3257065 0.0365169,0.3802153 Q0.0554775,0.4347241 0.0870787,0.4589502 Q0.0449438,0.487214 0.0224719,0.5497981 Q0,0.6123822 0,0.6971736 Q0,0.7698519 0.0129916,0.8243607 Q0.0259831,0.8788694 0.0488062,0.9152087 Q0.0716292,0.9515478 0.1025281,0.9690444 Q0.133427,0.9865411 0.1692416,0.9865411 Q0.2036517,0.9865411 0.2338483,0.9676985 Q0.2640449,0.9488559 0.2861657,0.9118438 Q0.3082865,0.8748317 0.3212781,0.820996 Q0.3342696,0.7671601 0.3342696,0.6971736 Q0.3342696,0.6083446 0.3125,0.5471063 Q0.2907303,0.4858681 0.2457865,0.4589502 Q0.2773876,0.4320323 0.2959972,0.3788694 Q0.3146067,0.3257065 0.3146067,0.2611036 Q0.3146067,0.2153432 0.3061798,0.1716016 Q0.2977528,0.12786 0.2798455,0.0935397 Q0.2619382,0.0592194 0.2331461,0.038358 Q0.2043539,0.0174965 0.1636236,0.0174965 Z M0.8876404,0.448183 Q0.855337,0.448183 0.8335674,0.4703903 Q0.8117977,0.4925976 0.798455,0.5302826 Q0.7851123,0.5679677 0.7794944,0.6170929 Q0.7738763,0.666218 0.7738763,0.7213997 Q0.7738763,0.7765815 0.7798455,0.8250337 Q0.7858146,0.8734858 0.7991572,0.9091521 Q0.8125,0.9448183 0.8342696,0.9656797 Q0.8560393,0.9865411 0.8876404,0.9865411 Q0.9185393,0.9865411 0.9396067,0.9643338 Q0.9606741,0.9421265 0.9743679,0.9051144 Q0.9880618,0.8681023 0.9940308,0.8189772 Q1,0.7698519 1,0.7173621 Q1,0.6621803 0.9947331,0.6130552 Q0.9894663,0.56393 0.9764747,0.5275908 Q0.9634831,0.4912517 0.9420645,0.4697174 Q0.920646,0.448183 0.8876404,0.448183 Z M0.872191,0 L0.494382,1 L0.5547753,1 L0.9318819,0 Z" style="fill:rgb(0,0,0);stroke:none" clip-path="url(#clip13)" />
</g>
<g transform="matrix(5.9879999458789825 0 0 2.2289998531341553 26.557282078345125 5.348993301647236) ">
<clipPath id="clip14"><path d="M-4.1010825,-2.399728 L35.7749662,-2.399728 L35.7749662,8.0184971 L-4.1010825,8.0184971 L-4.1010825,-2.399728 Z" /></clipPath>
<path d="M0.6723447,0.0915208 Q0.6868737,0.0915208 0.6951403,0.1110363 Q0.7034068,0.1305518 0.7079158,0.1594885 Q0.7124248,0.1884252 0.7136774,0.2227456 Q0.7149299,0.2570659 0.7149299,0.2866756 Q0.7149299,0.3176312 0.7134268,0.3526245 Q0.7119239,0.3876177 0.7071643,0.4165545 Q0.7024048,0.4454912 0.6938877,0.4643337 Q0.6853708,0.4831763 0.6708416,0.4831763 Q0.6568137,0.4831763 0.6485471,0.4636608 Q0.6402806,0.4441453 0.6357715,0.4152086 Q0.6312625,0.3862719 0.63001,0.3519515 Q0.6287575,0.3176312 0.6287575,0.2880215 Q0.6287575,0.2570659 0.6302605,0.2227456 Q0.6317635,0.1884252 0.636523,0.1594885 Q0.6412826,0.1305518 0.6497996,0.1110363 Q0.6583166,0.0915208 0.6723447,0.0915208 Z M0.6723447,0.0174965 Q0.6492986,0.0174965 0.6337675,0.0397038 Q0.6182365,0.0619111 0.6087174,0.0995962 Q0.5991984,0.1372812 0.5951904,0.1864064 Q0.5911824,0.2355316 0.5911824,0.2907133 Q0.5911824,0.345895 0.5954409,0.3943472 Q0.5996994,0.4427994 0.6092184,0.4791386 Q0.6187375,0.5154778 0.6342685,0.5363392 Q0.6497996,0.5572005 0.6723447,0.5572005 Q0.6943888,0.5572005 0.7094189,0.5343203 Q0.7244489,0.5114401 0.7342185,0.474428 Q0.743988,0.4374159 0.7482465,0.3882907 Q0.752505,0.3391655 0.752505,0.2866756 Q0.752505,0.2314939 0.7487475,0.1823687 Q0.74499,0.1332436 0.7357214,0.0969044 Q0.7264529,0.0605653 0.7111724,0.0390309 Q0.6958918,0.0174965 0.6723447,0.0174965 Z M0.4098196,0.4589502 Q0.4278557,0.4589502 0.4413828,0.4764468 Q0.4549098,0.4939434 0.4639278,0.5228802 Q0.4729459,0.5518169 0.4772044,0.5915208 Q0.4814629,0.6312247 0.4814629,0.6756393 Q0.4814629,0.7173621 0.4767034,0.7557201 Q0.4719439,0.7940781 0.4629259,0.8236878 Q0.4539078,0.8532975 0.4406313,0.8701211 Q0.4273547,0.8869449 0.4098196,0.8869449 Q0.3922846,0.8869449 0.378507,0.8701211 Q0.3647295,0.8532975 0.3554609,0.8250337 Q0.3461924,0.7967699 0.3411824,0.7577389 Q0.3361724,0.7187079 0.3361724,0.6742934 Q0.3361724,0.6298788 0.3409318,0.5901749 Q0.3456914,0.550471 0.3552104,0.5215343 Q0.3647295,0.4925976 0.3782565,0.4757739 Q0.3917836,0.4589502 0.4098196,0.4589502 Z M0.9198397,0.5222073 Q0.9343687,0.5222073 0.9426352,0.5417227 Q0.9509018,0.5612382 0.9554108,0.5901749 Q0.9599199,0.6191117 0.9611723,0.653432 Q0.9624249,0.6877524 0.9624249,0.7173621 Q0.9624249,0.7483177 0.9609218,0.7833109 Q0.9594188,0.8183042 0.9546593,0.847241 Q0.9498998,0.8761776 0.9413828,0.8950202 Q0.9328657,0.9138628 0.9183367,0.9138628 Q0.9043086,0.9138628 0.8960421,0.8943473 Q0.8877756,0.8748317 0.8832666,0.8458951 Q0.8787575,0.8169583 0.877505,0.782638 Q0.8762525,0.7483177 0.8762525,0.7187079 Q0.8762525,0.6877524 0.8777555,0.653432 Q0.8792585,0.6191117 0.884018,0.5901749 Q0.8887776,0.5612382 0.8972946,0.5417227 Q0.9058116,0.5222073 0.9198397,0.5222073 Z M0.1242485,0.0174965 Q0.0961924,0.0174965 0.0741483,0.0430686 Q0.0521042,0.0686406 0.0373247,0.1137281 Q0.0225451,0.1588156 0.0155311,0.2207267 Q0.008517,0.2826379 0.01002,0.3553163 L0.0526052,0.3553163 Q0.0521042,0.3122476 0.0558617,0.2698519 Q0.0596192,0.2274562 0.0681363,0.1938089 Q0.0766533,0.1601615 0.0899299,0.1393001 Q0.1032064,0.1184387 0.1217435,0.1184387 Q0.1357715,0.1184387 0.1482966,0.1305518 Q0.1608216,0.1426648 0.1700902,0.165545 Q0.1793587,0.1884252 0.1848697,0.2200538 Q0.1903808,0.2516823 0.1903808,0.2907133 Q0.1903808,0.3405114 0.1846192,0.3781965 Q0.1788577,0.4158816 0.1675852,0.448183 Q0.1563126,0.4804845 0.1392786,0.512113 Q0.1222445,0.5437416 0.0996994,0.5814266 Q0.0811623,0.6110364 0.0641283,0.6446837 Q0.0470942,0.6783311 0.0335671,0.7227456 Q0.0200401,0.7671601 0.0112725,0.8270525 Q0.002505,0.8869449 0,0.9717362 L0.2319639,0.9717362 L0.2319639,0.8707941 L0.0495992,0.8707941 Q0.0526052,0.8263796 0.0623747,0.7920592 Q0.0721443,0.7577389 0.0859218,0.7281292 Q0.0996994,0.6985195 0.1162325,0.6722745 Q0.1327655,0.6460296 0.1492986,0.6191117 Q0.1658317,0.5908479 0.1813627,0.5598923 Q0.1968938,0.5289367 0.2089178,0.4905787 Q0.2209419,0.4522207 0.2282064,0.4037685 Q0.2354709,0.3553163 0.2354709,0.2920592 Q0.2354709,0.2247645 0.2267034,0.1736204 Q0.2179359,0.1224764 0.2029058,0.0881561 Q0.1878758,0.0538358 0.1675852,0.0356662 Q0.1472946,0.0174965 0.1242485,0.0174965 Z M0.4163327,0.0174965 Q0.3782565,0.0174965 0.3532064,0.0605653 Q0.3281563,0.1036339 0.3131263,0.1749663 Q0.2980962,0.2462988 0.2918337,0.3384926 Q0.2855711,0.4306864 0.2855711,0.5289367 Q0.2855711,0.6043069 0.2898297,0.6850606 Q0.2940882,0.7658142 0.3071142,0.833109 Q0.3201403,0.9004038 0.3441884,0.9434724 Q0.3682365,0.9865411 0.4078156,0.9865411 Q0.4413828,0.9865411 0.4641784,0.9562585 Q0.4869739,0.9259758 0.5007515,0.8795423 Q0.514529,0.833109 0.5205411,0.7765815 Q0.5265531,0.7200539 0.5265531,0.6675639 Q0.5265531,0.601615 0.5190381,0.5450875 Q0.511523,0.4885599 0.4977455,0.4468371 Q0.4839679,0.4051144 0.4636774,0.3815612 Q0.4433868,0.358008 0.4178357,0.358008 Q0.3887776,0.358008 0.366483,0.3876177 Q0.3441884,0.4172275 0.3291583,0.4831763 L0.3281563,0.4804845 Q0.3286573,0.4253028 0.3321643,0.3620457 Q0.3356713,0.2987887 0.3449399,0.2442799 Q0.3542084,0.1897711 0.3707415,0.1541049 Q0.3872746,0.1184387 0.4143287,0.1184387 Q0.4398798,0.1184387 0.4554108,0.1574697 Q0.4709419,0.1965006 0.4739479,0.2611036 L0.5165331,0.2611036 Q0.5125251,0.1426648 0.4864729,0.0800807 Q0.4604208,0.0174965 0.4163327,0.0174965 Z M0.9198397,0.448183 Q0.8967936,0.448183 0.8812625,0.4703903 Q0.8657315,0.4925976 0.8562124,0.5302826 Q0.8466934,0.5679677 0.8426854,0.6170929 Q0.8386773,0.666218 0.8386773,0.7213997 Q0.8386773,0.7765815 0.8429359,0.8250337 Q0.8471944,0.8734858 0.8567135,0.9091521 Q0.8662324,0.9448183 0.8817635,0.9656797 Q0.8972946,0.9865411 0.9198397,0.9865411 Q0.9418838,0.9865411 0.9569138,0.9643338 Q0.9719439,0.9421265 0.9817134,0.9051144 Q0.9914829,0.8681023 0.9957415,0.8189772 Q1,0.7698519 1,0.7173621 Q1,0.6621803 0.9962425,0.6130552 Q0.992485,0.56393 0.9832164,0.5275908 Q0.9739479,0.4912517 0.9586673,0.4697174 Q0.9433868,0.448183 0.9198397,0.448183 Z M0.9088176,0 L0.6392785,1 L0.6823647,1 L0.9514028,0 Z" style="fill:rgb(0,0,0);stroke:none" clip-path="url(#clip14)" />
</g>
<g transform="matrix(5.9879999458789825 0 0 2.2289998531341553 44.9248034458682 4.318129579787112) ">
<clipPath id="clip15"><path d="M-7.1684709,-1.9372498 L32.7075778,-1.9372498 L32.7075778,8.4809753 L-7.1684709,8.4809753 L-7.1684709,-1.9372498 Z" /></clipPath>
<path d="M0.4063126,0.1184387 Q0.4323647,0.1184387 0.4491483,0.1554508 Q0.4659319,0.192463 0.4659319,0.2651413 Q0.4659319,0.3378196 0.4493988,0.3781965 Q0.4328657,0.4185733 0.4073146,0.4185733 Q0.3942886,0.4185733 0.3827655,0.4091521 Q0.3712425,0.3997308 0.3627254,0.3808883 Q0.3542084,0.3620457 0.3491984,0.333109 Q0.3441884,0.3041722 0.3441884,0.2651413 Q0.3441884,0.2288021 0.3491984,0.2018842 Q0.3542084,0.1749663 0.362475,0.1561238 Q0.3707415,0.1372812 0.3822645,0.12786 Q0.3937876,0.1184387 0.4063126,0.1184387 Z M0.6723447,0.0915208 Q0.6868737,0.0915208 0.6951403,0.1110363 Q0.7034068,0.1305518 0.7079158,0.1594885 Q0.7124248,0.1884252 0.7136774,0.2227456 Q0.7149299,0.2570659 0.7149299,0.2866756 Q0.7149299,0.3176312 0.7134268,0.3526245 Q0.7119239,0.3876177 0.7071643,0.4165545 Q0.7024048,0.4454912 0.6938877,0.4643337 Q0.6853708,0.4831763 0.6708416,0.4831763 Q0.6568137,0.4831763 0.6485471,0.4636608 Q0.6402806,0.4441453 0.6357715,0.4152086 Q0.6312625,0.3862719 0.63001,0.3519515 Q0.6287575,0.3176312 0.6287575,0.2880215 Q0.6287575,0.2570659 0.6302605,0.2227456 Q0.6317635,0.1884252 0.636523,0.1594885 Q0.6412826,0.1305518 0.6497996,0.1110363 Q0.6583166,0.0915208 0.6723447,0.0915208 Z M0.6723447,0.0174965 Q0.6492986,0.0174965 0.6337675,0.0397038 Q0.6182365,0.0619111 0.6087174,0.0995962 Q0.5991984,0.1372812 0.5951904,0.1864064 Q0.5911824,0.2355316 0.5911824,0.2907133 Q0.5911824,0.345895 0.5954409,0.3943472 Q0.5996994,0.4427994 0.6092184,0.4791386 Q0.6187375,0.5154778 0.6342685,0.5363392 Q0.6497996,0.5572005 0.6723447,0.5572005 Q0.6943888,0.5572005 0.7094189,0.5343203 Q0.7244489,0.5114401 0.7342185,0.474428 Q0.743988,0.4374159 0.7482465,0.3882907 Q0.752505,0.3391655 0.752505,0.2866756 Q0.752505,0.2314939 0.7487475,0.1823687 Q0.74499,0.1332436 0.7357214,0.0969044 Q0.7264529,0.0605653 0.7111724,0.0390309 Q0.6958918,0.0174965 0.6723447,0.0174965 Z M0.4068136,0.5195155 Q0.4218437,0.5195155 0.4351202,0.5336473 Q0.4483968,0.5477793 0.4584168,0.5720054 Q0.4684369,0.5962315 0.4741984,0.6292059 Q0.4799599,0.6621803 0.4799599,0.7012113 Q0.4799599,0.7415882 0.4746994,0.7752355 Q0.4694389,0.8088829 0.4596694,0.833782 Q0.4498998,0.858681 0.4366233,0.8728129 Q0.4233467,0.8869449 0.4073146,0.8869449 Q0.3742485,0.8869449 0.3529559,0.8378196 Q0.3316633,0.7886945 0.3316633,0.7025572 Q0.3316633,0.6608344 0.3374248,0.627187 Q0.3431864,0.5935397 0.3534569,0.5693135 Q0.3637275,0.5450875 0.377505,0.5323014 Q0.3912826,0.5195155 0.4068136,0.5195155 Z M0.9198397,0.5222073 Q0.9343687,0.5222073 0.9426352,0.5417227 Q0.9509018,0.5612382 0.9554108,0.5901749 Q0.9599199,0.6191117 0.9611723,0.653432 Q0.9624249,0.6877524 0.9624249,0.7173621 Q0.9624249,0.7483177 0.9609218,0.7833109 Q0.9594188,0.8183042 0.9546593,0.847241 Q0.9498998,0.8761776 0.9413828,0.8950202 Q0.9328657,0.9138628 0.9183367,0.9138628 Q0.9043086,0.9138628 0.8960421,0.8943473 Q0.8877756,0.8748317 0.8832666,0.8458951 Q0.8787575,0.8169583 0.877505,0.782638 Q0.8762525,0.7483177 0.8762525,0.7187079 Q0.8762525,0.6877524 0.8777555,0.653432 Q0.8792585,0.6191117 0.884018,0.5901749 Q0.8887776,0.5612382 0.8972946,0.5417227 Q0.9058116,0.5222073 0.9198397,0.5222073 Z M0.1242485,0.0174965 Q0.0961924,0.0174965 0.0741483,0.0430686 Q0.0521042,0.0686406 0.0373247,0.1137281 Q0.0225451,0.1588156 0.0155311,0.2207267 Q0.008517,0.2826379 0.01002,0.3553163 L0.0526052,0.3553163 Q0.0521042,0.3122476 0.0558617,0.2698519 Q0.0596192,0.2274562 0.0681363,0.1938089 Q0.0766533,0.1601615 0.0899299,0.1393001 Q0.1032064,0.1184387 0.1217435,0.1184387 Q0.1357715,0.1184387 0.1482966,0.1305518 Q0.1608216,0.1426648 0.1700902,0.165545 Q0.1793587,0.1884252 0.1848697,0.2200538 Q0.1903808,0.2516823 0.1903808,0.2907133 Q0.1903808,0.3405114 0.1846192,0.3781965 Q0.1788577,0.4158816 0.1675852,0.448183 Q0.1563126,0.4804845 0.1392786,0.512113 Q0.1222445,0.5437416 0.0996994,0.5814266 Q0.0811623,0.6110364 0.0641283,0.6446837 Q0.0470942,0.6783311 0.0335671,0.7227456 Q0.0200401,0.7671601 0.0112725,0.8270525 Q0.002505,0.8869449 0,0.9717362 L0.2319639,0.9717362 L0.2319639,0.8707941 L0.0495992,0.8707941 Q0.0526052,0.8263796 0.0623747,0.7920592 Q0.0721443,0.7577389 0.0859218,0.7281292 Q0.0996994,0.6985195 0.1162325,0.6722745 Q0.1327655,0.6460296 0.1492986,0.6191117 Q0.1658317,0.5908479 0.1813627,0.5598923 Q0.1968938,0.5289367 0.2089178,0.4905787 Q0.2209419,0.4522207 0.2282064,0.4037685 Q0.2354709,0.3553163 0.2354709,0.2920592 Q0.2354709,0.2247645 0.2267034,0.1736204 Q0.2179359,0.1224764 0.2029058,0.0881561 Q0.1878758,0.0538358 0.1675852,0.0356662 Q0.1472946,0.0174965 0.1242485,0.0174965 Z M0.4033066,0.0174965 Q0.3827655,0.0174965 0.3639779,0.0336473 Q0.3451904,0.049798 0.3306613,0.0807537 Q0.3161323,0.1117092 0.3076152,0.1567968 Q0.2990982,0.2018842 0.2990982,0.2611036 Q0.2990982,0.3257065 0.3126253,0.3802153 Q0.3261523,0.4347241 0.3486974,0.4589502 Q0.3186373,0.487214 0.3026052,0.5497981 Q0.2865731,0.6123822 0.2865731,0.6971736 Q0.2865731,0.7698519 0.2958417,0.8243607 Q0.3051102,0.8788694 0.3213928,0.9152087 Q0.3376754,0.9515478 0.3597195,0.9690444 Q0.3817635,0.9865411 0.4073146,0.9865411 Q0.4318637,0.9865411 0.4534068,0.9676985 Q0.4749499,0.9488559 0.4907315,0.9118438 Q0.506513,0.8748317 0.5157816,0.820996 Q0.5250501,0.7671601 0.5250501,0.6971736 Q0.5250501,0.6083446 0.509519,0.5471063 Q0.493988,0.4858681 0.4619239,0.4589502 Q0.484469,0.4320323 0.4977455,0.3788694 Q0.511022,0.3257065 0.511022,0.2611036 Q0.511022,0.2153432 0.50501,0.1716016 Q0.498998,0.12786 0.4862225,0.0935397 Q0.4734469,0.0592194 0.4529058,0.038358 Q0.4323647,0.0174965 0.4033066,0.0174965 Z M0.9198397,0.448183 Q0.8967936,0.448183 0.8812625,0.4703903 Q0.8657315,0.4925976 0.8562124,0.5302826 Q0.8466934,0.5679677 0.8426854,0.6170929 Q0.8386773,0.666218 0.8386773,0.7213997 Q0.8386773,0.7765815 0.8429359,0.8250337 Q0.8471944,0.8734858 0.8567135,0.9091521 Q0.8662324,0.9448183 0.8817635,0.9656797 Q0.8972946,0.9865411 0.9198397,0.9865411 Q0.9418838,0.9865411 0.9569138,0.9643338 Q0.9719439,0.9421265 0.9817134,0.9051144 Q0.9914829,0.8681023 0.9957415,0.8189772 Q1,0.7698519 1,0.7173621 Q1,0.6621803 0.9962425,0.6130552 Q0.992485,0.56393 0.9832164,0.5275908 Q0.9739479,0.4912517 0.9586673,0.4697174 Q0.9433868,0.448183 0.9198397,0.448183 Z M0.9088176,0 L0.6392785,1 L0.6823647,1 L0.9514028,0 Z" style="fill:rgb(0,0,0);stroke:none" clip-path="url(#clip15)" />
</g>
<g transform="matrix(5.798999935388565 0 0 2.2289998531341553 63.38682481863649 9.56208850969876) ">
<clipPath id="clip16"><path d="M-10.5857606,-4.2898561 L30.5899215,-4.2898561 L30.5899215,6.1283691 L-10.5857606,6.1283691 L-10.5857606,-4.2898561 Z" /></clipPath>
<path d="M0.6616658,0.0915208 Q0.6766684,0.0915208 0.6852043,0.1110363 Q0.6937403,0.1305518 0.6983963,0.1594885 Q0.7030522,0.1884252 0.7043456,0.2227456 Q0.7056389,0.2570659 0.7056389,0.2866756 Q0.7056389,0.3176312 0.7040869,0.3526245 Q0.7025349,0.3876177 0.6976203,0.4165545 Q0.6927056,0.4454912 0.683911,0.4643337 Q0.6751164,0.4831763 0.6601138,0.4831763 Q0.6456286,0.4831763 0.6370926,0.4636608 Q0.6285566,0.4441453 0.6239007,0.4152086 Q0.6192447,0.3862719 0.6179514,0.3519515 Q0.616658,0.3176312 0.616658,0.2880215 Q0.616658,0.2570659 0.61821,0.2227456 Q0.619762,0.1884252 0.6246767,0.1594885 Q0.6295913,0.1305518 0.6383859,0.1110363 Q0.6471805,0.0915208 0.6616658,0.0915208 Z M0.378686,0.1184387 Q0.3973099,0.1184387 0.4112778,0.1359353 Q0.4252457,0.153432 0.4348164,0.1837146 Q0.444387,0.2139973 0.4493016,0.2530282 Q0.4542162,0.2920592 0.4542162,0.3364737 Q0.4542162,0.3781965 0.4490429,0.4165545 Q0.4438696,0.4549125 0.4340403,0.4838493 Q0.4242111,0.512786 0.4102431,0.5296097 Q0.3962752,0.5464334 0.3792033,0.5464334 Q0.363166,0.5464334 0.3499741,0.5296097 Q0.3367822,0.512786 0.3272116,0.4845222 Q0.317641,0.4562584 0.312209,0.4199192 Q0.306777,0.3835801 0.306777,0.3445491 Q0.306777,0.3001346 0.310657,0.2597577 Q0.314537,0.2193808 0.323073,0.1877523 Q0.3316089,0.1561238 0.3453182,0.1372812 Q0.3590274,0.1184387 0.378686,0.1184387 Z M0.6616658,0.0174965 Q0.6378686,0.0174965 0.6218313,0.0397038 Q0.6057941,0.0619111 0.5959648,0.0995962 Q0.5861355,0.1372812 0.5819969,0.1864064 Q0.5778583,0.2355316 0.5778583,0.2907133 Q0.5778583,0.345895 0.5822556,0.3943472 Q0.5866529,0.4427994 0.5964822,0.4791386 Q0.6063114,0.5154778 0.6223487,0.5363392 Q0.6383859,0.5572005 0.6616658,0.5572005 Q0.6844284,0.5572005 0.6999483,0.5343203 Q0.7154682,0.5114401 0.7255562,0.474428 Q0.7356441,0.4374159 0.7400414,0.3882907 Q0.7444387,0.3391655 0.7444387,0.2866756 Q0.7444387,0.2314939 0.7405587,0.1823687 Q0.7366787,0.1332436 0.7271081,0.0969044 Q0.7175375,0.0605653 0.701759,0.0390309 Q0.6859803,0.0174965 0.6616658,0.0174965 Z M0.9172271,0.5222073 Q0.9322297,0.5222073 0.9407656,0.5417227 Q0.9493016,0.5612382 0.9539575,0.5901749 Q0.9586136,0.6191117 0.9599069,0.653432 Q0.9612002,0.6877524 0.9612002,0.7173621 Q0.9612002,0.7483177 0.9596482,0.7833109 Q0.9580962,0.8183042 0.9531816,0.847241 Q0.9482669,0.8761776 0.9394724,0.8950202 Q0.9306777,0.9138628 0.9156751,0.9138628 Q0.9011899,0.9138628 0.8926539,0.8943473 Q0.884118,0.8748317 0.879462,0.8458951 Q0.874806,0.8169583 0.8735127,0.782638 Q0.8722193,0.7483177 0.8722193,0.7187079 Q0.8722193,0.6877524 0.8737714,0.653432 Q0.8753233,0.6191117 0.880238,0.5901749 Q0.8851526,0.5612382 0.8939473,0.5417227 Q0.9027418,0.5222073 0.9172271,0.5222073 Z M0.1055354,0.0174965 Q0.1019141,0.0713324 0.0920848,0.1063257 Q0.0822556,0.141319 0.068029,0.1615074 Q0.0538024,0.1816958 0.0362131,0.1890982 Q0.0186239,0.1965006 0,0.1965006 L0,0.2880215 L0.0951888,0.2880215 L0.0951888,0.9717362 L0.1391619,0.9717362 L0.1391619,0.0174965 Z M0.3807553,0.0174965 Q0.3543714,0.0174965 0.3321262,0.0403768 Q0.309881,0.063257 0.2938438,0.1043068 Q0.2778065,0.1453566 0.2690119,0.2025572 Q0.2602173,0.2597577 0.2602173,0.3283984 Q0.2602173,0.3983849 0.2677186,0.4576043 Q0.2752199,0.5168236 0.2899638,0.5585464 Q0.3047077,0.6002691 0.3264356,0.6238223 Q0.3481635,0.6473755 0.3760993,0.6473755 Q0.4030005,0.6473755 0.4257631,0.6117093 Q0.4485256,0.5760431 0.4609415,0.5154778 L0.4619762,0.5181696 Q0.4599069,0.705249 0.439731,0.7960969 Q0.4195551,0.8869449 0.3792033,0.8869449 Q0.3528194,0.8869449 0.3336782,0.8492598 Q0.314537,0.8115748 0.3119503,0.7415882 L0.2679772,0.7415882 Q0.2721159,0.8654105 0.3026384,0.9259758 Q0.3331609,0.9865411 0.3792033,0.9865411 Q0.4459389,0.9865411 0.4762028,0.8539704 Q0.5064666,0.7213997 0.5064666,0.473755 Q0.5064666,0.3378196 0.4963787,0.2496635 Q0.4862908,0.1615074 0.4692188,0.1103634 Q0.4521469,0.0592194 0.4293844,0.038358 Q0.4066218,0.0174965 0.3807553,0.0174965 Z M0.9172271,0.448183 Q0.8934299,0.448183 0.8773927,0.4703903 Q0.8613554,0.4925976 0.8515261,0.5302826 Q0.8416969,0.5679677 0.8375582,0.6170929 Q0.8334195,0.666218 0.8334195,0.7213997 Q0.8334195,0.7765815 0.8378169,0.8250337 Q0.8422142,0.8734858 0.8520435,0.9091521 Q0.8618727,0.9448183 0.87791,0.9656797 Q0.8939473,0.9865411 0.9172271,0.9865411 Q0.9399896,0.9865411 0.9555096,0.9643338 Q0.9710295,0.9421265 0.9811174,0.9051144 Q0.9912054,0.8681023 0.9956027,0.8189772 Q1,0.7698519 1,0.7173621 Q1,0.6621803 0.99612,0.6130552 Q0.99224,0.56393 0.9826694,0.5275908 Q0.9730988,0.4912517 0.9573202,0.4697174 Q0.9415417,0.448183 0.9172271,0.448183 Z M0.9058458,0 L0.627522,1 L0.6720124,1 L0.949819,0 Z" style="fill:rgb(0,0,0);stroke:none" clip-path="url(#clip16)" />
</g>
<g transform="matrix(5.798999935388565 0 0 2.2289998531341553 81.75434618615955 14.324230700360868) ">
<clipPath id="clip17"><path d="M-13.7531207,-6.426304 L27.4225614,-6.426304 L27.4225614,3.9919211 L-13.7531207,3.9919211 L-13.7531207,-6.426304 Z" /></clipPath>
<path d="M0.6616658,0.0915208 Q0.6766684,0.0915208 0.6852043,0.1110363 Q0.6937403,0.1305518 0.6983963,0.1594885 Q0.7030522,0.1884252 0.7043456,0.2227456 Q0.7056389,0.2570659 0.7056389,0.2866756 Q0.7056389,0.3176312 0.7040869,0.3526245 Q0.7025349,0.3876177 0.6976203,0.4165545 Q0.6927056,0.4454912 0.683911,0.4643337 Q0.6751164,0.4831763 0.6601138,0.4831763 Q0.6456286,0.4831763 0.6370926,0.4636608 Q0.6285566,0.4441453 0.6239007,0.4152086 Q0.6192447,0.3862719 0.6179514,0.3519515 Q0.616658,0.3176312 0.616658,0.2880215 Q0.616658,0.2570659 0.61821,0.2227456 Q0.619762,0.1884252 0.6246767,0.1594885 Q0.6295913,0.1305518 0.6383859,0.1110363 Q0.6471805,0.0915208 0.6616658,0.0915208 Z M0.6616658,0.0174965 Q0.6378686,0.0174965 0.6218313,0.0397038 Q0.6057941,0.0619111 0.5959648,0.0995962 Q0.5861355,0.1372812 0.5819969,0.1864064 Q0.5778583,0.2355316 0.5778583,0.2907133 Q0.5778583,0.345895 0.5822556,0.3943472 Q0.5866529,0.4427994 0.5964822,0.4791386 Q0.6063114,0.5154778 0.6223487,0.5363392 Q0.6383859,0.5572005 0.6616658,0.5572005 Q0.6844284,0.5572005 0.6999483,0.5343203 Q0.7154682,0.5114401 0.7255562,0.474428 Q0.7356441,0.4374159 0.7400414,0.3882907 Q0.7444387,0.3391655 0.7444387,0.2866756 Q0.7444387,0.2314939 0.7405587,0.1823687 Q0.7366787,0.1332436 0.7271081,0.0969044 Q0.7175375,0.0605653 0.701759,0.0390309 Q0.6859803,0.0174965 0.6616658,0.0174965 Z M0.386446,0.1184387 Q0.4050698,0.1184387 0.4180031,0.1372812 Q0.4309364,0.1561238 0.4394723,0.1864064 Q0.4480083,0.2166891 0.4524056,0.2570659 Q0.4568029,0.2974428 0.4591309,0.3398385 Q0.4614589,0.3822342 0.4617175,0.4246299 Q0.4619762,0.4670256 0.4619762,0.5020188 Q0.4619762,0.5558546 0.4606829,0.6224764 Q0.4593895,0.6890982 0.4524056,0.7476447 Q0.4454216,0.8061911 0.4299017,0.846568 Q0.4143818,0.8869449 0.386446,0.8869449 Q0.3585101,0.8869449 0.3429902,0.846568 Q0.3274703,0.8061911 0.3204863,0.7476447 Q0.3135023,0.6890982 0.312209,0.6224764 Q0.3109157,0.5558546 0.3109157,0.5020188 Q0.3109157,0.4670256 0.3111743,0.4246299 Q0.311433,0.3822342 0.313761,0.3398385 Q0.316089,0.2974428 0.3204863,0.2570659 Q0.3248836,0.2166891 0.3334196,0.1864064 Q0.3419555,0.1561238 0.3548888,0.1372812 Q0.3678221,0.1184387 0.386446,0.1184387 Z M0.9172271,0.5222073 Q0.9322297,0.5222073 0.9407656,0.5417227 Q0.9493016,0.5612382 0.9539575,0.5901749 Q0.9586136,0.6191117 0.9599069,0.653432 Q0.9612002,0.6877524 0.9612002,0.7173621 Q0.9612002,0.7483177 0.9596482,0.7833109 Q0.9580962,0.8183042 0.9531816,0.847241 Q0.9482669,0.8761776 0.9394724,0.8950202 Q0.9306777,0.9138628 0.9156751,0.9138628 Q0.9011899,0.9138628 0.8926539,0.8943473 Q0.884118,0.8748317 0.879462,0.8458951 Q0.874806,0.8169583 0.8735127,0.782638 Q0.8722193,0.7483177 0.8722193,0.7187079 Q0.8722193,0.6877524 0.8737714,0.653432 Q0.8753233,0.6191117 0.880238,0.5901749 Q0.8851526,0.5612382 0.8939473,0.5417227 Q0.9027418,0.5222073 0.9172271,0.5222073 Z M0.1055354,0.0174965 Q0.1019141,0.0713324 0.0920848,0.1063257 Q0.0822556,0.141319 0.068029,0.1615074 Q0.0538024,0.1816958 0.0362131,0.1890982 Q0.0186239,0.1965006 0,0.1965006 L0,0.2880215 L0.0951888,0.2880215 L0.0951888,0.9717362 L0.1391619,0.9717362 L0.1391619,0.0174965 Z M0.386446,0.0174965 Q0.3579927,0.0174965 0.3375582,0.0390309 Q0.3171236,0.0605653 0.3036731,0.0969044 Q0.2902225,0.1332436 0.2824625,0.1816958 Q0.2747025,0.230148 0.2705639,0.2839838 Q0.2664252,0.3378196 0.2653906,0.3943472 Q0.2643559,0.4508748 0.2643559,0.5033647 Q0.2643559,0.5558546 0.2653906,0.6123822 Q0.2664252,0.6689098 0.2705639,0.7227456 Q0.2747025,0.7765815 0.2824625,0.8243607 Q0.2902225,0.8721399 0.3036731,0.9084791 Q0.3171236,0.9448183 0.3375582,0.9656797 Q0.3579927,0.9865411 0.386446,0.9865411 Q0.4154165,0.9865411 0.4355923,0.9656797 Q0.4557682,0.9448183 0.4692188,0.9084791 Q0.4826694,0.8721399 0.4904294,0.8243607 Q0.4981894,0.7765815 0.502328,0.7227456 Q0.5064666,0.6689098 0.5075013,0.6123822 Q0.508536,0.5558546 0.508536,0.5033647 Q0.508536,0.4508748 0.5075013,0.3943472 Q0.5064666,0.3378196 0.502328,0.2839838 Q0.4981894,0.230148 0.4904294,0.1816958 Q0.4826694,0.1332436 0.4692188,0.0969044 Q0.4557682,0.0605653 0.4353337,0.0390309 Q0.4148991,0.0174965 0.386446,0.0174965 Z M0.9172271,0.448183 Q0.8934299,0.448183 0.8773927,0.4703903 Q0.8613554,0.4925976 0.8515261,0.5302826 Q0.8416969,0.5679677 0.8375582,0.6170929 Q0.8334195,0.666218 0.8334195,0.7213997 Q0.8334195,0.7765815 0.8378169,0.8250337 Q0.8422142,0.8734858 0.8520435,0.9091521 Q0.8618727,0.9448183 0.87791,0.9656797 Q0.8939473,0.9865411 0.9172271,0.9865411 Q0.9399896,0.9865411 0.9555096,0.9643338 Q0.9710295,0.9421265 0.9811174,0.9051144 Q0.9912054,0.8681023 0.9956027,0.8189772 Q1,0.7698519 1,0.7173621 Q1,0.6621803 0.99612,0.6130552 Q0.99224,0.56393 0.9826694,0.5275908 Q0.9730988,0.4912517 0.9573202,0.4697174 Q0.9415417,0.448183 0.9172271,0.448183 Z M0.9058458,0 L0.627522,1 L0.6720124,1 L0.949819,0 Z" style="fill:rgb(0,0,0);stroke:none" clip-path="url(#clip17)" />
</g>
<g transform="matrix(4.287000201642513 0 0 2.2289998531341553 100.87786742055567 17.479570086885627) ">
<clipPath id="clip18"><path d="M-23.0645819,-7.8418893 L32.6335208,-7.8418893 L32.6335208,2.5763358 L-23.0645819,2.5763358 L-23.0645819,-7.8418893 Z" /></clipPath>
<path d="M0.5423373,0.0915208 Q0.5626312,0.0915208 0.5741777,0.1110363 Q0.5857242,0.1305518 0.5920223,0.1594885 Q0.5983205,0.1884252 0.60007,0.2227456 Q0.6018194,0.2570659 0.6018194,0.2866756 Q0.6018194,0.3176312 0.59972,0.3526245 Q0.5976207,0.3876177 0.5909727,0.4165545 Q0.5843247,0.4454912 0.5724282,0.4643337 Q0.5605318,0.4831763 0.5402379,0.4831763 Q0.5206438,0.4831763 0.5090972,0.4636608 Q0.4975507,0.4441453 0.4912526,0.4152086 Q0.4849545,0.3862719 0.483205,0.3519515 Q0.4814555,0.3176312 0.4814555,0.2880215 Q0.4814555,0.2570659 0.4835549,0.2227456 Q0.4856543,0.1884252 0.4923023,0.1594885 Q0.4989503,0.1305518 0.5108467,0.1110363 Q0.5227431,0.0915208 0.5423373,0.0915208 Z M0.5423373,0.0174965 Q0.5101469,0.0174965 0.4884534,0.0397038 Q0.4667599,0.0619111 0.4534639,0.0995962 Q0.4401679,0.1372812 0.4345696,0.1864064 Q0.4289713,0.2355316 0.4289713,0.2907133 Q0.4289713,0.345895 0.4349195,0.3943472 Q0.4408677,0.4427994 0.4541637,0.4791386 Q0.4674597,0.5154778 0.4891532,0.5363392 Q0.5108467,0.5572005 0.5423373,0.5572005 Q0.573128,0.5572005 0.5941217,0.5343203 Q0.6151154,0.5114401 0.6287613,0.474428 Q0.6424072,0.4374159 0.6483555,0.3882907 Q0.6543037,0.3391655 0.6543037,0.2866756 Q0.6543037,0.2314939 0.6490553,0.1823687 Q0.6438068,0.1332436 0.6308607,0.0969044 Q0.6179146,0.0605653 0.596571,0.0390309 Q0.5752274,0.0174965 0.5423373,0.0174965 Z M0.8880335,0.5222073 Q0.9083275,0.5222073 0.919874,0.5417227 Q0.9314205,0.5612382 0.9377186,0.5901749 Q0.9440167,0.6191117 0.9457663,0.653432 Q0.9475157,0.6877524 0.9475157,0.7173621 Q0.9475157,0.7483177 0.9454163,0.7833109 Q0.943317,0.8183042 0.936669,0.847241 Q0.930021,0.8761776 0.9181245,0.8950202 Q0.9062281,0.9138628 0.8859342,0.9138628 Q0.8663401,0.9138628 0.8547935,0.8943473 Q0.843247,0.8748317 0.8369489,0.8458951 Q0.8306507,0.8169583 0.8289013,0.782638 Q0.8271518,0.7483177 0.8271518,0.7187079 Q0.8271518,0.6877524 0.8292512,0.653432 Q0.8313505,0.6191117 0.8379986,0.5901749 Q0.8446466,0.5612382 0.856543,0.5417227 Q0.8684394,0.5222073 0.8880335,0.5222073 Z M0.0594822,0.0336473 L0.013296,0.5289367 L0.0643807,0.5343203 Q0.0818754,0.4939434 0.1046186,0.4690444 Q0.1273618,0.4441453 0.156753,0.4441453 Q0.1819454,0.4441453 0.2025892,0.4602961 Q0.223233,0.4764468 0.2379286,0.5053836 Q0.2526242,0.5343203 0.2606718,0.5740242 Q0.2687194,0.6137282 0.2687194,0.6608344 Q0.2687194,0.7173621 0.2603219,0.7597577 Q0.2519244,0.8021534 0.2375787,0.8304172 Q0.223233,0.858681 0.2039888,0.8728129 Q0.1847446,0.8869449 0.1637509,0.8869449 Q0.1413576,0.8869449 0.1228132,0.8741588 Q0.1042687,0.8613728 0.0906228,0.8378196 Q0.0769769,0.8142665 0.0689293,0.782638 Q0.0608817,0.7510094 0.0594822,0.7146703 L0,0.7146703 Q0.0006998,0.7792733 0.013296,0.8304172 Q0.0258922,0.8815613 0.0475857,0.9158816 Q0.0692792,0.9502019 0.0976207,0.9683715 Q0.1259622,0.9865411 0.1581525,0.9865411 Q0.2015395,0.9865411 0.2340798,0.9602961 Q0.26662,0.9340511 0.2883135,0.8896366 Q0.310007,0.845222 0.3208537,0.7880215 Q0.3317005,0.730821 0.3317005,0.6702557 Q0.3317005,0.5881561 0.3191043,0.5269179 Q0.306508,0.4656796 0.2848145,0.4246299 Q0.2631211,0.3835801 0.2337299,0.3633917 Q0.2043387,0.3432032 0.1714486,0.3432032 Q0.1462561,0.3432032 0.1207138,0.3600269 Q0.0951714,0.3768506 0.0790763,0.4118438 L0.0776767,0.4091521 L0.1042687,0.1345894 L0.3044087,0.1345894 L0.3044087,0.0336473 Z M0.8880335,0.448183 Q0.8558432,0.448183 0.8341497,0.4703903 Q0.8124562,0.4925976 0.7991602,0.5302826 Q0.7858642,0.5679677 0.7802659,0.6170929 Q0.7746675,0.666218 0.7746675,0.7213997 Q0.7746675,0.7765815 0.7806158,0.8250337 Q0.786564,0.8734858 0.79986,0.9091521 Q0.813156,0.9448183 0.8348495,0.9656797 Q0.856543,0.9865411 0.8880335,0.9865411 Q0.9188243,0.9865411 0.939818,0.9643338 Q0.9608117,0.9421265 0.9744576,0.9051144 Q0.9881035,0.8681023 0.9940517,0.8189772 Q1,0.7698519 1,0.7173621 Q1,0.6621803 0.9947516,0.6130552 Q0.9895031,0.56393 0.976557,0.5275908 Q0.9636109,0.4912517 0.9422672,0.4697174 Q0.9209237,0.448183 0.8880335,0.448183 Z M0.8726382,0 L0.4961511,1 L0.5563331,1 L0.9321203,0 Z" style="fill:rgb(0,0,0);stroke:none" clip-path="url(#clip18)" />
</g>
<g transform="matrix(4.302171624023088 0 0 2.2289998531341553 119.23780307688844 18.833138975717667) ">
<clipPath id="clip19"><path d="M-27.2508429,-8.4491432 L28.2508429,-8.4491432 L28.2508429,1.9690819 L-27.2508429,1.9690819 L-27.2508429,-8.4491432 Z" /></clipPath>
<path d="M0.5439512,0.0915208 Q0.5641735,0.0915208 0.5756794,0.1110363 Q0.5871852,0.1305518 0.5934611,0.1594885 Q0.599737,0.1884252 0.6014803,0.2227456 Q0.6032236,0.2570659 0.6032236,0.2866756 Q0.6032236,0.3176312 0.6011316,0.3526245 Q0.5990397,0.3876177 0.5924151,0.4165545 Q0.5857905,0.4454912 0.5739361,0.4643337 Q0.5620816,0.4831763 0.5418592,0.4831763 Q0.5223342,0.4831763 0.5108284,0.4636608 Q0.4993226,0.4441453 0.4930467,0.4152086 Q0.4867708,0.3862719 0.4850275,0.3519515 Q0.4832841,0.3176312 0.4832841,0.2880215 Q0.4832841,0.2570659 0.4853761,0.2227456 Q0.4874681,0.1884252 0.4940926,0.1594885 Q0.5007172,0.1305518 0.5125717,0.1110363 Q0.5244262,0.0915208 0.5439512,0.0915208 Z M0.5439512,0.0174965 Q0.5118744,0.0174965 0.4902574,0.0397038 Q0.4686404,0.0619111 0.4553913,0.0995962 Q0.4421421,0.1372812 0.4365636,0.1864064 Q0.430985,0.2355316 0.430985,0.2907133 Q0.430985,0.345895 0.4369122,0.3943472 Q0.4428395,0.4427994 0.4560886,0.4791386 Q0.4693377,0.5154778 0.4909547,0.5363392 Q0.5125717,0.5572005 0.5439512,0.5572005 Q0.5746334,0.5572005 0.595553,0.5343203 Q0.6164727,0.5114401 0.6300705,0.474428 Q0.6436683,0.4374159 0.6495955,0.3882907 Q0.6555228,0.3391655 0.6555228,0.2866756 Q0.6555228,0.2314939 0.6502929,0.1823687 Q0.6450629,0.1332436 0.6321625,0.0969044 Q0.619262,0.0605653 0.5979937,0.0390309 Q0.5767254,0.0174965 0.5439512,0.0174965 Z M0.8884284,0.5222073 Q0.9086508,0.5222073 0.9201566,0.5417227 Q0.9316624,0.5612382 0.9379383,0.5901749 Q0.9442142,0.6191117 0.9459575,0.653432 Q0.9477007,0.6877524 0.9477007,0.7173621 Q0.9477007,0.7483177 0.9456088,0.7833109 Q0.9435169,0.8183042 0.9368923,0.847241 Q0.9302677,0.8761776 0.9184132,0.8950202 Q0.9065588,0.9138628 0.8863364,0.9138628 Q0.8668114,0.9138628 0.8553056,0.8943473 Q0.8437998,0.8748317 0.8375239,0.8458951 Q0.8312479,0.8169583 0.8295047,0.782638 Q0.8277614,0.7483177 0.8277614,0.7187079 Q0.8277614,0.6877524 0.8298533,0.653432 Q0.8319453,0.6191117 0.8385699,0.5901749 Q0.8451944,0.5612382 0.8570489,0.5417227 Q0.8689034,0.5222073 0.8884284,0.5222073 Z M0.1632133,0.0174965 Q0.1262552,0.0174965 0.0980136,0.0403768 Q0.0697721,0.063257 0.0509444,0.1036339 Q0.0321167,0.1440107 0.0220055,0.2005383 Q0.0118943,0.2570659 0.0104997,0.3257065 L0.0697721,0.3257065 Q0.0697721,0.2839838 0.0753507,0.2462988 Q0.0809292,0.2086137 0.092435,0.1803499 Q0.1039409,0.1520861 0.1217226,0.1352624 Q0.1395043,0.1184387 0.1632133,0.1184387 Q0.2008687,0.1184387 0.2259723,0.1567968 Q0.2510758,0.1951548 0.2510758,0.2718708 Q0.2510758,0.3095558 0.2434053,0.3391655 Q0.2357348,0.3687752 0.2228343,0.3882907 Q0.2099338,0.4078062 0.1928494,0.4179004 Q0.1757651,0.4279946 0.1569373,0.4279946 L0.1374123,0.4279946 Q0.134623,0.4279946 0.1311364,0.4266487 L0.1311364,0.5235531 Q0.1478722,0.5195155 0.1666999,0.5195155 Q0.1890142,0.5195155 0.2081905,0.5309555 Q0.2273669,0.5423957 0.2413133,0.5659488 Q0.2552598,0.589502 0.2636277,0.6238223 Q0.2719955,0.6581427 0.2719955,0.7025572 Q0.2719955,0.7456259 0.263279,0.7799462 Q0.2545625,0.8142665 0.2399187,0.8378196 Q0.2252749,0.8613728 0.2057499,0.8741588 Q0.1862249,0.8869449 0.1646079,0.8869449 Q0.1137034,0.8869449 0.0872051,0.8283984 Q0.0607069,0.7698519 0.0593122,0.6769852 L0.0000398,0.6769852 Q-0.0006575,0.7510094 0.0108483,0.8088829 Q0.0223542,0.8667564 0.0439712,0.9064603 Q0.0655881,0.9461642 0.0962703,0.9663526 Q0.1269525,0.9865411 0.1646079,0.9865411 Q0.199474,0.9865411 0.2305049,0.9683715 Q0.2615357,0.9502019 0.2845473,0.9138628 Q0.307559,0.8775235 0.3211568,0.8230148 Q0.3347545,0.768506 0.3347545,0.6971736 Q0.3347545,0.6110364 0.3127889,0.5477793 Q0.2908232,0.4845222 0.2454973,0.4656796 L0.2454973,0.4629879 Q0.2747848,0.4374159 0.2943098,0.3876177 Q0.3138349,0.3378196 0.3138349,0.2732166 Q0.3138349,0.2072678 0.302329,0.1588156 Q0.2908232,0.1103634 0.2706009,0.0794078 Q0.2503785,0.0484521 0.2228343,0.0329744 Q0.1952901,0.0174965 0.1632133,0.0174965 Z M0.8884284,0.448183 Q0.8563516,0.448183 0.8347346,0.4703903 Q0.8131176,0.4925976 0.7998684,0.5302826 Q0.7866193,0.5679677 0.7810408,0.6170929 Q0.7754622,0.666218 0.7754622,0.7213997 Q0.7754622,0.7765815 0.7813894,0.8250337 Q0.7873167,0.8734858 0.8005658,0.9091521 Q0.8138149,0.9448183 0.8354319,0.9656797 Q0.8570489,0.9865411 0.8884284,0.9865411 Q0.9191106,0.9865411 0.9400302,0.9643338 Q0.9609499,0.9421265 0.9745476,0.9051144 Q0.9881455,0.8681023 0.9940727,0.8189772 Q1,0.7698519 1,0.7173621 Q1,0.6621803 0.9947701,0.6130552 Q0.9895401,0.56393 0.9766397,0.5275908 Q0.9637392,0.4912517 0.9424708,0.4697174 Q0.9212025,0.448183 0.8884284,0.448183 Z M0.8730873,0 L0.4979279,1 L0.5578976,1 L0.9323597,0 Z" style="fill:rgb(0,0,0);stroke:none" clip-path="url(#clip19)" />
</g>
<g transform="matrix(4.131000190973282 0 0 2.2289998531341553 137.69091016093643 19.67575801732797) ">
<clipPath id="clip20"><path d="M-32.8469871,-8.8271688 L24.9544572,-8.8271688 L24.9544572,1.5910563 L-32.8469871,1.5910563 L-32.8469871,-8.8271688 Z" /></clipPath>
<path d="M0.5250545,0.0915208 Q0.5461147,0.0915208 0.5580973,0.1110363 Q0.5700798,0.1305518 0.5766158,0.1594885 Q0.5831518,0.1884252 0.5849673,0.2227456 Q0.5867828,0.2570659 0.5867828,0.2866756 Q0.5867828,0.3176312 0.5846042,0.3526245 Q0.5824255,0.3876177 0.5755265,0.4165545 Q0.5686274,0.4454912 0.5562817,0.4643337 Q0.543936,0.4831763 0.5228758,0.4831763 Q0.5025417,0.4831763 0.4905591,0.4636608 Q0.4785766,0.4441453 0.4720406,0.4152086 Q0.4655047,0.3862719 0.4636892,0.3519515 Q0.4618736,0.3176312 0.4618736,0.2880215 Q0.4618736,0.2570659 0.4640523,0.2227456 Q0.4662309,0.1884252 0.4731299,0.1594885 Q0.480029,0.1305518 0.4923747,0.1110363 Q0.5047204,0.0915208 0.5250545,0.0915208 Z M0.5250545,0.0174965 Q0.4916485,0.0174965 0.4691358,0.0397038 Q0.4466231,0.0619111 0.432825,0.0995962 Q0.4190268,0.1372812 0.4132171,0.1864064 Q0.4074074,0.2355316 0.4074074,0.2907133 Q0.4074074,0.345895 0.4135802,0.3943472 Q0.4197531,0.4427994 0.4335512,0.4791386 Q0.4473493,0.5154778 0.469862,0.5363392 Q0.4923747,0.5572005 0.5250545,0.5572005 Q0.557008,0.5572005 0.5787944,0.5343203 Q0.6005809,0.5114401 0.6147421,0.474428 Q0.6289034,0.4374159 0.6350762,0.3882907 Q0.6412491,0.3391655 0.6412491,0.2866756 Q0.6412491,0.2314939 0.6358024,0.1823687 Q0.6303558,0.1332436 0.6169208,0.0969044 Q0.6034858,0.0605653 0.5813362,0.0390309 Q0.5591866,0.0174965 0.5250545,0.0174965 Z M0.8838053,0.5222073 Q0.9048656,0.5222073 0.9168482,0.5417227 Q0.9288308,0.5612382 0.9353667,0.5901749 Q0.9419026,0.6191117 0.9437182,0.653432 Q0.9455337,0.6877524 0.9455337,0.7173621 Q0.9455337,0.7483177 0.9433551,0.7833109 Q0.9411765,0.8183042 0.9342774,0.847241 Q0.9273783,0.8761776 0.9150326,0.8950202 Q0.902687,0.9138628 0.8816267,0.9138628 Q0.8612926,0.9138628 0.8493101,0.8943473 Q0.8373275,0.8748317 0.8307916,0.8458951 Q0.8242556,0.8169583 0.82244,0.782638 Q0.8206245,0.7483177 0.8206245,0.7187079 Q0.8206245,0.6877524 0.8228032,0.653432 Q0.8249818,0.6191117 0.8318809,0.5901749 Q0.8387799,0.5612382 0.8511256,0.5417227 Q0.8634713,0.5222073 0.8838053,0.5222073 Z M0.1481481,0.0174965 Q0.1430646,0.0713324 0.1292665,0.1063257 Q0.1154684,0.141319 0.0954975,0.1615074 Q0.0755265,0.1816958 0.0508351,0.1890982 Q0.0261438,0.1965006 0,0.1965006 L0,0.2880215 L0.1336238,0.2880215 L0.1336238,0.9717362 L0.1953522,0.9717362 L0.1953522,0.0174965 Z M0.8838053,0.448183 Q0.8503994,0.448183 0.8278867,0.4703903 Q0.805374,0.4925976 0.7915758,0.5302826 Q0.7777777,0.5679677 0.771968,0.6170929 Q0.7661582,0.666218 0.7661582,0.7213997 Q0.7661582,0.7765815 0.7723311,0.8250337 Q0.778504,0.8734858 0.792302,0.9091521 Q0.8061002,0.9448183 0.8286129,0.9656797 Q0.8511256,0.9865411 0.8838053,0.9865411 Q0.9157589,0.9865411 0.9375453,0.9643338 Q0.9593318,0.9421265 0.973493,0.9051144 Q0.9876543,0.8681023 0.9938271,0.8189772 Q1,0.7698519 1,0.7173621 Q1,0.6621803 0.9945534,0.6130552 Q0.9891067,0.56393 0.9756717,0.5275908 Q0.9622367,0.4912517 0.940087,0.4697174 Q0.9179375,0.448183 0.8838053,0.448183 Z M0.8678286,0 L0.4771241,1 L0.5395788,1 L0.9295569,0 Z" style="fill:rgb(0,0,0);stroke:none" clip-path="url(#clip20)" />
</g>
<g transform="matrix(238.977783203125 0 0 0.20000000298023224 1.8999999985098839 23.122222220709883) ">
<path d="M0.0004184,1 L0.9995815,1 L1,1 L1,0 L0.9995815,0 L0.0004184,0 L0,0 L0,1 L0.0004184,1 Z" style="fill:rgb(192,192,192);stroke:none" />
</g>
<g transform="matrix(0 0 0 3 2 21.7222222222) ">
<path d="MNaN,0 LNaN,1 LNaN,1 LNaN,1 LNaN,1 LNaN,0 LNaN,0 LNaN,0 LNaN,0 Z" style="fill:rgb(0,0,0);stroke:none" />
</g>
<g transform="matrix(3.0989999026060104 0 0 2.174999952316284 0.4505000486969948 25.434722246041858) ">
<path d="M0.2284608,0.1103448 Q0.2633107,0.1103448 0.2875121,0.1296552 Q0.3117135,0.1489655 0.3276864,0.18 Q0.3436593,0.2110345 0.3518877,0.2524138 Q0.3601162,0.2937931 0.3644724,0.3372414 Q0.3688287,0.3806896 0.3693127,0.4241379 Q0.3697967,0.4675862 0.3697967,0.5034482 Q0.3697967,0.5586207 0.3673766,0.6268965 Q0.3649564,0.6951724 0.3518877,0.7551724 Q0.338819,0.8151724 0.3097773,0.8565517 Q0.2807357,0.8979311 0.2284608,0.8979311 Q0.1761859,0.8979311 0.1471442,0.8565517 Q0.1181026,0.8151724 0.1050339,0.7551724 Q0.0919652,0.6951724 0.089545,0.6268965 Q0.0871249,0.5586207 0.0871249,0.5034482 Q0.0871249,0.4675862 0.0876089,0.4241379 Q0.0880929,0.3806896 0.0924492,0.3372414 Q0.0968054,0.2937931 0.1050339,0.2524138 Q0.1132623,0.2110345 0.1292352,0.18 Q0.1452081,0.1489655 0.1694095,0.1296552 Q0.1936109,0.1103448 0.2284608,0.1103448 Z M0.5643756,0 L0.5643756,0.9848276 L0.6466602,0.9848276 L0.6466602,0.7144827 L0.7241045,0.6124138 L0.8954502,0.9848276 L1,0.9848276 L0.7870281,0.5310345 L0.9854792,0.2717241 L0.8751211,0.2717241 L0.6466602,0.5834483 L0.6466602,0 Z M0.2284608,0.0068965 Q0.1752178,0.0068965 0.1369797,0.0289655 Q0.0987415,0.0510345 0.0735721,0.0882758 Q0.0484027,0.1255172 0.0338819,0.1751724 Q0.0193611,0.2248276 0.0116167,0.28 Q0.0038722,0.3351724 0.0019361,0.3931035 Q0,0.4510345 0,0.5048276 Q0,0.5586207 0.0019361,0.6165517 Q0.0038722,0.6744828 0.0116167,0.7296551 Q0.0193611,0.7848276 0.0338819,0.8337931 Q0.0484027,0.8827586 0.0735721,0.92 Q0.0987415,0.9572414 0.1369797,0.9786207 Q0.1752178,1 0.2284608,1 Q0.2826718,1 0.3204259,0.9786207 Q0.35818,0.9572414 0.3833495,0.92 Q0.4085189,0.8827586 0.4230397,0.8337931 Q0.4375605,0.7848276 0.445305,0.7296551 Q0.4530494,0.6744828 0.4549855,0.6165517 Q0.4569216,0.5586207 0.4569216,0.5048276 Q0.4569216,0.4510345 0.4549855,0.3931035 Q0.4530494,0.3351724 0.445305,0.28 Q0.4375605,0.2248276 0.4230397,0.1751724 Q0.4085189,0.1255172 0.3833495,0.0882758 Q0.35818,0.0510345 0.3199419,0.0289655 Q0.2817038,0.0068965 0.2284608,0.0068965 Z" style="fill:rgb(0,0,0);stroke:none" />
</g>
<g transform="matrix(0 0 0 3 20.367521286010742 21.7222222222) ">
<path d="MNaN,0 LNaN,1 LNaN,1 LNaN,1 LNaN,1 LNaN,0 LNaN,0 LNaN,0 LNaN,0 Z" style="fill:rgb(0,0,0);stroke:none" />
</g>
<g transform="matrix(3.119999907910824 0 0 2.174999952316284 18.807521413567667 25.434722246041858) ">
<path d="M0.5673077,0 L0.5673077,0.9848276 L0.6490384,0.9848276 L0.6490384,0.7144827 L0.7259615,0.6124138 L0.8961539,0.9848276 L1,0.9848276 L0.7884616,0.5310345 L0.985577,0.2717241 L0.8759616,0.2717241 L0.6490384,0.5834483 L0.6490384,0 Z M0.0817308,0.0234482 L0.0182692,0.5310345 L0.0884615,0.5365517 Q0.1125,0.4951724 0.14375,0.4696552 Q0.175,0.4441379 0.2153846,0.4441379 Q0.25,0.4441379 0.2783654,0.4606897 Q0.3067308,0.4772414 0.3269231,0.5068965 Q0.3471154,0.5365517 0.3581731,0.5772414 Q0.3692308,0.6179311 0.3692308,0.6662069 Q0.3692308,0.724138 0.3576923,0.7675862 Q0.3461538,0.8110345 0.3264423,0.84 Q0.3067308,0.8689655 0.2802885,0.8834483 Q0.2538462,0.8979311 0.225,0.8979311 Q0.1942308,0.8979311 0.16875,0.8848276 Q0.1432692,0.8717241 0.1245192,0.8475862 Q0.1057692,0.8234482 0.0947115,0.7910345 Q0.0836538,0.7586206 0.0817308,0.7213793 L0,0.7213793 Q0.0009615,0.7875863 0.0182692,0.84 Q0.0355769,0.8924138 0.0653846,0.9275862 Q0.0951923,0.9627586 0.1341346,0.9813793 Q0.1730769,1 0.2173077,1 Q0.2769231,1 0.3216346,0.9731034 Q0.3663462,0.9462068 0.3961538,0.9006896 Q0.4259616,0.8551724 0.4408654,0.7965517 Q0.4557692,0.7379311 0.4557692,0.6758621 Q0.4557692,0.5917241 0.4384616,0.5289655 Q0.4211539,0.4662069 0.3913462,0.4241379 Q0.3615385,0.382069 0.3211539,0.3613793 Q0.2807692,0.3406896 0.2355769,0.3406896 Q0.2009615,0.3406896 0.1658654,0.357931 Q0.1307692,0.3751724 0.1086539,0.4110345 L0.1067308,0.4082759 L0.1432692,0.1268965 L0.4182692,0.1268965 L0.4182692,0.0234482 Z" style="fill:rgb(0,0,0);stroke:none" />
</g>
<g transform="matrix(0 0 0 3 38.735042572021484 21.7222222222) ">
<path d="MNaN,0 LNaN,1 LNaN,1 LNaN,1 LNaN,1 LNaN,0 LNaN,0 LNaN,0 LNaN,0 Z" style="fill:rgb(0,0,0);stroke:none" />
</g>
<g transform="matrix(4.632000118494034 0 0 2.174999952316284 36.41904267579914 25.434722246041858) ">
<path d="M0.4838083,0.1103448 Q0.5071243,0.1103448 0.523316,0.1296552 Q0.5395078,0.1489655 0.5501943,0.18 Q0.5608808,0.2110345 0.566386,0.2524138 Q0.5718912,0.2937931 0.5748057,0.3372414 Q0.5777202,0.3806896 0.578044,0.4241379 Q0.5783679,0.4675862 0.5783679,0.5034482 Q0.5783679,0.5586207 0.5767487,0.6268965 Q0.5751295,0.6951724 0.566386,0.7551724 Q0.5576425,0.8151724 0.5382124,0.8565517 Q0.5187824,0.8979311 0.4838083,0.8979311 Q0.4488342,0.8979311 0.4294041,0.8565517 Q0.4099741,0.8151724 0.4012305,0.7551724 Q0.392487,0.6951724 0.3908679,0.6268965 Q0.3892487,0.5586207 0.3892487,0.5034482 Q0.3892487,0.4675862 0.3895725,0.4241379 Q0.3898963,0.3806896 0.3928108,0.3372414 Q0.3957254,0.2937931 0.4012305,0.2524138 Q0.4067357,0.2110345 0.4174223,0.18 Q0.4281088,0.1489655 0.4443005,0.1296552 Q0.4604922,0.1103448 0.4838083,0.1103448 Z M0.1321244,0.0068965 Q0.1275907,0.062069 0.115285,0.097931 Q0.1029793,0.1337931 0.0851684,0.1544827 Q0.0673575,0.1751724 0.0453368,0.1827586 Q0.0233161,0.1903448 0,0.1903448 L0,0.2841379 L0.119171,0.2841379 L0.119171,0.9848276 L0.1742228,0.9848276 L0.1742228,0.0068965 Z M0.7085492,0 L0.7085492,0.9848276 L0.763601,0.9848276 L0.763601,0.7144827 L0.8154145,0.6124138 L0.9300517,0.9848276 L1,0.9848276 L0.8575129,0.5310345 L0.990285,0.2717241 L0.9164508,0.2717241 L0.763601,0.5834483 L0.763601,0 Z M0.4838083,0.0068965 Q0.4481865,0.0068965 0.4226036,0.0289655 Q0.3970207,0.0510345 0.3801814,0.0882758 Q0.363342,0.1255172 0.3536269,0.1751724 Q0.3439119,0.2248276 0.3387305,0.28 Q0.3335492,0.3351724 0.3322539,0.3931035 Q0.3309585,0.4510345 0.3309585,0.5048276 Q0.3309585,0.5586207 0.3322539,0.6165517 Q0.3335492,0.6744828 0.3387305,0.7296551 Q0.3439119,0.7848276 0.3536269,0.8337931 Q0.363342,0.8827586 0.3801814,0.92 Q0.3970207,0.9572414 0.4226036,0.9786207 Q0.4481865,1 0.4838083,1 Q0.5200777,1 0.5453368,0.9786207 Q0.5705958,0.9572414 0.5874352,0.92 Q0.6042746,0.8827586 0.6139896,0.8337931 Q0.6237047,0.7848276 0.628886,0.7296551 Q0.6340673,0.6744828 0.6353627,0.6165517 Q0.636658,0.5586207 0.636658,0.5048276 Q0.636658,0.4510345 0.6353627,0.3931035 Q0.6340673,0.3351724 0.628886,0.28 Q0.6237047,0.2248276 0.6139896,0.1751724 Q0.6042746,0.1255172 0.5874352,0.0882758 Q0.5705958,0.0510345 0.5450129,0.0289655 Q0.51943,0.0068965 0.4838083,0.0068965 Z" style="fill:rgb(0,0,0);stroke:none" />
</g>
<g transform="matrix(0 0 0 3 57.10256576538086 21.7222222222) ">
<path d="MNaN,0 LNaN,1 LNaN,1 LNaN,1 LNaN,1 LNaN,0 LNaN,0 LNaN,0 LNaN,0 Z" style="fill:rgb(0,0,0);stroke:none" />
</g>
<g transform="matrix(4.632000118494034 0 0 2.174999952316284 54.786564043322215 25.434722246041858) ">
<path d="M0.1321244,0.0068965 Q0.1275907,0.062069 0.115285,0.097931 Q0.1029793,0.1337931 0.0851684,0.1544827 Q0.0673575,0.1751724 0.0453368,0.1827586 Q0.0233161,0.1903448 0,0.1903448 L0,0.2841379 L0.119171,0.2841379 L0.119171,0.9848276 L0.1742228,0.9848276 L0.1742228,0.0068965 Z M0.7085492,0 L0.7085492,0.9848276 L0.763601,0.9848276 L0.763601,0.7144827 L0.8154145,0.6124138 L0.9300517,0.9848276 L1,0.9848276 L0.8575129,0.5310345 L0.990285,0.2717241 L0.9164508,0.2717241 L0.763601,0.5834483 L0.763601,0 Z M0.3814766,0.0234482 L0.3387305,0.5310345 L0.3860104,0.5365517 Q0.4022021,0.4951724 0.4232513,0.4696552 Q0.4443005,0.4441379 0.4715026,0.4441379 Q0.4948186,0.4441379 0.5139249,0.4606897 Q0.5330311,0.4772414 0.5466321,0.5068965 Q0.5602331,0.5365517 0.5676813,0.5772414 Q0.5751295,0.6179311 0.5751295,0.6662069 Q0.5751295,0.724138 0.5673575,0.7675862 Q0.5595855,0.8110345 0.5463083,0.84 Q0.5330311,0.8689655 0.5152202,0.8834483 Q0.4974093,0.8979311 0.4779792,0.8979311 Q0.4572539,0.8979311 0.4400907,0.8848276 Q0.4229275,0.8717241 0.4102979,0.8475862 Q0.3976684,0.8234482 0.3902202,0.7910345 Q0.382772,0.7586206 0.3814766,0.7213793 L0.3264249,0.7213793 Q0.3270725,0.7875863 0.3387305,0.84 Q0.3503886,0.8924138 0.3704663,0.9275862 Q0.390544,0.9627586 0.4167746,0.9813793 Q0.4430052,1 0.4727979,1 Q0.5129534,1 0.5430699,0.9731034 Q0.5731865,0.9462068 0.5932642,0.9006896 Q0.613342,0.8551724 0.6233808,0.7965517 Q0.6334197,0.7379311 0.6334197,0.6758621 Q0.6334197,0.5917241 0.6217616,0.5289655 Q0.6101036,0.4662069 0.5900259,0.4241379 Q0.5699482,0.382069 0.5427461,0.3613793 Q0.515544,0.3406896 0.4851036,0.3406896 Q0.4617876,0.3406896 0.4381476,0.357931 Q0.4145078,0.3751724 0.3996114,0.4110345 L0.398316,0.4082759 L0.4229275,0.1268965 L0.6081606,0.1268965 L0.6081606,0.0234482 Z" style="fill:rgb(0,0,0);stroke:none" />
</g>
<g transform="matrix(0 0 0 3 75.47008514404297 21.7222222222) ">
<path d="MNaN,0 LNaN,1 LNaN,1 LNaN,1 LNaN,1 LNaN,0 LNaN,0 LNaN,0 LNaN,0 Z" style="fill:rgb(0,0,0);stroke:none" />
</g>
<g transform="matrix(4.821000128984451 0 0 2.174999952316284 73.05958540560009 25.434722246041858) ">
<path d="M0.5040448,0.1103448 Q0.5264468,0.1103448 0.5420037,0.1296552 Q0.5575607,0.1489655 0.5678282,0.18 Q0.5780958,0.2110345 0.5833852,0.2524138 Q0.5886746,0.2937931 0.5914748,0.3372414 Q0.594275,0.3806896 0.5945862,0.4241379 Q0.5948973,0.4675862 0.5948973,0.5034482 Q0.5948973,0.5586207 0.5933416,0.6268965 Q0.5917859,0.6951724 0.5833852,0.7551724 Q0.5749844,0.8151724 0.5563161,0.8565517 Q0.5376478,0.8979311 0.5040448,0.8979311 Q0.4704418,0.8979311 0.4517735,0.8565517 Q0.4331052,0.8151724 0.4247044,0.7551724 Q0.4163037,0.6951724 0.414748,0.6268965 Q0.4131923,0.5586207 0.4131923,0.5034482 Q0.4131923,0.4675862 0.4135034,0.4241379 Q0.4138145,0.3806896 0.4166148,0.3372414 Q0.4194151,0.2937931 0.4247044,0.2524138 Q0.4299938,0.2110345 0.4402613,0.18 Q0.4505289,0.1489655 0.4660859,0.1296552 Q0.4816428,0.1103448 0.5040448,0.1103448 Z M0.1543248,0.0068965 Q0.1194773,0.0068965 0.0920971,0.0331035 Q0.0647169,0.0593103 0.0463597,0.1055172 Q0.0280025,0.1517241 0.0192906,0.2151724 Q0.0105787,0.2786207 0.0124456,0.3531035 L0.0653391,0.3531035 Q0.0647169,0.3089655 0.0693839,0.2655172 Q0.074051,0.2220689 0.0846297,0.1875862 Q0.0952085,0.1531034 0.1116988,0.1317241 Q0.1281892,0.1103448 0.1512134,0.1103448 Q0.1686372,0.1103448 0.1841941,0.1227586 Q0.1997511,0.1351724 0.2112632,0.1586207 Q0.2227754,0.1820689 0.2296204,0.2144827 Q0.2364655,0.2468965 0.2364655,0.2868965 Q0.2364655,0.337931 0.2293093,0.3765517 Q0.2221531,0.4151724 0.2081518,0.4482758 Q0.1941506,0.4813793 0.1729932,0.5137931 Q0.1518357,0.5462069 0.1238332,0.5848276 Q0.100809,0.6151725 0.0796515,0.6496551 Q0.0584941,0.6841379 0.0416926,0.7296551 Q0.0248911,0.7751724 0.0140012,0.8365517 Q0.0031114,0.8979311 0,0.9848276 L0.2881145,0.9848276 L0.2881145,0.8813794 L0.0616055,0.8813794 Q0.0653391,0.8358621 0.0774735,0.8006896 Q0.089608,0.7655172 0.1067206,0.7351724 Q0.1238332,0.7048276 0.1443684,0.677931 Q0.1649035,0.6510344 0.1854387,0.6234483 Q0.2059739,0.5944828 0.2252645,0.5627586 Q0.2445551,0.5310345 0.2594897,0.4917241 Q0.2744244,0.4524138 0.2834474,0.4027586 Q0.2924704,0.3531035 0.2924704,0.2882759 Q0.2924704,0.2193103 0.2815806,0.1668965 Q0.2706907,0.1144827 0.2520224,0.0793104 Q0.2333541,0.0441379 0.2081518,0.0255173 Q0.1829496,0.0068965 0.1543248,0.0068965 Z M0.7199751,0 L0.7199751,0.9848276 L0.7728687,0.9848276 L0.7728687,0.7144827 L0.8226509,0.6124138 L0.932794,0.9848276 L1,0.9848276 L0.8630989,0.5310345 L0.9906658,0.2717241 L0.9197262,0.2717241 L0.7728687,0.5834483 L0.7728687,0 Z M0.5040448,0.0068965 Q0.4698195,0.0068965 0.4452395,0.0289655 Q0.4206596,0.0510345 0.4044804,0.0882758 Q0.3883012,0.1255172 0.378967,0.1751724 Q0.3696328,0.2248276 0.3646546,0.28 Q0.3596764,0.3351724 0.3584318,0.3931035 Q0.3571873,0.4510345 0.3571873,0.5048276 Q0.3571873,0.5586207 0.3584318,0.6165517 Q0.3596764,0.6744828 0.3646546,0.7296551 Q0.3696328,0.7848276 0.378967,0.8337931 Q0.3883012,0.8827586 0.4044804,0.92 Q0.4206596,0.9572414 0.4452395,0.9786207 Q0.4698195,1 0.5040448,1 Q0.5388923,1 0.5631611,0.9786207 Q0.58743,0.9572414 0.6036092,0.92 Q0.6197884,0.8827586 0.6291226,0.8337931 Q0.6384568,0.7848276 0.643435,0.7296551 Q0.6484132,0.6744828 0.6496577,0.6165517 Q0.6509023,0.5586207 0.6509023,0.5048276 Q0.6509023,0.4510345 0.6496577,0.3931035 Q0.6484132,0.3351724 0.643435,0.28 Q0.6384568,0.2248276 0.6291226,0.1751724 Q0.6197884,0.1255172 0.6036092,0.0882758 Q0.58743,0.0510345 0.56285,0.0289655 Q0.5382701,0.0068965 0.5040448,0.0068965 Z" style="fill:rgb(0,0,0);stroke:none" />
</g>
<g transform="matrix(0 0 0 3 93.83760833740234 21.7222222222) ">
<path d="MNaN,0 LNaN,1 LNaN,1 LNaN,1 LNaN,1 LNaN,0 LNaN,0 LNaN,0 LNaN,0 Z" style="fill:rgb(0,0,0);stroke:none" />
</g>
<g transform="matrix(4.821000128984451 0 0 2.174999952316284 91.42710677312316 25.434722246041858) ">
<path d="M0.1543248,0.0068965 Q0.1194773,0.0068965 0.0920971,0.0331035 Q0.0647169,0.0593103 0.0463597,0.1055172 Q0.0280025,0.1517241 0.0192906,0.2151724 Q0.0105787,0.2786207 0.0124456,0.3531035 L0.0653391,0.3531035 Q0.0647169,0.3089655 0.0693839,0.2655172 Q0.074051,0.2220689 0.0846297,0.1875862 Q0.0952085,0.1531034 0.1116988,0.1317241 Q0.1281892,0.1103448 0.1512134,0.1103448 Q0.1686372,0.1103448 0.1841941,0.1227586 Q0.1997511,0.1351724 0.2112632,0.1586207 Q0.2227754,0.1820689 0.2296204,0.2144827 Q0.2364655,0.2468965 0.2364655,0.2868965 Q0.2364655,0.337931 0.2293093,0.3765517 Q0.2221531,0.4151724 0.2081518,0.4482758 Q0.1941506,0.4813793 0.1729932,0.5137931 Q0.1518357,0.5462069 0.1238332,0.5848276 Q0.100809,0.6151725 0.0796515,0.6496551 Q0.0584941,0.6841379 0.0416926,0.7296551 Q0.0248911,0.7751724 0.0140012,0.8365517 Q0.0031114,0.8979311 0,0.9848276 L0.2881145,0.9848276 L0.2881145,0.8813794 L0.0616055,0.8813794 Q0.0653391,0.8358621 0.0774735,0.8006896 Q0.089608,0.7655172 0.1067206,0.7351724 Q0.1238332,0.7048276 0.1443684,0.677931 Q0.1649035,0.6510344 0.1854387,0.6234483 Q0.2059739,0.5944828 0.2252645,0.5627586 Q0.2445551,0.5310345 0.2594897,0.4917241 Q0.2744244,0.4524138 0.2834474,0.4027586 Q0.2924704,0.3531035 0.2924704,0.2882759 Q0.2924704,0.2193103 0.2815806,0.1668965 Q0.2706907,0.1144827 0.2520224,0.0793104 Q0.2333541,0.0441379 0.2081518,0.0255173 Q0.1829496,0.0068965 0.1543248,0.0068965 Z M0.7199751,0 L0.7199751,0.9848276 L0.7728687,0.9848276 L0.7728687,0.7144827 L0.8226509,0.6124138 L0.932794,0.9848276 L1,0.9848276 L0.8630989,0.5310345 L0.9906658,0.2717241 L0.9197262,0.2717241 L0.7728687,0.5834483 L0.7728687,0 Z M0.4057249,0.0234482 L0.3646546,0.5310345 L0.4100809,0.5365517 Q0.4256378,0.4951724 0.4458618,0.4696552 Q0.4660859,0.4441379 0.4922215,0.4441379 Q0.5146235,0.4441379 0.5329807,0.4606897 Q0.5513379,0.4772414 0.5644057,0.5068965 Q0.5774735,0.5365517 0.5846297,0.5772414 Q0.5917859,0.6179311 0.5917859,0.6662069 Q0.5917859,0.724138 0.5843186,0.7675862 Q0.5768512,0.8110345 0.5640946,0.84 Q0.5513379,0.8689655 0.5342253,0.8834483 Q0.5171126,0.8979311 0.4984443,0.8979311 Q0.4785314,0.8979311 0.4620411,0.8848276 Q0.4455507,0.8717241 0.4334163,0.8475862 Q0.4212819,0.8234482 0.4141257,0.7910345 Q0.4069695,0.7586206 0.4057249,0.7213793 L0.3528314,0.7213793 Q0.3534536,0.7875863 0.3646546,0.84 Q0.3758556,0.8924138 0.3951462,0.9275862 Q0.4144368,0.9627586 0.4396391,0.9813793 Q0.4648413,1 0.4934661,1 Q0.5320473,1 0.5609832,0.9731034 Q0.5899191,0.9462068 0.6092097,0.9006896 Q0.6285003,0.8551724 0.6381456,0.7965517 Q0.6477909,0.7379311 0.6477909,0.6758621 Q0.6477909,0.5917241 0.6365899,0.5289655 Q0.6253889,0.4662069 0.6060983,0.4241379 Q0.5868077,0.382069 0.5606721,0.3613793 Q0.5345364,0.3406896 0.5052893,0.3406896 Q0.4828874,0.3406896 0.4601742,0.357931 Q0.4374611,0.3751724 0.4231487,0.4110345 L0.4219041,0.4082759 L0.4455507,0.1268965 L0.6235221,0.1268965 L0.6235221,0.0234482 Z" style="fill:rgb(0,0,0);stroke:none" />
</g>
<g transform="matrix(0 0 0 3 112.20513153076172 21.7222222222) ">
<path d="MNaN,0 LNaN,1 LNaN,1 LNaN,1 LNaN,1 LNaN,0 LNaN,0 LNaN,0 LNaN,0 Z" style="fill:rgb(0,0,0);stroke:none" />
</g>
<g transform="matrix(4.80317155154384 0 0 2.174999952316284 109.80354242936654 25.434722246041858) ">
<path d="M0.5022039,0.1103448 Q0.524689,0.1103448 0.5403037,0.1296552 Q0.5559184,0.1489655 0.5662241,0.18 Q0.5765298,0.2110345 0.5818388,0.2524138 Q0.5871478,0.2937931 0.5899584,0.3372414 Q0.5927691,0.3806896 0.5930813,0.4241379 Q0.5933936,0.4675862 0.5933936,0.5034482 Q0.5933936,0.5586207 0.5918321,0.6268965 Q0.5902707,0.6951724 0.5818388,0.7551724 Q0.5734069,0.8151724 0.5546692,0.8565517 Q0.5359316,0.8979311 0.5022039,0.8979311 Q0.4684762,0.8979311 0.4497386,0.8565517 Q0.431001,0.8151724 0.422569,0.7551724 Q0.4141371,0.6951724 0.4125756,0.6268965 Q0.4110141,0.5586207 0.4110141,0.5034482 Q0.4110141,0.4675862 0.4113264,0.4241379 Q0.4116387,0.3806896 0.4144493,0.3372414 Q0.41726,0.2937931 0.422569,0.2524138 Q0.427878,0.2110345 0.4381837,0.18 Q0.4484894,0.1489655 0.4641041,0.1296552 Q0.4797188,0.1103448 0.5022039,0.1103448 Z M0.7189357,0 L0.7189357,0.9848276 L0.7720256,0.9848276 L0.7720256,0.7144827 L0.8219926,0.6124138 L0.9325445,0.9848276 L1,0.9848276 L0.8625907,0.5310345 L0.9906312,0.2717241 L0.9194282,0.2717241 L0.7720256,0.5834483 L0.7720256,0 Z M0.1461891,0.0068965 Q0.113086,0.0068965 0.0877902,0.0303448 Q0.0624944,0.053793 0.0456306,0.0951724 Q0.0287667,0.1365517 0.0197102,0.1944828 Q0.0106537,0.2524138 0.0094045,0.3227586 L0.0624944,0.3227586 Q0.0624944,0.28 0.0674911,0.2413793 Q0.0724878,0.2027586 0.0827935,0.1737931 Q0.0930992,0.1448276 0.1090262,0.1275862 Q0.1249532,0.1103448 0.1461891,0.1103448 Q0.1799168,0.1103448 0.202402,0.1496552 Q0.2248871,0.1889655 0.2248871,0.2675862 Q0.2248871,0.3062069 0.2180167,0.3365517 Q0.2111462,0.3668965 0.1995913,0.3868965 Q0.1880365,0.4068966 0.1727341,0.4172413 Q0.1574317,0.4275862 0.1405678,0.4275862 L0.1230794,0.4275862 Q0.120581,0.4275862 0.1174581,0.4262069 L0.1174581,0.5255172 Q0.1324482,0.5213793 0.1493121,0.5213793 Q0.1692989,0.5213793 0.186475,0.5331034 Q0.2036511,0.5448276 0.2161429,0.5689655 Q0.2286346,0.5931034 0.2361297,0.6282758 Q0.2436247,0.6634483 0.2436247,0.7089656 Q0.2436247,0.7531035 0.2358174,0.7882759 Q0.22801,0.8234482 0.2148937,0.8475862 Q0.2017774,0.8717241 0.184289,0.8848276 Q0.1668005,0.8979311 0.1474383,0.8979311 Q0.1018434,0.8979311 0.0781091,0.837931 Q0.0543748,0.777931 0.0531256,0.6827586 L0.0000357,0.6827586 Q-0.0005889,0.7586206 0.0097168,0.8179311 Q0.0200225,0.8772414 0.0393847,0.9179311 Q0.0587469,0.9586207 0.0862287,0.9793103 Q0.1137106,1 0.1474383,1 Q0.1786677,1 0.2064618,0.9813793 Q0.2342559,0.9627586 0.2548673,0.9255173 Q0.2754787,0.8882758 0.2876582,0.8324138 Q0.2998376,0.7765517 0.2998376,0.7034483 Q0.2998376,0.6151725 0.2801631,0.5503449 Q0.2604886,0.4855172 0.2198904,0.4662069 L0.2198904,0.4634483 Q0.2461231,0.4372414 0.2636115,0.3862069 Q0.2811,0.3351724 0.2811,0.2689655 Q0.2811,0.2013793 0.2707943,0.1517241 Q0.2604886,0.102069 0.2423756,0.0703448 Q0.2242625,0.0386206 0.1995913,0.0227586 Q0.1749201,0.0068965 0.1461891,0.0068965 Z M0.5022039,0.0068965 Q0.4678516,0.0068965 0.4431804,0.0289655 Q0.4185092,0.0510345 0.4022699,0.0882758 Q0.3860306,0.1255172 0.3766618,0.1751724 Q0.367293,0.2248276 0.3622963,0.28 Q0.3572996,0.3351724 0.3560504,0.3931035 Q0.3548013,0.4510345 0.3548013,0.5048276 Q0.3548013,0.5586207 0.3560504,0.6165517 Q0.3572996,0.6744828 0.3622963,0.7296551 Q0.367293,0.7848276 0.3766618,0.8337931 Q0.3860306,0.8827586 0.4022699,0.92 Q0.4185092,0.9572414 0.4431804,0.9786207 Q0.4678516,1 0.5022039,1 Q0.5371808,1 0.5615397,0.9786207 Q0.5858986,0.9572414 0.6021378,0.92 Q0.6183771,0.8827586 0.6277459,0.8337931 Q0.6371148,0.7848276 0.6421115,0.7296551 Q0.6471081,0.6744828 0.6483573,0.6165517 Q0.6496065,0.5586207 0.6496065,0.5048276 Q0.6496065,0.4510345 0.6483573,0.3931035 Q0.6471081,0.3351724 0.6421115,0.28 Q0.6371148,0.2248276 0.6277459,0.1751724 Q0.6183771,0.1255172 0.6021378,0.0882758 Q0.5858986,0.0510345 0.5612274,0.0289655 Q0.5365562,0.0068965 0.5022039,0.0068965 Z" style="fill:rgb(0,0,0);stroke:none" />
</g>
<g transform="matrix(0 0 0 3 130.57264709472656 21.7222222222) ">
<path d="MNaN,0 LNaN,1 LNaN,1 LNaN,1 LNaN,1 LNaN,0 LNaN,0 LNaN,0 LNaN,0 Z" style="fill:rgb(0,0,0);stroke:none" />
</g>
<g transform="matrix(4.80317155154384 0 0 2.174999952316284 128.17106379688963 25.434722246041858) ">
<path d="M0.7189357,0 L0.7189357,0.9848276 L0.7720256,0.9848276 L0.7720256,0.7144827 L0.8219926,0.6124138 L0.9325445,0.9848276 L1,0.9848276 L0.8625907,0.5310345 L0.9906312,0.2717241 L0.9194282,0.2717241 L0.7720256,0.5834483 L0.7720256,0 Z M0.1461891,0.0068965 Q0.113086,0.0068965 0.0877902,0.0303448 Q0.0624944,0.053793 0.0456306,0.0951724 Q0.0287667,0.1365517 0.0197102,0.1944828 Q0.0106537,0.2524138 0.0094045,0.3227586 L0.0624944,0.3227586 Q0.0624944,0.28 0.0674911,0.2413793 Q0.0724878,0.2027586 0.0827935,0.1737931 Q0.0930992,0.1448276 0.1090262,0.1275862 Q0.1249532,0.1103448 0.1461891,0.1103448 Q0.1799168,0.1103448 0.202402,0.1496552 Q0.2248871,0.1889655 0.2248871,0.2675862 Q0.2248871,0.3062069 0.2180167,0.3365517 Q0.2111462,0.3668965 0.1995913,0.3868965 Q0.1880365,0.4068966 0.1727341,0.4172413 Q0.1574317,0.4275862 0.1405678,0.4275862 L0.1230794,0.4275862 Q0.120581,0.4275862 0.1174581,0.4262069 L0.1174581,0.5255172 Q0.1324482,0.5213793 0.1493121,0.5213793 Q0.1692989,0.5213793 0.186475,0.5331034 Q0.2036511,0.5448276 0.2161429,0.5689655 Q0.2286346,0.5931034 0.2361297,0.6282758 Q0.2436247,0.6634483 0.2436247,0.7089656 Q0.2436247,0.7531035 0.2358174,0.7882759 Q0.22801,0.8234482 0.2148937,0.8475862 Q0.2017774,0.8717241 0.184289,0.8848276 Q0.1668005,0.8979311 0.1474383,0.8979311 Q0.1018434,0.8979311 0.0781091,0.837931 Q0.0543748,0.777931 0.0531256,0.6827586 L0.0000357,0.6827586 Q-0.0005889,0.7586206 0.0097168,0.8179311 Q0.0200225,0.8772414 0.0393847,0.9179311 Q0.0587469,0.9586207 0.0862287,0.9793103 Q0.1137106,1 0.1474383,1 Q0.1786677,1 0.2064618,0.9813793 Q0.2342559,0.9627586 0.2548673,0.9255173 Q0.2754787,0.8882758 0.2876582,0.8324138 Q0.2998376,0.7765517 0.2998376,0.7034483 Q0.2998376,0.6151725 0.2801631,0.5503449 Q0.2604886,0.4855172 0.2198904,0.4662069 L0.2198904,0.4634483 Q0.2461231,0.4372414 0.2636115,0.3862069 Q0.2811,0.3351724 0.2811,0.2689655 Q0.2811,0.2013793 0.2707943,0.1517241 Q0.2604886,0.102069 0.2423756,0.0703448 Q0.2242625,0.0386206 0.1995913,0.0227586 Q0.1749201,0.0068965 0.1461891,0.0068965 Z M0.4035191,0.0234482 L0.3622963,0.5310345 L0.4078912,0.5365517 Q0.4235059,0.4951724 0.443805,0.4696552 Q0.4641041,0.4441379 0.4903367,0.4441379 Q0.5128219,0.4441379 0.5312472,0.4606897 Q0.5496725,0.4772414 0.5627889,0.5068965 Q0.5759052,0.5365517 0.583088,0.5772414 Q0.5902707,0.6179311 0.5902707,0.6662069 Q0.5902707,0.724138 0.5827756,0.7675862 Q0.5752806,0.8110345 0.5624766,0.84 Q0.5496725,0.8689655 0.5324964,0.8834483 Q0.5153202,0.8979311 0.4965826,0.8979311 Q0.4765958,0.8979311 0.4600442,0.8848276 Q0.4434927,0.8717241 0.4313132,0.8475862 Q0.4191338,0.8234482 0.411951,0.7910345 Q0.4047683,0.7586206 0.4035191,0.7213793 L0.3504292,0.7213793 Q0.3510538,0.7875863 0.3622963,0.84 Q0.3735389,0.8924138 0.3929011,0.9275862 Q0.4122633,0.9627586 0.4375591,0.9813793 Q0.4628549,1 0.4915859,1 Q0.5303103,1 0.5593536,0.9731034 Q0.5883969,0.9462068 0.6077592,0.9006896 Q0.6271213,0.8551724 0.6368024,0.7965517 Q0.6464835,0.7379311 0.6464835,0.6758621 Q0.6464835,0.5917241 0.635241,0.5289655 Q0.6239984,0.4662069 0.6046362,0.4241379 Q0.585274,0.382069 0.5590414,0.3613793 Q0.5328087,0.3406896 0.503453,0.3406896 Q0.4809679,0.3406896 0.4581705,0.357931 Q0.435373,0.3751724 0.4210075,0.4110345 L0.4197584,0.4082759 L0.4434927,0.1268965 L0.6221247,0.1268965 L0.6221247,0.0234482 Z" style="fill:rgb(0,0,0);stroke:none" />
</g>
<g transform="matrix(0 0 0 3 148.94017028808594 21.7222222222) ">
<path d="MNaN,0 LNaN,1 LNaN,1 LNaN,1 LNaN,1 LNaN,0 LNaN,0 LNaN,0 LNaN,0 Z" style="fill:rgb(0,0,0);stroke:none" />
</g>
<g transform="matrix(4.809000127017498 0 0 2.174999952316284 146.53567087667588 25.434722246041858) ">
<path d="M0.1940112,0.1737931 L0.1940112,0.6524138 L0.0455396,0.6524138 L0.1927636,0.1737931 Z M0.5028072,0.1103448 Q0.5252651,0.1103448 0.5408609,0.1296552 Q0.5564566,0.1489655 0.5667498,0.18 Q0.577043,0.2110345 0.5823456,0.2524138 Q0.5876482,0.2937931 0.5904554,0.3372414 Q0.5932626,0.3806896 0.5935745,0.4241379 Q0.5938865,0.4675862 0.5938865,0.5034482 Q0.5938865,0.5586207 0.5923268,0.6268965 Q0.5907673,0.6951724 0.5823456,0.7551724 Q0.5739239,0.8151724 0.555209,0.8565517 Q0.5364941,0.8979311 0.5028072,0.8979311 Q0.4691204,0.8979311 0.4504055,0.8565517 Q0.4316906,0.8151724 0.4232688,0.7551724 Q0.4148472,0.6951724 0.4132876,0.6268965 Q0.411728,0.5586207 0.411728,0.5034482 Q0.411728,0.4675862 0.4120399,0.4241379 Q0.4123518,0.3806896 0.415159,0.3372414 Q0.4179663,0.2937931 0.4232688,0.2524138 Q0.4285714,0.2110345 0.4388646,0.18 Q0.4491578,0.1489655 0.4647536,0.1296552 Q0.4803493,0.1103448 0.5028072,0.1103448 Z M0.2014972,0.0068965 L0,0.6427586 L0,0.7558621 L0.1940112,0.7558621 L0.1940112,0.9848276 L0.2439176,0.9848276 L0.2439176,0.7558621 L0.3038053,0.7558621 L0.3038053,0.6524138 L0.2439176,0.6524138 L0.2439176,0.0068965 Z M0.7192763,0 L0.7192763,0.9848276 L0.7723019,0.9848276 L0.7723019,0.7144827 L0.8222084,0.6124138 L0.9326263,0.9848276 L1,0.9848276 L0.8627573,0.5310345 L0.9906425,0.2717241 L0.9195259,0.2717241 L0.7723019,0.5834483 L0.7723019,0 Z M0.5028072,0.0068965 Q0.4684965,0.0068965 0.4438552,0.0289655 Q0.4192139,0.0510345 0.4029944,0.0882758 Q0.3867748,0.1255172 0.3774173,0.1751724 Q0.3680599,0.2248276 0.3630692,0.28 Q0.3580786,0.3351724 0.3568309,0.3931035 Q0.3555833,0.4510345 0.3555833,0.5048276 Q0.3555833,0.5586207 0.3568309,0.6165517 Q0.3580786,0.6744828 0.3630692,0.7296551 Q0.3680599,0.7848276 0.3774173,0.8337931 Q0.3867748,0.8827586 0.4029944,0.92 Q0.4192139,0.9572414 0.4438552,0.9786207 Q0.4684965,1 0.5028072,1 Q0.5377417,1 0.5620711,0.9786207 Q0.5864005,0.9572414 0.60262,0.92 Q0.6188396,0.8827586 0.6281971,0.8337931 Q0.6375546,0.7848276 0.6425452,0.7296551 Q0.6475358,0.6744828 0.6487835,0.6165517 Q0.6500312,0.5586207 0.6500312,0.5048276 Q0.6500312,0.4510345 0.6487835,0.3931035 Q0.6475358,0.3351724 0.6425452,0.28 Q0.6375546,0.2248276 0.6281971,0.1751724 Q0.6188396,0.1255172 0.60262,0.0882758 Q0.5864005,0.0510345 0.5617592,0.0289655 Q0.5371179,0.0068965 0.5028072,0.0068965 Z" style="fill:rgb(0,0,0);stroke:none" />
</g>
<g transform="matrix(0 0 0 3 167.3076934814453 21.7222222222) ">
<path d="MNaN,0 LNaN,1 LNaN,1 LNaN,1 LNaN,1 LNaN,0 LNaN,0 LNaN,0 LNaN,0 Z" style="fill:rgb(0,0,0);stroke:none" />
</g>
<g transform="matrix(4.809000127017498 0 0 2.174999952316284 164.90319224419895 25.434722246041858) ">
<path d="M0.1940112,0.1737931 L0.1940112,0.6524138 L0.0455396,0.6524138 L0.1927636,0.1737931 Z M0.2014972,0.0068965 L0,0.6427586 L0,0.7558621 L0.1940112,0.7558621 L0.1940112,0.9848276 L0.2439176,0.9848276 L0.2439176,0.7558621 L0.3038053,0.7558621 L0.3038053,0.6524138 L0.2439176,0.6524138 L0.2439176,0.0068965 Z M0.7192763,0 L0.7192763,0.9848276 L0.7723019,0.9848276 L0.7723019,0.7144827 L0.8222084,0.6124138 L0.9326263,0.9848276 L1,0.9848276 L0.8627573,0.5310345 L0.9906425,0.2717241 L0.9195259,0.2717241 L0.7723019,0.5834483 L0.7723019,0 Z M0.404242,0.0234482 L0.3630692,0.5310345 L0.4086089,0.5365517 Q0.4242046,0.4951724 0.4444791,0.4696552 Q0.4647536,0.4441379 0.4909544,0.4441379 Q0.5134123,0.4441379 0.5318153,0.4606897 Q0.5502183,0.4772414 0.5633188,0.5068965 Q0.5764192,0.5365517 0.5835933,0.5772414 Q0.5907673,0.6179311 0.5907673,0.6662069 Q0.5907673,0.724138 0.5832813,0.7675862 Q0.5757954,0.8110345 0.5630069,0.84 Q0.5502183,0.8689655 0.533063,0.8834483 Q0.5159077,0.8979311 0.4971927,0.8979311 Q0.4772302,0.8979311 0.4606987,0.8848276 Q0.4441672,0.8717241 0.4320025,0.8475862 Q0.4198378,0.8234482 0.4126638,0.7910345 Q0.4054897,0.7586206 0.404242,0.7213793 L0.3512165,0.7213793 Q0.3518403,0.7875863 0.3630692,0.84 Q0.3742982,0.8924138 0.3936369,0.9275862 Q0.4129756,0.9627586 0.4382408,0.9813793 Q0.4635059,1 0.4922021,1 Q0.5308796,1 0.5598877,0.9731034 Q0.5888958,0.9462068 0.6082346,0.9006896 Q0.6275733,0.8551724 0.6372426,0.7965517 Q0.646912,0.7379311 0.646912,0.6758621 Q0.646912,0.5917241 0.6356831,0.5289655 Q0.6244541,0.4662069 0.6051154,0.4241379 Q0.5857767,0.382069 0.5595758,0.3613793 Q0.5333749,0.3406896 0.5040549,0.3406896 Q0.481597,0.3406896 0.4588272,0.357931 Q0.4360574,0.3751724 0.4217093,0.4110345 L0.4204616,0.4082759 L0.4441672,0.1268965 L0.6225827,0.1268965 L0.6225827,0.0234482 Z" style="fill:rgb(0,0,0);stroke:none" />
</g>
<g transform="matrix(0 0 0 3 185.6752166748047 21.7222222222) ">
<path d="MNaN,0 LNaN,1 LNaN,1 LNaN,1 LNaN,1 LNaN,0 LNaN,0 LNaN,0 LNaN,0 Z" style="fill:rgb(0,0,0);stroke:none" />
</g>
<g transform="matrix(4.788000129163265 0 0 2.174999952316284 183.28121361064913 25.434722246041858) ">
<path d="M0.5006266,0.1103448 Q0.5231829,0.1103448 0.5388471,0.1296552 Q0.5545113,0.1489655 0.5648496,0.18 Q0.5751879,0.2110345 0.5805138,0.2524138 Q0.5858396,0.2937931 0.5886591,0.3372414 Q0.5914787,0.3806896 0.5917919,0.4241379 Q0.5921053,0.4675862 0.5921053,0.5034482 Q0.5921053,0.5586207 0.5905388,0.6268965 Q0.5889724,0.6951724 0.5805138,0.7551724 Q0.5720551,0.8151724 0.5532581,0.8565517 Q0.5344611,0.8979311 0.5006266,0.8979311 Q0.466792,0.8979311 0.447995,0.8565517 Q0.429198,0.8151724 0.4207393,0.7551724 Q0.4122807,0.6951724 0.4107143,0.6268965 Q0.4091478,0.5586207 0.4091478,0.5034482 Q0.4091478,0.4675862 0.4094611,0.4241379 Q0.4097744,0.3806896 0.412594,0.3372414 Q0.4154135,0.2937931 0.4207393,0.2524138 Q0.4260651,0.2110345 0.4364035,0.18 Q0.4467418,0.1489655 0.462406,0.1296552 Q0.4780702,0.1103448 0.5006266,0.1103448 Z M0.7180451,0 L0.7180451,0.9848276 L0.7713032,0.9848276 L0.7713032,0.7144827 L0.8214286,0.6124138 L0.9323308,0.9848276 L1,0.9848276 L0.8621553,0.5310345 L0.9906015,0.2717241 L0.9191729,0.2717241 L0.7713032,0.5834483 L0.7713032,0 Z M0.0532581,0.0234482 L0.0119048,0.5310345 L0.0576441,0.5365517 Q0.0733083,0.4951724 0.0936717,0.4696552 Q0.1140351,0.4441379 0.1403509,0.4441379 Q0.1629073,0.4441379 0.181391,0.4606897 Q0.1998747,0.4772414 0.2130326,0.5068965 Q0.2261905,0.5365517 0.233396,0.5772414 Q0.2406015,0.6179311 0.2406015,0.6662069 Q0.2406015,0.724138 0.2330827,0.7675862 Q0.2255639,0.8110345 0.2127193,0.84 Q0.1998747,0.8689655 0.1826441,0.8834483 Q0.1654135,0.8979311 0.1466165,0.8979311 Q0.1265664,0.8979311 0.1099624,0.8848276 Q0.0933584,0.8717241 0.0811403,0.8475862 Q0.0689223,0.8234482 0.0617168,0.7910345 Q0.0545113,0.7586206 0.0532581,0.7213793 L0,0.7213793 Q0.0006266,0.7875863 0.0119048,0.84 Q0.023183,0.8924138 0.0426065,0.9275862 Q0.0620301,0.9627586 0.087406,0.9813793 Q0.1127819,1 0.141604,1 Q0.1804511,1 0.2095865,0.9731034 Q0.2387218,0.9462068 0.2581453,0.9006896 Q0.2775689,0.8551724 0.2872807,0.7965517 Q0.2969925,0.7379311 0.2969925,0.6758621 Q0.2969925,0.5917241 0.2857143,0.5289655 Q0.2744361,0.4662069 0.2550125,0.4241379 Q0.235589,0.382069 0.2092732,0.3613793 Q0.1829574,0.3406896 0.1535088,0.3406896 Q0.1309524,0.3406896 0.1080827,0.357931 Q0.085213,0.3751724 0.070802,0.4110345 L0.0695489,0.4082759 L0.0933584,0.1268965 L0.2725564,0.1268965 L0.2725564,0.0234482 Z M0.5006266,0.0068965 Q0.4661654,0.0068965 0.441416,0.0289655 Q0.4166666,0.0510345 0.4003759,0.0882758 Q0.3840852,0.1255172 0.3746867,0.1751724 Q0.3652882,0.2248276 0.3602757,0.28 Q0.3552631,0.3351724 0.35401,0.3931035 Q0.3527569,0.4510345 0.3527569,0.5048276 Q0.3527569,0.5586207 0.35401,0.6165517 Q0.3552631,0.6744828 0.3602757,0.7296551 Q0.3652882,0.7848276 0.3746867,0.8337931 Q0.3840852,0.8827586 0.4003759,0.92 Q0.4166666,0.9572414 0.441416,0.9786207 Q0.4661654,1 0.5006266,1 Q0.5357143,1 0.5601503,0.9786207 Q0.5845865,0.9572414 0.6008772,0.92 Q0.6171679,0.8827586 0.6265664,0.8337931 Q0.6359649,0.7848276 0.6409774,0.7296551 Q0.6459899,0.6744828 0.6472431,0.6165517 Q0.6484962,0.5586207 0.6484962,0.5048276 Q0.6484962,0.4510345 0.6472431,0.3931035 Q0.6459899,0.3351724 0.6409774,0.28 Q0.6359649,0.2248276 0.6265664,0.1751724 Q0.6171679,0.1255172 0.6008772,0.0882758 Q0.5845865,0.0510345 0.5598371,0.0289655 Q0.5350877,0.0068965 0.5006266,0.0068965 Z" style="fill:rgb(0,0,0);stroke:none" />
</g>
<g transform="matrix(0 0 0 3 204.04273986816406 21.7222222222) ">
<path d="MNaN,0 LNaN,1 LNaN,1 LNaN,1 LNaN,1 LNaN,0 LNaN,0 LNaN,0 LNaN,0 Z" style="fill:rgb(0,0,0);stroke:none" />
</g>
<g transform="matrix(4.788000129163265 0 0 2.174999952316284 201.6487349781722 25.434722246041858) ">
<path d="M0.7180451,0 L0.7180451,0.9848276 L0.7713032,0.9848276 L0.7713032,0.7144827 L0.8214286,0.6124138 L0.9323308,0.9848276 L1,0.9848276 L0.8621553,0.5310345 L0.9906015,0.2717241 L0.9191729,0.2717241 L0.7713032,0.5834483 L0.7713032,0 Z M0.0532581,0.0234482 L0.0119048,0.5310345 L0.0576441,0.5365517 Q0.0733083,0.4951724 0.0936717,0.4696552 Q0.1140351,0.4441379 0.1403509,0.4441379 Q0.1629073,0.4441379 0.181391,0.4606897 Q0.1998747,0.4772414 0.2130326,0.5068965 Q0.2261905,0.5365517 0.233396,0.5772414 Q0.2406015,0.6179311 0.2406015,0.6662069 Q0.2406015,0.724138 0.2330827,0.7675862 Q0.2255639,0.8110345 0.2127193,0.84 Q0.1998747,0.8689655 0.1826441,0.8834483 Q0.1654135,0.8979311 0.1466165,0.8979311 Q0.1265664,0.8979311 0.1099624,0.8848276 Q0.0933584,0.8717241 0.0811403,0.8475862 Q0.0689223,0.8234482 0.0617168,0.7910345 Q0.0545113,0.7586206 0.0532581,0.7213793 L0,0.7213793 Q0.0006266,0.7875863 0.0119048,0.84 Q0.023183,0.8924138 0.0426065,0.9275862 Q0.0620301,0.9627586 0.087406,0.9813793 Q0.1127819,1 0.141604,1 Q0.1804511,1 0.2095865,0.9731034 Q0.2387218,0.9462068 0.2581453,0.9006896 Q0.2775689,0.8551724 0.2872807,0.7965517 Q0.2969925,0.7379311 0.2969925,0.6758621 Q0.2969925,0.5917241 0.2857143,0.5289655 Q0.2744361,0.4662069 0.2550125,0.4241379 Q0.235589,0.382069 0.2092732,0.3613793 Q0.1829574,0.3406896 0.1535088,0.3406896 Q0.1309524,0.3406896 0.1080827,0.357931 Q0.085213,0.3751724 0.070802,0.4110345 L0.0695489,0.4082759 L0.0933584,0.1268965 L0.2725564,0.1268965 L0.2725564,0.0234482 Z M0.401629,0.0234482 L0.3602757,0.5310345 L0.406015,0.5365517 Q0.4216792,0.4951724 0.4420426,0.4696552 Q0.462406,0.4441379 0.4887218,0.4441379 Q0.5112782,0.4441379 0.5297619,0.4606897 Q0.5482456,0.4772414 0.5614035,0.5068965 Q0.5745614,0.5365517 0.5817669,0.5772414 Q0.5889724,0.6179311 0.5889724,0.6662069 Q0.5889724,0.724138 0.5814536,0.7675862 Q0.5739348,0.8110345 0.5610902,0.84 Q0.5482456,0.8689655 0.531015,0.8834483 Q0.5137845,0.8979311 0.4949874,0.8979311 Q0.4749373,0.8979311 0.4583333,0.8848276 Q0.4417293,0.8717241 0.4295113,0.8475862 Q0.4172932,0.8234482 0.4100877,0.7910345 Q0.4028822,0.7586206 0.401629,0.7213793 L0.3483709,0.7213793 Q0.3489975,0.7875863 0.3602757,0.84 Q0.3715539,0.8924138 0.3909774,0.9275862 Q0.410401,0.9627586 0.4357769,0.9813793 Q0.4611529,1 0.4899749,1 Q0.5288221,1 0.5579574,0.9731034 Q0.5870927,0.9462068 0.6065163,0.9006896 Q0.6259398,0.8551724 0.6356516,0.7965517 Q0.6453634,0.7379311 0.6453634,0.6758621 Q0.6453634,0.5917241 0.6340852,0.5289655 Q0.622807,0.4662069 0.6033834,0.4241379 Q0.5839599,0.382069 0.5576441,0.3613793 Q0.5313283,0.3406896 0.5018797,0.3406896 Q0.4793233,0.3406896 0.4564536,0.357931 Q0.4335839,0.3751724 0.4191729,0.4110345 L0.4179198,0.4082759 L0.4417293,0.1268965 L0.6209273,0.1268965 L0.6209273,0.0234482 Z" style="fill:rgb(0,0,0);stroke:none" />
</g>
<g transform="matrix(0 0 0 3 222.41026306152344 21.7222222222) ">
<path d="MNaN,0 LNaN,1 LNaN,1 LNaN,1 LNaN,1 LNaN,0 LNaN,0 LNaN,0 LNaN,0 Z" style="fill:rgb(0,0,0);stroke:none" />
</g>
<g transform="matrix(2.076000042259693 0 0 0.9839999675750732 221.37225638914708 25.530222238412463) ">
<path d="M0.2196532,0.2347561 Q0.2485549,0.2347561 0.2774566,0.2621951 Q0.3063584,0.2896341 0.333815,0.3292683 Q0.3612717,0.3689024 0.3858381,0.417683 Q0.4104046,0.4664633 0.4306358,0.5060975 Q0.4118497,0.5487805 0.3880058,0.5929877 Q0.3641618,0.6371952 0.3374277,0.6768294 Q0.3106936,0.7164634 0.2817919,0.7408535 Q0.2528902,0.7652439 0.2239884,0.7652439 Q0.1690751,0.7652439 0.1372832,0.6920732 Q0.1054913,0.6189024 0.1054913,0.5030489 Q0.1054913,0.3993903 0.1358382,0.3170732 Q0.166185,0.2347561 0.2196532,0.2347561 Z M0.7760115,0.2347561 Q0.833815,0.2347561 0.8641618,0.3125 Q0.8945086,0.390244 0.8945086,0.5060975 Q0.8945086,0.6158536 0.8648844,0.6905487 Q0.8352601,0.7652439 0.7803468,0.7652439 Q0.7485549,0.7652439 0.7196532,0.7408535 Q0.6907514,0.7164634 0.6647398,0.679878 Q0.6387283,0.6432928 0.6148844,0.5975611 Q0.5910404,0.5518293 0.5693641,0.5091463 Q0.5881503,0.4695123 0.6119942,0.4207318 Q0.6358381,0.3719512 0.6625723,0.3307927 Q0.6893063,0.2896341 0.7182081,0.2621951 Q0.7471098,0.2347561 0.7760115,0.2347561 Z M0.2196532,0 Q0.1676301,0 0.1271676,0.0396342 Q0.0867052,0.0792682 0.058526,0.1478658 Q0.0303468,0.2164634 0.0151734,0.3079268 Q0,0.3993903 0,0.5030489 Q0,0.609756 0.015896,0.7012196 Q0.0317919,0.7926829 0.0606936,0.8582318 Q0.0895954,0.9237804 0.1307803,0.9618903 Q0.1719653,1 0.2239884,1 Q0.2687861,1 0.3070809,0.9710365 Q0.3453757,0.9420732 0.3793352,0.8932927 Q0.4132948,0.8445123 0.4429191,0.785061 Q0.4725433,0.7256098 0.5014451,0.6646342 Q0.5289017,0.7286586 0.5599711,0.7881098 Q0.5910404,0.8475609 0.6242774,0.8948172 Q0.6575144,0.9420732 0.6958093,0.9710365 Q0.734104,1 0.7774566,1 Q0.8294797,1 0.8706647,0.9603658 Q0.9118497,0.9207316 0.9407514,0.8536585 Q0.9696532,0.7865853 0.9848265,0.695122 Q1,0.6036587 1,0.4969513 Q1,0.3932927 0.9841041,0.3018292 Q0.9682081,0.2103659 0.9385838,0.1432927 Q0.9089595,0.0762196 0.8677746,0.0381098 Q0.8265896,0 0.7760115,0 Q0.7326589,0 0.6943642,0.0320122 Q0.6560694,0.0640244 0.6221098,0.1143292 Q0.5881503,0.1646341 0.558526,0.2271342 Q0.5289017,0.2896341 0.5014451,0.3536586 Q0.4725433,0.2896341 0.4421965,0.2271342 Q0.4118497,0.1646341 0.3771676,0.1143292 Q0.3424855,0.0640244 0.3034682,0.0320122 Q0.2644508,0 0.2196532,0 Z" style="fill:rgb(0,0,0);stroke:none" />
</g>
</svg>
