<?xml version="1.0" encoding="UTF-8"?>
<!DOCTYPE svg PUBLIC "-//W3C//DTD SVG 1.1//EN" "http://www.w3.org/Graphics/SVG/1.1/DTD/svg11.dtd">
<svg version="1.2" xmlns="http://www.w3.org/2000/svg" xmlns:xlink="http://www.w3.org/1999/xlink" x="0mm" y="0mm" width="250mm" height="75mm" viewBox="0 0 250 75">
<style type="text/css"><![CDATA[
text { font:12px Dialog; }
]]></style>
<g transform="matrix(250 0 0 75 0 0) ">
<path d="M0,0 L1,0 L1,1 L0,1 L0,0 Z" style="fill:rgb(255,255,255);stroke:none" />
</g>
<g transform="matrix(1 0 0 76 -0.5 -0.4999999701976776) ">
<path d="M0,0.0065789 L0,0.9934211 L0,1 L1,1 L1,0.9934211 L1,0.0065789 L1,0 L0,0 L0,0.0065789 Z" style="fill:rgb(0,0,0);opacity:0.10196078431372549;stroke:none" />
</g>
<g transform="matrix(1 0 0 76 37.96153846153847 -0.4999999701976776) ">
<path d="M0,0.0065789 L0,0.9934211 L0,1 L1,1 L1,0.9934211 L1,0.0065789 L1,0 L0,0 L0,0.0065789 Z" style="fill:rgb(0,0,0);opacity:0.10196078431372549;stroke:none" />
</g>
<g transform="matrix(1 0 0 76 76.42307692307693 -0.4999999701976776) ">
<path d="M0,0.0065789 L0,0.9934211 L0,1 L1,1 L1,0.9934211 L1,0.0065789 L1,0 L0,0 L0,0.0065789 Z" style="fill:rgb(0,0,0);opacity:0.10196078431372549;stroke:none" />
</g>
<g transform="matrix(1 0 0 76 114.88461538461539 -0.4999999701976776) ">
<path d="M0,0.0065789 L0,0.9934211 L0,1 L1,1 L1,0.9934211 L1,0.0065789 L1,0 L0,0 L0,0.0065789 Z" style="fill:rgb(0,0,0);opacity:0.10196078431372549;stroke:none" />
</g>
<g transform="matrix(1 0 0 76 153.34615384615387 -0.4999999701976776) ">
<path d="M0,0.0065789 L0,0.9934211 L0,1 L1,1 L1,0.9934211 L1,0.0065789 L1,0 L0,0 L0,0.0065789 Z" style="fill:rgb(0,0,0);opacity:0.10196078431372549;stroke:none" />
</g>
<g transform="matrix(1 0 0 76 191.80769230769232 -0.4999999701976776) ">
<path d="M0,0.0065789 L0,0.9934211 L0,1 L1,1 L1,0.9934211 L1,0.0065789 L1,0 L0,0 L0,0.0065789 Z" style="fill:rgb(0,0,0);opacity:0.10196078431372549;stroke:none" />
</g>
<g transform="matrix(1 0 0 76 230.26923076923077 -0.4999999701976776) ">
<path d="M0,0.0065789 L0,0.9934211 L0,1 L1,1 L1,0.9934211 L1,0.0065789 L1,0 L0,0 L0,0.0065789 Z" style="fill:rgb(0,0,0);opacity:0.10196078431372549;stroke:none" />
</g>
<g transform="matrix(251 0 0 1 -0.5 74.5) ">
<path d="M0.001992,1 L0.998008,1 L1,1 L1,0 L0.998008,0 L0.001992,0 L0,0 L0,1 L0.001992,1 Z" style="fill:rgb(0,0,0);opacity:0.10196078431372549;stroke:none" />
</g>
<g transform="matrix(251 0 0 1 -0.5 59.5) ">
<path d="M0.001992,1 L0.998008,1 L1,1 L1,0 L0.998008,0 L0.001992,0 L0,0 L0,1 L0.001992,1 Z" style="fill:rgb(0,0,0);opacity:0.10196078431372549;stroke:none" />
</g>
<g transform="matrix(251 0 0 1 -0.5 44.5) ">
<path d="M0.001992,1 L0.998008,1 L1,1 L1,0 L0.998008,0 L0.001992,0 L0,0 L0,1 L0.001992,1 Z" style="fill:rgb(0,0,0);opacity:0.10196078431372549;stroke:none" />
</g>
<g transform="matrix(251 0 0 1 -0.5 29.499999999999993) ">
<path d="M0.001992,1 L0.998008,1 L1,1 L1,0 L0.998008,0 L0.001992,0 L0,0 L0,1 L0.001992,1 Z" style="fill:rgb(0,0,0);opacity:0.10196078431372549;stroke:none" />
</g>
<g transform="matrix(251 0 0 1 -0.5 14.5) ">
<path d="M0.001992,1 L0.998008,1 L1,1 L1,0 L0.998008,0 L0.001992,0 L0,0 L0,1 L0.001992,1 Z" style="fill:rgb(0,0,0);opacity:0.10196078431372549;stroke:none" />
</g>
<g transform="matrix(251 0 0 76 -0.5 -0.5) ">
<path d="M0.001992,0.0131579 L0.998008,0.0131579 L0.998008,0.0065789 L0.9960159,0.0065789 L0.9960159,0.9934211 L0.998008,0.9934211 L0.998008,0.9868421 L0.001992,0.9868421 L0.001992,0.9934211 L0.0039841,0.9934211 L0.0039841,0.0065789 L0.001992,0.0065789 L0.001992,0.0131579 Z M0,0.0065789 L0,0.9934211 L0,1 L0.001992,1 L0.998008,1 L1,1 L1,0.9934211 L1,0.0065789 L1,0 L0.998008,0 L0.001992,0 L0,0 L0,0.0065789 Z" style="fill:rgb(255,255,255);stroke:none" />
</g>
<g transform="matrix(251.60182189941406 0 0 5.503765106201172 -0.8460788726806641 56.3482551574707) ">
<clipPath id="clip1"><path d="M0.0033628,-10.2381286 L0.9969963,-10.2381286 L0.9969963,3.3889064 L0.0033628,3.3889064 L0.0033628,-10.2381286 Z" /></clipPath>
<path d="M0.0029525,0.5140254 L0.0793859,0.9986166 L0.0796037,1 L0.0798236,0.9999078 L0.1562569,0.9658721 L0.232841,0.7530356 L0.3091327,0.7085437 L0.3854884,0.7557471 L0.4619354,0.7914483 L0.4621691,0.7915467 L0.4624002,0.7899789 L0.5388336,0.2713437 L0.5383962,0.1365483 L0.5383185,0.2727722 L0.6147518,0.362639 L0.6913178,0.2974205 L0.7676323,0.3725214 L0.8441296,0.3733898 L0.9204395,0.5172802 L0.9969734,0.5447064 L0.9999542,0.5457516 L1,0.2732193 L0.9970191,0.272174 L0.9205858,0.2448608 L0.844253,0.1009663 L0.7676962,0.1000119 L0.6913269,0.0249338 L0.6147747,0.0901677 L0.538474,0.0003244 L0.5382173,0 L0.5379588,0.0017529 L0.4615255,0.5203881 L0.4619628,0.6551835 L0.4619903,0.5189187 L0.3855569,0.4832251 L0.3091373,0.4360266 L0.2326262,0.4807493 L0.1560512,0.6935809 L0.0797687,0.7273782 L0.0797961,0.863643 L0.0802063,0.7286695 L0.003773,0.2440783 L0.0008205,0.2253242 L0,0.495272 L0.0029525,0.5140254 Z" style="fill:rgb(0,0,0);stroke:none" clip-path="url(#clip1)" />
</g>
<g transform="matrix(5 0 0 5 -2.5 55.93446602) ">
<clipPath id="clip2"><path d="M0.5,-11.1868932 L50.5,-11.1868932 L50.5,3.8131068 L0.5,3.8131068 L0.5,-11.1868932 Z" /></clipPath>
<path d="M0,0 L1,0 L1,1 L0,1 L0,0 Z" style="fill:rgb(0,0,0);stroke:none" clip-path="url(#clip2)" />
</g>
<g transform="matrix(5 0 0 5 16.730769230769234 58.6015450475) ">
<clipPath id="clip3"><path d="M-3.3461538,-11.720309 L46.6538462,-11.720309 L46.6538462,3.279691 L-3.3461538,3.279691 L-3.3461538,-11.720309 Z" /></clipPath>
<path d="M0,0 L1,0 L1,1 L0,1 L0,0 Z" style="fill:rgb(0,0,0);stroke:none" clip-path="url(#clip3)" />
</g>
<g transform="matrix(5 0 0 5 35.96153846153847 58.4142193925) ">
<clipPath id="clip4"><path d="M-7.1923077,-11.6828439 L42.8076923,-11.6828439 L42.8076923,3.3171561 L-7.1923077,3.3171561 L-7.1923077,-11.6828439 Z" /></clipPath>
<path d="M0,0 L1,0 L1,1 L0,1 L0,0 Z" style="fill:rgb(0,0,0);stroke:none" clip-path="url(#clip4)" />
</g>
<g transform="matrix(5 0 0 5 55.19230769230769 57.2441285525) ">
<clipPath id="clip5"><path d="M-11.0384615,-11.4488257 L38.9615385,-11.4488257 L38.9615385,3.5511743 L-11.0384615,3.5511743 L-11.0384615,-11.4488257 Z" /></clipPath>
<path d="M0,0 L1,0 L1,1 L0,1 L0,0 Z" style="fill:rgb(0,0,0);stroke:none" clip-path="url(#clip5)" />
</g>
<g transform="matrix(5 0 0 5 74.42307692307693 56.9979716) ">
<clipPath id="clip6"><path d="M-14.8846154,-11.3995943 L35.1153846,-11.3995943 L35.1153846,3.6004057 L-14.8846154,3.6004057 L-14.8846154,-11.3995943 Z" /></clipPath>
<path d="M0,0 L1,0 L1,1 L0,1 L0,0 Z" style="fill:rgb(0,0,0);stroke:none" clip-path="url(#clip6)" />
</g>
<g transform="matrix(5 0 0 5 93.65384615384616 57.2577836975) ">
<clipPath id="clip7"><path d="M-18.7307692,-11.4515567 L31.2692308,-11.4515567 L31.2692308,3.5484433 L-18.7307692,3.5484433 L-18.7307692,-11.4515567 Z" /></clipPath>
<path d="M0,0 L1,0 L1,1 L0,1 L0,0 Z" style="fill:rgb(0,0,0);stroke:none" clip-path="url(#clip7)" />
</g>
<g transform="matrix(5 0 0 5 112.88461538461539 57.4542301175) ">
<clipPath id="clip8"><path d="M-22.5769231,-11.490846 L27.4230769,-11.490846 L27.4230769,3.509154 L-22.5769231,3.509154 L-22.5769231,-11.490846 Z" /></clipPath>
<path d="M0,0 L1,0 L1,1 L0,1 L0,0 Z" style="fill:rgb(0,0,0);stroke:none" clip-path="url(#clip8)" />
</g>
<g transform="matrix(5 0 0 5 132.1153846153846 54.599783667500006) ">
<clipPath id="clip9"><path d="M-26.4230769,-10.9199567 L23.5769231,-10.9199567 L23.5769231,4.0800433 L-26.4230769,4.0800433 L-26.4230769,-10.9199567 Z" /></clipPath>
<path d="M0,0 L1,0 L1,1 L0,1 L0,0 Z" style="fill:rgb(0,0,0);stroke:none" clip-path="url(#clip9)" />
</g>
<g transform="matrix(5 0 0 5 151.34615384615387 55.0943914925) ">
<clipPath id="clip10"><path d="M-30.2692308,-11.0188783 L19.7307692,-11.0188783 L19.7307692,3.9811217 L-30.2692308,3.9811217 L-30.2692308,-11.0188783 Z" /></clipPath>
<path d="M0,0 L1,0 L1,1 L0,1 L0,0 Z" style="fill:rgb(0,0,0);stroke:none" clip-path="url(#clip10)" />
</g>
<g transform="matrix(5 0 0 5 170.57692307692307 54.73531253) ">
<clipPath id="clip11"><path d="M-34.1153846,-10.9470625 L15.8846154,-10.9470625 L15.8846154,4.0529375 L-34.1153846,4.0529375 L-34.1153846,-10.9470625 Z" /></clipPath>
<path d="M0,0 L1,0 L1,1 L0,1 L0,0 Z" style="fill:rgb(0,0,0);stroke:none" clip-path="url(#clip11)" />
</g>
<g transform="matrix(5 0 0 5 189.80769230769232 55.148696705) ">
<clipPath id="clip12"><path d="M-37.9615385,-11.0297393 L12.0384615,-11.0297393 L12.0384615,3.9702607 L-37.9615385,3.9702607 L-37.9615385,-11.0297393 Z" /></clipPath>
<path d="M0,0 L1,0 L1,1 L0,1 L0,0 Z" style="fill:rgb(0,0,0);stroke:none" clip-path="url(#clip12)" />
</g>
<g transform="matrix(5 0 0 5 209.03846153846155 55.153303377499995) ">
<clipPath id="clip13"><path d="M-41.8076923,-11.0306607 L8.1923077,-11.0306607 L8.1923077,3.9693393 L-41.8076923,3.9693393 L-41.8076923,-11.0306607 Z" /></clipPath>
<path d="M0,0 L1,0 L1,1 L0,1 L0,0 Z" style="fill:rgb(0,0,0);stroke:none" clip-path="url(#clip13)" />
</g>
<g transform="matrix(5 0 0 5 228.26923076923077 55.9458896675) ">
<clipPath id="clip14"><path d="M-45.6538462,-11.1891779 L4.3461538,-11.1891779 L4.3461538,3.8108221 L-45.6538462,3.8108221 L-45.6538462,-11.1891779 Z" /></clipPath>
<path d="M0,0 L1,0 L1,1 L0,1 L0,0 Z" style="fill:rgb(0,0,0);stroke:none" clip-path="url(#clip14)" />
</g>
<g transform="matrix(5 0 0 5 247.5 56.0962136) ">
<clipPath id="clip15"><path d="M-49.5,-11.2192427 L0.5,-11.2192427 L0.5,3.7807573 L-49.5,3.7807573 L-49.5,-11.2192427 Z" /></clipPath>
<path d="M0,0 L1,0 L1,1 L0,1 L0,0 Z" style="fill:rgb(0,0,0);stroke:none" clip-path="url(#clip15)" />
</g>
<g transform="matrix(1 0 0 76 -0.5 -0.4999999701976776) ">
<path d="M1,0.9934211 L1,0.0065789 L1,0 L0,0 L0,0.0065789 L0,0.9934211 L0,1 L1,1 L1,0.9934211 Z" style="fill:rgb(0,0,0);stroke:none" />
</g>
<g transform="matrix(13 0 0 1 -6.5 74.5) ">
<path d="M0.9615385,0 L0.0384615,0 L0,0 L0,1 L0.0384615,1 L0.9615385,1 L1,1 L1,0 L0.9615385,0 Z" style="fill:rgb(0,0,0);stroke:none" />
</g>
<g transform="matrix(6.0703125 0 0 9.10546875 -24.53515625 70.447265625) ">
<path d="M0.5,0.0952381 Q0.7982625,0.0952381 0.7982625,0.4954955 Q0.7982625,0.9047619 0.496139,0.9047619 Q0.2027027,0.9047619 0.2027027,0.4993565 Q0.2027027,0.0952381 0.5,0.0952381 Z M0.5,0 Q0.2750965,0 0.1375483,0.1370656 Q0,0.2741313 0,0.4993565 Q0,0.7226512 0.136583,0.8613256 Q0.273166,1 0.4942085,1 Q0.7249035,1 0.8624517,0.8632561 Q1,0.7265122 1,0.497426 Q1,0.2741313 0.8624517,0.1370656 Q0.7249035,0 0.5,0 Z" style="fill:rgb(0,0,0);stroke:none" />
</g>
<g transform="matrix(13 0 0 1 -6.5 59.5) ">
<path d="M0.9615385,0 L0.0384615,0 L0,0 L0,1 L0.0384615,1 L0.9615385,1 L1,1 L1,0 L0.9615385,0 Z" style="fill:rgb(0,0,0);stroke:none" />
</g>
<g transform="matrix(16.822265625 0 0 9.10546875 -35.4111328125 55.447265625) ">
<path d="M0.1804249,0.0952381 Q0.2880529,0.0952381 0.2880529,0.4954955 Q0.2880529,0.9047619 0.1790317,0.9047619 Q0.0731452,0.9047619 0.0731452,0.4993565 Q0.0731452,0.0952381 0.1804249,0.0952381 Z M0.4754441,0.8172458 L0.4754441,0.9761905 L0.5614768,0.9761905 L0.5614768,0.8172458 Z M0.8397771,0 Q0.7722048,0 0.7035876,0.0598456 L0.7035876,0.1718147 Q0.7763845,0.0952381 0.8300244,0.0952381 Q0.8753048,0.0952381 0.9012539,0.1409266 Q0.9272031,0.1866152 0.9272031,0.2664093 Q0.9272031,0.3912484 0.8512713,0.518018 L0.8119122,0.5830116 Q0.7206548,0.7355212 0.6907001,0.8648649 L0.6907001,0.9761905 L0.9975618,0.9761905 L0.9975618,0.8648649 L0.773598,0.8648649 Q0.7864855,0.7471042 0.8690352,0.6177606 L0.8955068,0.5759331 Q0.9557645,0.4813385 0.9778823,0.4150579 Q1,0.3487773 1,0.2631918 Q1,0.1441441 0.9561129,0.0720721 Q0.9122257,0 0.8397771,0 Z M0.1804249,0 Q0.0992685,0 0.0496343,0.1370656 Q0,0.2741313 0,0.4993565 Q0,0.7226512 0.049286,0.8613256 Q0.0985719,1 0.1783351,1 Q0.2615813,1 0.3112156,0.8632561 Q0.3608499,0.7265122 0.3608499,0.497426 Q0.3608499,0.2741313 0.3112156,0.1370656 Q0.2615813,0 0.1804249,0 Z" style="fill:rgb(0,0,0);stroke:none" />
</g>
<g transform="matrix(13 0 0 1 -6.5 44.5) ">
<path d="M0.9615385,0 L0.0384615,0 L0,0 L0,1 L0.0384615,1 L0.9615385,1 L1,1 L1,0 L0.9615385,0 Z" style="fill:rgb(0,0,0);stroke:none" />
</g>
<g transform="matrix(17.384765625 0 0 9.10546875 -36.1923828125 40.447265625) ">
<path d="M0.8752949,0.1795367 L0.8752949,0.6029601 L0.7114931,0.6029601 L0.8752949,0.1795367 Z M0.1745871,0.0952381 Q0.2787327,0.0952381 0.2787327,0.4954955 Q0.2787327,0.9047619 0.173239,0.9047619 Q0.0707786,0.9047619 0.0707786,0.4993565 Q0.0707786,0.0952381 0.1745871,0.0952381 Z M0.4600607,0.8172458 L0.4600607,0.9761905 L0.5433097,0.9761905 L0.5433097,0.8172458 Z M0.8709134,0.0238095 L0.6464442,0.6106821 L0.6464442,0.7065637 L0.8709134,0.7065637 L0.8709134,0.9761905 L0.9332659,0.9761905 L0.9332659,0.7065637 L1,0.7065637 L1,0.6029601 L0.9332659,0.6029601 L0.9332659,0.0238095 Z M0.1745871,0 Q0.0960566,0 0.0480283,0.1370656 Q0,0.2741313 0,0.4993565 Q0,0.7226512 0.0476913,0.8613256 Q0.0953825,1 0.1725649,1 Q0.2531176,1 0.3011459,0.8632561 Q0.3491743,0.7265122 0.3491743,0.497426 Q0.3491743,0.2741313 0.3011459,0.1370656 Q0.2531176,0 0.1745871,0 Z" style="fill:rgb(0,0,0);stroke:none" />
</g>
<g transform="matrix(13 0 0 1 -6.5 29.5) ">
<path d="M0.9615385,0 L0.0384615,0 L0,0 L0,1 L0.0384615,1 L0.9615385,1 L1,1 L1,0 L0.9615385,0 Z" style="fill:rgb(0,0,0);stroke:none" />
</g>
<g transform="matrix(17.349609375 0 0 9.111328125 -36.1748046875 25.444335937499993) ">
<path d="M0.1749409,0.0958199 Q0.2792975,0.0958199 0.2792975,0.4958199 Q0.2792975,0.9048232 0.17359,0.9048232 Q0.070922,0.9048232 0.070922,0.4996785 Q0.070922,0.0958199 0.1749409,0.0958199 Z M0.8368794,0.4565916 Q0.8821344,0.4565916 0.9076326,0.518328 Q0.9331307,0.5800643 0.9331307,0.6881029 Q0.9331307,0.7871383 0.9076326,0.8459807 Q0.8821344,0.9048232 0.8392435,0.9048232 Q0.7916245,0.9048232 0.7627491,0.8324759 Q0.7338737,0.7601286 0.7338737,0.6405145 Q0.7338737,0.5646302 0.7642688,0.5106109 Q0.794664,0.4565916 0.8368794,0.4565916 Z M0.4609929,0.8173633 L0.4609929,0.9762058 L0.5444107,0.9762058 L0.5444107,0.8173633 Z M0.1749409,0.0006431 Q0.0962513,0.0006431 0.0481256,0.1376206 Q0,0.2745981 0,0.4996785 Q0,0.7228296 0.0477879,0.8614148 Q0.0955758,1 0.1729146,1 Q0.2536305,1 0.3017562,0.8633441 Q0.3498818,0.7266881 0.3498818,0.4977492 Q0.3498818,0.2745981 0.3017562,0.1376206 Q0.2536305,0.0006431 0.1749409,0.0006431 Z M0.8628842,0 Q0.7656197,0 0.7120905,0.1369775 Q0.6585613,0.273955 0.6585613,0.5215434 Q0.6585613,0.7466238 0.7051672,0.8733119 Q0.751773,1 0.8345154,1 Q0.9064505,1 0.9532253,0.9041801 Q1,0.8083601 1,0.6598071 Q1,0.5305466 0.9582911,0.44791 Q0.9165822,0.3652733 0.8510638,0.3652733 Q0.7787909,0.3652733 0.7311719,0.4829582 Q0.7311719,0.0951768 0.8588315,0.0951768 Q0.9037487,0.0951768 0.974333,0.1466238 L0.974333,0.0360129 Q0.9074637,0 0.8628842,0 Z" style="fill:rgb(0,0,0);stroke:none" />
</g>
<g transform="matrix(13 0 0 1 -6.5 14.5) ">
<path d="M0.9615385,0 L0.0384615,0 L0,0 L0,1 L0.0384615,1 L0.9615385,1 L1,1 L1,0 L0.9615385,0 Z" style="fill:rgb(0,0,0);stroke:none" />
</g>
<g transform="matrix(17.4609375 0 0 9.111328125 -36.23046875 10.4443359375) ">
<path d="M0.835906,0.0958199 Q0.8738255,0.0958199 0.8969799,0.1308682 Q0.9201342,0.1659164 0.9201342,0.2231511 Q0.9201342,0.3305466 0.8506711,0.4180064 Q0.7949664,0.3569132 0.7743289,0.314791 Q0.7536913,0.2726688 0.7536913,0.2192926 Q0.7536913,0.1646302 0.7765101,0.1302251 Q0.7993289,0.0958199 0.835906,0.0958199 Z M0.1738255,0.0958199 Q0.2775168,0.0958199 0.2775168,0.4958199 Q0.2775168,0.9048232 0.1724832,0.9048232 Q0.0704698,0.9048232 0.0704698,0.4996785 Q0.0704698,0.0958199 0.1738255,0.0958199 Z M0.802349,0.5093248 L0.8493289,0.562701 Q0.8979866,0.6180064 0.9149329,0.6562701 Q0.9318792,0.6945338 0.9318792,0.7498392 Q0.9318792,0.8186495 0.9045302,0.8617363 Q0.8771812,0.9048232 0.8338926,0.9048232 Q0.7889262,0.9048232 0.7614094,0.8543408 Q0.7338926,0.8038585 0.7338926,0.7221865 Q0.7338926,0.6565916 0.7481544,0.6125402 Q0.7624161,0.5684887 0.802349,0.5093248 Z M0.4580537,0.8173633 L0.4580537,0.9762058 L0.5409396,0.9762058 L0.5409396,0.8173633 Z M0.1738255,0.0006431 Q0.0956376,0.0006431 0.0478188,0.1376206 Q0,0.2745981 0,0.4996785 Q0,0.7228296 0.0474832,0.8614148 Q0.0949664,1 0.1718121,1 Q0.2520134,1 0.2998322,0.8633441 Q0.347651,0.7266881 0.347651,0.4977492 Q0.347651,0.2745981 0.2998322,0.1376206 Q0.2520134,0.0006431 0.1738255,0.0006431 Z M0.8426174,0 Q0.7761745,0 0.7348993,0.0675241 Q0.6936242,0.1350482 0.6936242,0.2430868 Q0.6936242,0.3607717 0.766443,0.4578778 Q0.6677852,0.5710611 0.6677852,0.7421222 Q0.6677852,0.8578778 0.7129195,0.9289389 Q0.7580537,1 0.8312081,1 Q0.9057047,1 0.9528523,0.9247588 Q1,0.8495177 1,0.7299035 Q1,0.5633441 0.8875839,0.4578778 Q0.9802013,0.3440514 0.9802013,0.2057878 Q0.9802013,0.1144695 0.9421141,0.0572347 Q0.9040268,0 0.8426174,0 Z" style="fill:rgb(0,0,0);stroke:none" />
</g>
<g transform="matrix(251 0 0 1 -0.4999999701976776 74.5) ">
<path d="M0.001992,1 L0.998008,1 L1,1 L1,0 L0.998008,0 L0.001992,0 L0,0 L0,1 L0.001992,1 Z" style="fill:rgb(0,0,0);stroke:none" />
</g>
<g transform="matrix(1 0 0 13 -0.5 68.5) ">
<path d="M0,0.0384615 L0,0.9615385 L0,1 L1,1 L1,0.9615385 L1,0.0384615 L1,0 L0,0 L0,0.0384615 Z" style="fill:rgb(0,0,0);stroke:none" />
</g>
<g transform="matrix(6.0703125 0 0 9.10546875 -3.03515625 93.447265625) ">
<path d="M0.5,0.0952381 Q0.7982625,0.0952381 0.7982625,0.4954955 Q0.7982625,0.9047619 0.496139,0.9047619 Q0.2027027,0.9047619 0.2027027,0.4993565 Q0.2027027,0.0952381 0.5,0.0952381 Z M0.5,0 Q0.2750965,0 0.1375483,0.1370656 Q0,0.2741313 0,0.4993565 Q0,0.7226512 0.136583,0.8613256 Q0.273166,1 0.4942085,1 Q0.7249035,1 0.8624517,0.8632561 Q1,0.7265122 1,0.497426 Q1,0.2741313 0.8624517,0.1370656 Q0.7249035,0 0.5,0 Z" style="fill:rgb(0,0,0);stroke:none" />
</g>
<g transform="matrix(1 0 0 13 37.96154022216797 68.5) ">
<path d="M0,0.0384615 L0,0.9615385 L0,1 L1,1 L1,0.9615385 L1,0.0384615 L1,0 L0,0 L0,0.0384615 Z" style="fill:rgb(0,0,0);stroke:none" />
</g>
<g transform="matrix(5.203125 0 0 8.888671875 35.85997596153847 93.5556640625) ">
<path d="M0.481982,0 Q0.2635135,0 0.0416667,0.0613052 L0.0416667,0.1760053 Q0.277027,0.097561 0.4504505,0.097561 Q0.5968468,0.097561 0.6807432,0.1443639 Q0.7646396,0.1911668 0.7646396,0.2729071 Q0.7646396,0.400791 0.5191441,0.5306526 L0.3918919,0.5972314 Q0.0968468,0.7534608 0,0.8859591 L0,1 L0.9921171,1 L0.9921171,0.8859591 L0.268018,0.8859591 Q0.3096847,0.7653263 0.5765766,0.6328279 L0.6621622,0.5899802 Q0.856982,0.4930784 0.928491,0.4251813 Q1,0.3572841 1,0.2696111 Q1,0.1476599 0.8581081,0.0738299 Q0.7162162,0 0.481982,0 Z" style="fill:rgb(0,0,0);stroke:none" />
</g>
<g transform="matrix(1 0 0 13 76.42308044433594 68.5) ">
<path d="M0,0.0384615 L0,0.9615385 L0,1 L1,1 L1,0.9615385 L1,0.0384615 L1,0 L0,0 L0,0.0384615 Z" style="fill:rgb(0,0,0);stroke:none" />
</g>
<g transform="matrix(6.146484375 0 0 8.671875 73.84983473557693 93.6640625) ">
<path d="M0.6472831,0.1635135 L0.6472831,0.6081081 L0.1839847,0.6081081 L0.6472831,0.1635135 Z M0.6348904,0 L0,0.6162162 L0,0.7168919 L0.6348904,0.7168919 L0.6348904,1 L0.8112488,1 L0.8112488,0.7168919 L1,0.7168919 L1,0.6081081 L0.8112488,0.6081081 L0.8112488,0 Z" style="fill:rgb(0,0,0);stroke:none" />
</g>
<g transform="matrix(1 0 0 13 114.88461303710938 68.5) ">
<path d="M0,0.0384615 L0,0.9615385 L0,1 L1,1 L1,0.9615385 L1,0.0384615 L1,0 L0,0 L0,0.0384615 Z" style="fill:rgb(0,0,0);stroke:none" />
</g>
<g transform="matrix(5.923828125 0 0 9.111328125 112.42270132211539 93.4443359375) ">
<path d="M0.5222552,0.4565916 Q0.6547972,0.4565916 0.7294758,0.518328 Q0.8041543,0.5800643 0.8041543,0.6881029 Q0.8041543,0.7871383 0.7294758,0.8459807 Q0.6547972,0.9048232 0.529179,0.9048232 Q0.3897132,0.9048232 0.3051434,0.8324759 Q0.2205737,0.7601286 0.2205737,0.6405145 Q0.2205737,0.5646302 0.3095945,0.5106109 Q0.3986152,0.4565916 0.5222552,0.4565916 Z M0.5984174,0 Q0.3135509,0 0.1567755,0.1369775 Q0,0.273955 0,0.5215434 Q0,0.7466238 0.1364985,0.8733119 Q0.272997,1 0.5153314,1 Q0.7260138,1 0.8630069,0.9041801 Q1,0.8083601 1,0.6598071 Q1,0.5305466 0.8778437,0.44791 Q0.7556874,0.3652733 0.5637982,0.3652733 Q0.3521266,0.3652733 0.2126607,0.4829582 Q0.2126607,0.0951768 0.586548,0.0951768 Q0.7181009,0.0951768 0.9248269,0.1466238 L0.9248269,0.0360129 Q0.7289812,0 0.5984174,0 Z" style="fill:rgb(0,0,0);stroke:none" />
</g>
<g transform="matrix(1 0 0 13 153.34616088867188 68.5) ">
<path d="M0,0.0384615 L0,0.9615385 L0,1 L1,1 L1,0.9615385 L1,0.0384615 L1,0 L0,0 L0,0.0384615 Z" style="fill:rgb(0,0,0);stroke:none" />
</g>
<g transform="matrix(5.80078125 0 0 9.111328125 150.94576322115387 93.4443359375) ">
<path d="M0.5060606,0.0958199 Q0.620202,0.0958199 0.689899,0.1308682 Q0.759596,0.1659164 0.759596,0.2231511 Q0.759596,0.3305466 0.5505051,0.4180064 Q0.3828283,0.3569132 0.3207071,0.314791 Q0.2585859,0.2726688 0.2585859,0.2192926 Q0.2585859,0.1646302 0.3272727,0.1302251 Q0.3959596,0.0958199 0.5060606,0.0958199 Z M0.4050505,0.5093248 L0.5464646,0.562701 Q0.6929293,0.6180064 0.7439394,0.6562701 Q0.7949495,0.6945338 0.7949495,0.7498392 Q0.7949495,0.8186495 0.7126263,0.8617363 Q0.630303,0.9048232 0.5,0.9048232 Q0.3646465,0.9048232 0.2818182,0.8543408 Q0.1989899,0.8038585 0.1989899,0.7221865 Q0.1989899,0.6565916 0.2419192,0.6125402 Q0.2848485,0.5684887 0.4050505,0.5093248 Z M0.5262626,0 Q0.3262626,0 0.2020202,0.0675241 Q0.0777778,0.1350482 0.0777778,0.2430868 Q0.0777778,0.3607717 0.2969697,0.4578778 Q0,0.5710611 0,0.7421222 Q0,0.8578778 0.1358586,0.9289389 Q0.2717172,1 0.4919192,1 Q0.7161616,1 0.8580808,0.9247588 Q1,0.8495177 1,0.7299035 Q1,0.5633441 0.6616162,0.4578778 Q0.940404,0.3440514 0.940404,0.2057878 Q0.940404,0.1144695 0.8257576,0.0572347 Q0.7111111,0 0.5262626,0 Z" style="fill:rgb(0,0,0);stroke:none" />
</g>
<g transform="matrix(1 0 0 13 191.8076934814453 68.5) ">
<path d="M0,0.0384615 L0,0.9615385 L0,1 L1,1 L1,0.9615385 L1,0.0384615 L1,0 L0,0 L0,0.0384615 Z" style="fill:rgb(0,0,0);stroke:none" />
</g>
<g transform="matrix(12.615234375 0 0 9.10546875 186.00007512019232 93.447265625) ">
<path d="M0.7594055,0.0952381 Q0.9029261,0.0952381 0.9029261,0.4954955 Q0.9029261,0.9047619 0.7575476,0.9047619 Q0.6163493,0.9047619 0.6163493,0.4993565 Q0.6163493,0.0952381 0.7594055,0.0952381 Z M0.2294473,0 L0,0.0791506 L0,0.1769627 L0.1374826,0.1293436 L0.1374826,0.8809524 L0,0.8809524 L0,0.9761905 L0.3669299,0.9761905 L0.3669299,0.8809524 L0.2294473,0.8809524 L0.2294473,0 Z M0.7594055,0 Q0.6511844,0 0.5849977,0.1370656 Q0.518811,0.2741313 0.518811,0.4993565 Q0.518811,0.7226512 0.5845332,0.8613256 Q0.6502555,1 0.7566187,1 Q0.8676266,1 0.9338133,0.8632561 Q1,0.7265122 1,0.497426 Q1,0.2741313 0.9338133,0.1370656 Q0.8676266,0 0.7594055,0 Z" style="fill:rgb(0,0,0);stroke:none" />
</g>
<g transform="matrix(1 0 0 13 230.26922607421875 68.5) ">
<path d="M0,0.0384615 L0,0.9615385 L0,1 L1,1 L1,0.9615385 L1,0.0384615 L1,0 L0,0 L0,0.0384615 Z" style="fill:rgb(0,0,0);stroke:none" />
</g>
<g transform="matrix(11.982421875 0 0 8.888671875 224.77801983173077 93.5556640625) ">
<path d="M0.2415648,0 L0,0.0810811 L0,0.1812788 L0.1447433,0.1324984 L0.1447433,0.902439 L0,0.902439 L0,1 L0.3863081,1 L0.3863081,0.902439 L0.2415648,0.902439 L0.2415648,0 Z M0.7750611,0 Q0.6801956,0 0.5838631,0.0613052 L0.5838631,0.1760053 Q0.6860636,0.097561 0.7613692,0.097561 Q0.8249389,0.097561 0.8613692,0.1443639 Q0.8977995,0.1911668 0.8977995,0.2729071 Q0.8977995,0.400791 0.791198,0.5306526 L0.7359413,0.5972314 Q0.607824,0.7534608 0.5657702,0.8859591 L0.5657702,1 L0.996577,1 L0.996577,0.8859591 L0.6821516,0.8859591 Q0.7002445,0.7653263 0.8161369,0.6328279 L0.8533007,0.5899802 Q0.9378973,0.4930784 0.9689487,0.4251813 Q1,0.3572841 1,0.2696111 Q1,0.1476599 0.9383863,0.0738299 Q0.8767726,0 0.7750611,0 Z" style="fill:rgb(0,0,0);stroke:none" />
</g>
</svg>
